solid OpenSCAD_Model
  facet normal 1 -0 0
    outer loop
      vertex 0 0 7
      vertex 0 2.709 0
      vertex 0 2.709 7
    endloop
  endfacet
  facet normal 1 0 0
    outer loop
      vertex 0 2.709 0
      vertex 0 0 7
      vertex 0 0 0
    endloop
  endfacet
  facet normal 0 0 1
    outer loop
      vertex -1.24368 1.04982 7
      vertex -0.901108 0.629291 7
      vertex -0.901001 0.656985 7
    endloop
  endfacet
  facet normal 0 0 1
    outer loop
      vertex -1.24368 1.04982 7
      vertex -0.901001 0.656985 7
      vertex -0.901657 0.68967 7
    endloop
  endfacet
  facet normal 0 0 1
    outer loop
      vertex -0.901108 0.629291 7
      vertex -1.24368 1.04982 7
      vertex -1.28056 1.05477 7
    endloop
  endfacet
  facet normal 0 0 1
    outer loop
      vertex -1.31964 1.05881 7
      vertex -0.901398 0.601886 7
      vertex -1.28056 1.05477 7
    endloop
  endfacet
  facet normal 0 0 1
    outer loop
      vertex -0.901398 0.601886 7
      vertex -1.31964 1.05881 7
      vertex -0.901886 0.574801 7
    endloop
  endfacet
  facet normal 0 0 1
    outer loop
      vertex -1.20901 1.04399 7
      vertex -0.901657 0.68967 7
      vertex -0.903595 0.720843 7
    endloop
  endfacet
  facet normal 0 0 1
    outer loop
      vertex -1.36093 1.06195 7
      vertex -0.901886 0.574801 7
      vertex -1.31964 1.05881 7
    endloop
  endfacet
  facet normal 0 0 1
    outer loop
      vertex -0.901886 0.574801 7
      vertex -1.36093 1.06195 7
      vertex -0.902557 0.548007 7
    endloop
  endfacet
  facet normal 0 0 1
    outer loop
      vertex -1.17654 1.03726 7
      vertex -0.903595 0.720843 7
      vertex -0.906845 0.750522 7
    endloop
  endfacet
  facet normal 0 0 1
    outer loop
      vertex -1.40442 1.0642 7
      vertex -0.902557 0.548007 7
      vertex -1.36093 1.06195 7
    endloop
  endfacet
  facet normal 0 0 1
    outer loop
      vertex -0.902557 0.548007 7
      vertex -1.40442 1.0642 7
      vertex -0.903427 0.521533 7
    endloop
  endfacet
  facet normal 0 0 1
    outer loop
      vertex -1.4501 1.06554 7
      vertex -0.904495 0.495364 7
      vertex -1.40442 1.0642 7
    endloop
  endfacet
  facet normal 0 0 1
    outer loop
      vertex -1.14627 1.02962 7
      vertex -0.906845 0.750522 7
      vertex -0.911377 0.778705 7
    endloop
  endfacet
  facet normal 0 0 1
    outer loop
      vertex -0.903427 0.521533 7
      vertex -1.40442 1.0642 7
      vertex -0.904495 0.495364 7
    endloop
  endfacet
  facet normal 0 0 1
    outer loop
      vertex -0.905762 0.469485 7
      vertex -1.4501 1.06554 7
      vertex -0.907211 0.443927 7
    endloop
  endfacet
  facet normal 0 0 1
    outer loop
      vertex -1.11821 1.02109 7
      vertex -0.911377 0.778705 7
      vertex -0.917206 0.805392 7
    endloop
  endfacet
  facet normal 0 0 1
    outer loop
      vertex -0.904495 0.495364 7
      vertex -1.4501 1.06554 7
      vertex -0.905762 0.469485 7
    endloop
  endfacet
  facet normal 0 0 1
    outer loop
      vertex -1.498 1.066 7
      vertex -0.907211 0.443927 7
      vertex -1.4501 1.06554 7
    endloop
  endfacet
  facet normal 0 0 1
    outer loop
      vertex -1.11821 1.02109 7
      vertex -0.917206 0.805392 7
      vertex -0.924332 0.830569 7
    endloop
  endfacet
  facet normal 0 0 1
    outer loop
      vertex 0 2.709 7
      vertex -0.364014 1.844 7
      vertex 0 0 7
    endloop
  endfacet
  facet normal 0 0 1
    outer loop
      vertex 0 2.709 7
      vertex -0.383011 1.883 7
      vertex -0.364014 1.844 7
    endloop
  endfacet
  facet normal 0 0 1
    outer loop
      vertex 0 2.709 7
      vertex -6.20001 1.883 7
      vertex -0.383011 1.883 7
    endloop
  endfacet
  facet normal -0 0 1
    outer loop
      vertex -6.87201 2.61299 7
      vertex -6.20001 1.883 7
      vertex 0 2.709 7
    endloop
  endfacet
  facet normal -0 -0 1
    outer loop
      vertex -6.86739 2.54799 7
      vertex -6.20001 1.883 7
      vertex -6.87201 2.61299 7
    endloop
  endfacet
  facet normal -0 -0 1
    outer loop
      vertex -6.86182 2.48641 7
      vertex -6.20001 1.883 7
      vertex -6.86739 2.54799 7
    endloop
  endfacet
  facet normal 0 0 1
    outer loop
      vertex -6.20001 1.883 7
      vertex -6.86182 2.48641 7
      vertex -6.2556 1.88365 7
    endloop
  endfacet
  facet normal -0 -0 1
    outer loop
      vertex -6.85532 2.42823 7
      vertex -6.2556 1.88365 7
      vertex -6.86182 2.48641 7
    endloop
  endfacet
  facet normal 0 0 1
    outer loop
      vertex -6.2556 1.88365 7
      vertex -6.85532 2.42823 7
      vertex -6.30835 1.88567 7
    endloop
  endfacet
  facet normal -0 -0 1
    outer loop
      vertex -6.84784 2.37348 7
      vertex -6.30835 1.88567 7
      vertex -6.85532 2.42823 7
    endloop
  endfacet
  facet normal 0 0 1
    outer loop
      vertex -6.30835 1.88567 7
      vertex -6.84784 2.37348 7
      vertex -6.35829 1.88901 7
    endloop
  endfacet
  facet normal -0 -0 1
    outer loop
      vertex -6.83943 2.32215 7
      vertex -6.35829 1.88901 7
      vertex -6.84784 2.37348 7
    endloop
  endfacet
  facet normal 0 0 1
    outer loop
      vertex -6.35829 1.88901 7
      vertex -6.83943 2.32215 7
      vertex -6.4054 1.89368 7
    endloop
  endfacet
  facet normal -0 -0 1
    outer loop
      vertex -6.83006 2.27423 7
      vertex -6.4054 1.89368 7
      vertex -6.83943 2.32215 7
    endloop
  endfacet
  facet normal 0 0 1
    outer loop
      vertex -6.4054 1.89368 7
      vertex -6.83006 2.27423 7
      vertex -6.44968 1.89971 7
    endloop
  endfacet
  facet normal -0 -0 1
    outer loop
      vertex -6.81976 2.22974 7
      vertex -6.44968 1.89971 7
      vertex -6.83006 2.27423 7
    endloop
  endfacet
  facet normal 0 0 1
    outer loop
      vertex -6.44968 1.89971 7
      vertex -6.81976 2.22974 7
      vertex -6.49113 1.90705 7
    endloop
  endfacet
  facet normal -0 -0 1
    outer loop
      vertex -6.8085 2.18866 7
      vertex -6.49113 1.90705 7
      vertex -6.81976 2.22974 7
    endloop
  endfacet
  facet normal 0 0 1
    outer loop
      vertex -6.49113 1.90705 7
      vertex -6.8085 2.18866 7
      vertex -6.52975 1.91574 7
    endloop
  endfacet
  facet normal -0 -0 1
    outer loop
      vertex -6.7963 2.151 7
      vertex -6.52975 1.91574 7
      vertex -6.8085 2.18866 7
    endloop
  endfacet
  facet normal 0 0 1
    outer loop
      vertex -6.52975 1.91574 7
      vertex -6.7963 2.151 7
      vertex -6.56555 1.92577 7
    endloop
  endfacet
  facet normal 0 0 1
    outer loop
      vertex -6.56555 1.92577 7
      vertex -6.7963 2.151 7
      vertex -6.59853 1.93714 7
    endloop
  endfacet
  facet normal -0 -0 1
    outer loop
      vertex -6.78313 2.11676 7
      vertex -6.59853 1.93714 7
      vertex -6.7963 2.151 7
    endloop
  endfacet
  facet normal 0 0 1
    outer loop
      vertex -6.59853 1.93714 7
      vertex -6.78313 2.11676 7
      vertex -6.62868 1.94983 7
    endloop
  endfacet
  facet normal -0 -0 1
    outer loop
      vertex -6.76903 2.08594 7
      vertex -6.62868 1.94983 7
      vertex -6.78313 2.11676 7
    endloop
  endfacet
  facet normal 0 0 1
    outer loop
      vertex -6.62868 1.94983 7
      vertex -6.76903 2.08594 7
      vertex -6.65601 1.96387 7
    endloop
  endfacet
  facet normal 0 0 1
    outer loop
      vertex -6.6805 1.97924 7
      vertex -6.75397 2.05854 7
      vertex -6.70216 1.99594 7
    endloop
  endfacet
  facet normal 0 0 1
    outer loop
      vertex -6.65601 1.96387 7
      vertex -6.75397 2.05854 7
      vertex -6.6805 1.97924 7
    endloop
  endfacet
  facet normal 0 0 1
    outer loop
      vertex -6.70216 1.99594 7
      vertex -6.73796 2.03456 7
      vertex -6.72101 2.014 7
    endloop
  endfacet
  facet normal -0 -0 1
    outer loop
      vertex -6.73796 2.03456 7
      vertex -6.70216 1.99594 7
      vertex -6.75397 2.05854 7
    endloop
  endfacet
  facet normal -0 -0 1
    outer loop
      vertex -6.75397 2.05854 7
      vertex -6.65601 1.96387 7
      vertex -6.76903 2.08594 7
    endloop
  endfacet
  facet normal -0 0 1
    outer loop
      vertex -10 2.709 7
      vertex -6.87201 2.61299 7
      vertex 0 2.709 7
    endloop
  endfacet
  facet normal 0 0 1
    outer loop
      vertex -7 2.61299 7
      vertex -10 2.709 7
      vertex -7 0.316989 7
    endloop
  endfacet
  facet normal 0 0 1
    outer loop
      vertex -6.87201 2.61299 7
      vertex -10 2.709 7
      vertex -7 2.61299 7
    endloop
  endfacet
  facet normal -0 0 1
    outer loop
      vertex -0.391922 1.75862 7
      vertex 0 0 7
      vertex -0.364014 1.844 7
    endloop
  endfacet
  facet normal -0 0 1
    outer loop
      vertex -0.420258 1.66941 7
      vertex 0 0 7
      vertex -0.391922 1.75862 7
    endloop
  endfacet
  facet normal -0 0 1
    outer loop
      vertex -0.44899 1.5763 7
      vertex 0 0 7
      vertex -0.420258 1.66941 7
    endloop
  endfacet
  facet normal -0 0 1
    outer loop
      vertex -0.478134 1.47934 7
      vertex 0 0 7
      vertex -0.44899 1.5763 7
    endloop
  endfacet
  facet normal -0 0 1
    outer loop
      vertex -0.507675 1.37851 7
      vertex 0 0 7
      vertex -0.478134 1.47934 7
    endloop
  endfacet
  facet normal -0 0 1
    outer loop
      vertex -0.537643 1.27381 7
      vertex 0 0 7
      vertex -0.507675 1.37851 7
    endloop
  endfacet
  facet normal -0 0 1
    outer loop
      vertex -0.568008 1.16524 7
      vertex 0 0 7
      vertex -0.537643 1.27381 7
    endloop
  endfacet
  facet normal -0 0 1
    outer loop
      vertex -0.598785 1.05281 7
      vertex 0 0 7
      vertex -0.568008 1.16524 7
    endloop
  endfacet
  facet normal -0 0 1
    outer loop
      vertex -0.629974 0.936511 7
      vertex 0 0 7
      vertex -0.598785 1.05281 7
    endloop
  endfacet
  facet normal -0 0 1
    outer loop
      vertex -0.66156 0.816333 7
      vertex 0 0 7
      vertex -0.629974 0.936511 7
    endloop
  endfacet
  facet normal -0 0 1
    outer loop
      vertex -0.693558 0.692309 7
      vertex 0 0 7
      vertex -0.66156 0.816333 7
    endloop
  endfacet
  facet normal -0 0 1
    outer loop
      vertex -0.725967 0.564395 7
      vertex 0 0 7
      vertex -0.693558 0.692309 7
    endloop
  endfacet
  facet normal -0 0 1
    outer loop
      vertex -0.758789 0.432635 7
      vertex 0 0 7
      vertex -0.725967 0.564395 7
    endloop
  endfacet
  facet normal -0 0 1
    outer loop
      vertex -0.792007 0.296985 7
      vertex 0 0 7
      vertex -0.758789 0.432635 7
    endloop
  endfacet
  facet normal -0 0 1
    outer loop
      vertex -0.920013 0.296985 7
      vertex 0 0 7
      vertex -0.792007 0.296985 7
    endloop
  endfacet
  facet normal 0 0 1
    outer loop
      vertex -1.09236 1.01166 7
      vertex -0.924332 0.830569 7
      vertex -0.932755 0.854236 7
    endloop
  endfacet
  facet normal 0 0 1
    outer loop
      vertex -1.0687 1.00135 7
      vertex -0.932755 0.854236 7
      vertex -0.942474 0.876422 7
    endloop
  endfacet
  facet normal 0 0 1
    outer loop
      vertex -1.0687 1.00135 7
      vertex -0.942474 0.876422 7
      vertex -0.953491 0.897098 7
    endloop
  endfacet
  facet normal 0 0 1
    outer loop
      vertex -1.04726 0.990115 7
      vertex -0.953491 0.897098 7
      vertex -0.965805 0.916278 7
    endloop
  endfacet
  facet normal 0 0 1
    outer loop
      vertex -1.04726 0.990115 7
      vertex -0.965805 0.916278 7
      vertex -0.979416 0.933963 7
    endloop
  endfacet
  facet normal 0 0 1
    outer loop
      vertex -1.04726 0.990115 7
      vertex -0.979416 0.933963 7
      vertex -0.994308 0.950137 7
    endloop
  endfacet
  facet normal 0 0 1
    outer loop
      vertex -1.02802 0.978 7
      vertex -0.994308 0.950137 7
      vertex -1.01051 0.964816 7
    endloop
  endfacet
  facet normal 0 0 1
    outer loop
      vertex -1.04726 0.990115 7
      vertex -0.994308 0.950137 7
      vertex -1.02802 0.978 7
    endloop
  endfacet
  facet normal 0 0 1
    outer loop
      vertex -0.953491 0.897098 7
      vertex -1.04726 0.990115 7
      vertex -1.0687 1.00135 7
    endloop
  endfacet
  facet normal 0 0 1
    outer loop
      vertex -0.932755 0.854236 7
      vertex -1.0687 1.00135 7
      vertex -1.09236 1.01166 7
    endloop
  endfacet
  facet normal 0 0 1
    outer loop
      vertex -0.924332 0.830569 7
      vertex -1.09236 1.01166 7
      vertex -1.11821 1.02109 7
    endloop
  endfacet
  facet normal 0 0 1
    outer loop
      vertex -0.911377 0.778705 7
      vertex -1.11821 1.02109 7
      vertex -1.14627 1.02962 7
    endloop
  endfacet
  facet normal 0 0 1
    outer loop
      vertex -0.906845 0.750522 7
      vertex -1.14627 1.02962 7
      vertex -1.17654 1.03726 7
    endloop
  endfacet
  facet normal 0 0 1
    outer loop
      vertex -0.903595 0.720843 7
      vertex -1.17654 1.03726 7
      vertex -1.20901 1.04399 7
    endloop
  endfacet
  facet normal 0 0 1
    outer loop
      vertex -0.901657 0.68967 7
      vertex -1.20901 1.04399 7
      vertex -1.24368 1.04982 7
    endloop
  endfacet
  facet normal 0 0 1
    outer loop
      vertex -0.901108 0.629291 7
      vertex -1.28056 1.05477 7
      vertex -0.901398 0.601886 7
    endloop
  endfacet
  facet normal 0 0 1
    outer loop
      vertex -0.907211 0.443927 7
      vertex -1.498 1.066 7
      vertex -0.908859 0.418674 7
    endloop
  endfacet
  facet normal 0 0 1
    outer loop
      vertex -0.908859 0.418674 7
      vertex -1.498 1.066 7
      vertex -0.910706 0.393725 7
    endloop
  endfacet
  facet normal 0 0 1
    outer loop
      vertex -0.910706 0.393725 7
      vertex -1.498 1.066 7
      vertex -0.912735 0.369082 7
    endloop
  endfacet
  facet normal 0 0 1
    outer loop
      vertex -0.912735 0.369082 7
      vertex -1.498 1.066 7
      vertex -0.914963 0.344745 7
    endloop
  endfacet
  facet normal 0 0 1
    outer loop
      vertex -0.914963 0.344745 7
      vertex -1.498 1.066 7
      vertex -0.917389 0.320712 7
    endloop
  endfacet
  facet normal 0 0 1
    outer loop
      vertex -0.917389 0.320712 7
      vertex -1.498 1.066 7
      vertex -0.920013 0.296985 7
    endloop
  endfacet
  facet normal -0 0 1
    outer loop
      vertex -6.16701 1.066 7
      vertex -0.920013 0.296985 7
      vertex -1.498 1.066 7
    endloop
  endfacet
  facet normal -0 0 1
    outer loop
      vertex -6.87201 0.316989 7
      vertex -0.920013 0.296985 7
      vertex -6.16701 1.066 7
    endloop
  endfacet
  facet normal 0 0 1
    outer loop
      vertex -6.8508 0.498569 7
      vertex -6.16701 1.066 7
      vertex -6.22171 1.06525 7
    endloop
  endfacet
  facet normal 0 0 1
    outer loop
      vertex -6.84172 0.552752 7
      vertex -6.22171 1.06525 7
      vertex -6.2738 1.06301 7
    endloop
  endfacet
  facet normal 0 0 1
    outer loop
      vertex -6.83165 0.603747 7
      vertex -6.2738 1.06301 7
      vertex -6.3233 1.05928 7
    endloop
  endfacet
  facet normal 0 0 1
    outer loop
      vertex -6.83165 0.603747 7
      vertex -6.3233 1.05928 7
      vertex -6.37019 1.05408 7
    endloop
  endfacet
  facet normal 0 0 1
    outer loop
      vertex -6.82057 0.651584 7
      vertex -6.37019 1.05408 7
      vertex -6.41449 1.04737 7
    endloop
  endfacet
  facet normal 0 0 1
    outer loop
      vertex -6.8085 0.696246 7
      vertex -6.41449 1.04737 7
      vertex -6.45618 1.03917 7
    endloop
  endfacet
  facet normal 0 0 1
    outer loop
      vertex -6.79544 0.73772 7
      vertex -6.45618 1.03917 7
      vertex -6.49525 1.0295 7
    endloop
  endfacet
  facet normal 0 0 1
    outer loop
      vertex -6.78137 0.776034 7
      vertex -6.49525 1.0295 7
      vertex -6.53174 1.01831 7
    endloop
  endfacet
  facet normal 0 0 1
    outer loop
      vertex -6.7663 0.811175 7
      vertex -6.53174 1.01831 7
      vertex -6.56563 1.00565 7
    endloop
  endfacet
  facet normal 0 0 1
    outer loop
      vertex -6.7663 0.811175 7
      vertex -6.56563 1.00565 7
      vertex -6.59691 0.991504 7
    endloop
  endfacet
  facet normal 0 0 1
    outer loop
      vertex -6.75023 0.843143 7
      vertex -6.59691 0.991504 7
      vertex -6.62558 0.975863 7
    endloop
  endfacet
  facet normal 0 0 1
    outer loop
      vertex -6.73315 0.871936 7
      vertex -6.62558 0.975863 7
      vertex -6.65166 0.958728 7
    endloop
  endfacet
  facet normal 0 0 1
    outer loop
      vertex -6.73315 0.871936 7
      vertex -6.65166 0.958728 7
      vertex -6.67514 0.940097 7
    endloop
  endfacet
  facet normal 0 0 1
    outer loop
      vertex -6.73315 0.871936 7
      vertex -6.67514 0.940097 7
      vertex -6.69601 0.919986 7
    endloop
  endfacet
  facet normal 0 0 1
    outer loop
      vertex -6.73315 0.871936 7
      vertex -6.69601 0.919986 7
      vertex -6.71507 0.897555 7
    endloop
  endfacet
  facet normal 0 0 1
    outer loop
      vertex -6.62558 0.975863 7
      vertex -6.73315 0.871936 7
      vertex -6.75023 0.843143 7
    endloop
  endfacet
  facet normal 0 0 1
    outer loop
      vertex -6.59691 0.991504 7
      vertex -6.75023 0.843143 7
      vertex -6.7663 0.811175 7
    endloop
  endfacet
  facet normal 0 0 1
    outer loop
      vertex -6.53174 1.01831 7
      vertex -6.7663 0.811175 7
      vertex -6.78137 0.776034 7
    endloop
  endfacet
  facet normal 0 0 1
    outer loop
      vertex -6.49525 1.0295 7
      vertex -6.78137 0.776034 7
      vertex -6.79544 0.73772 7
    endloop
  endfacet
  facet normal 0 0 1
    outer loop
      vertex -6.45618 1.03917 7
      vertex -6.79544 0.73772 7
      vertex -6.8085 0.696246 7
    endloop
  endfacet
  facet normal 0 0 1
    outer loop
      vertex -6.41449 1.04737 7
      vertex -6.8085 0.696246 7
      vertex -6.82057 0.651584 7
    endloop
  endfacet
  facet normal 0 0 1
    outer loop
      vertex -6.37019 1.05408 7
      vertex -6.82057 0.651584 7
      vertex -6.83165 0.603747 7
    endloop
  endfacet
  facet normal 0 0 1
    outer loop
      vertex -6.2738 1.06301 7
      vertex -6.83165 0.603747 7
      vertex -6.84172 0.552752 7
    endloop
  endfacet
  facet normal 0 0 1
    outer loop
      vertex -6.22171 1.06525 7
      vertex -6.84172 0.552752 7
      vertex -6.8508 0.498569 7
    endloop
  endfacet
  facet normal 0 0 1
    outer loop
      vertex -6.16701 1.066 7
      vertex -6.8508 0.498569 7
      vertex -6.85887 0.441211 7
    endloop
  endfacet
  facet normal 0 0 1
    outer loop
      vertex -6.16701 1.066 7
      vertex -6.85887 0.441211 7
      vertex -6.86594 0.380694 7
    endloop
  endfacet
  facet normal 0 0 1
    outer loop
      vertex -6.16701 1.066 7
      vertex -6.86594 0.380694 7
      vertex -6.87201 0.316989 7
    endloop
  endfacet
  facet normal 0 0 1
    outer loop
      vertex -0.920013 0.296985 7
      vertex -6.87201 0.316989 7
      vertex 0 0 7
    endloop
  endfacet
  facet normal 0 0 1
    outer loop
      vertex -10 0 7
      vertex -6.87201 0.316989 7
      vertex -7 0.316989 7
    endloop
  endfacet
  facet normal 0 0 1
    outer loop
      vertex -6.87201 0.316989 7
      vertex -10 0 7
      vertex 0 0 7
    endloop
  endfacet
  facet normal 0 0 1
    outer loop
      vertex -10 0 7
      vertex -7 0.316989 7
      vertex -10 2.709 7
    endloop
  endfacet
  facet normal -1 0 0
    outer loop
      vertex -10 0 2.84549
      vertex -10 2.709 7
      vertex -10 2.709 2.84549
    endloop
  endfacet
  facet normal -1 -0 0
    outer loop
      vertex -10 2.709 7
      vertex -10 0 2.84549
      vertex -10 0 7
    endloop
  endfacet
  facet normal -1 0 0
    outer loop
      vertex -10 0 0
      vertex -10 2.709 1.15451
      vertex -10 2.709 0
    endloop
  endfacet
  facet normal -1 -0 0
    outer loop
      vertex -10 2.709 1.15451
      vertex -10 0 0
      vertex -10 0 1.15451
    endloop
  endfacet
  facet normal 0 1 -0
    outer loop
      vertex -9.57612 2.709 2.38268
      vertex -10 2.709 7
      vertex 0 2.709 7
    endloop
  endfacet
  facet normal 0 1 0
    outer loop
      vertex -10 2.709 7
      vertex -9.79289 2.709 2.70711
      vertex -10 2.709 2.84549
    endloop
  endfacet
  facet normal 0 1 0
    outer loop
      vertex -10 2.709 7
      vertex -9.57612 2.709 2.38268
      vertex -9.79289 2.709 2.70711
    endloop
  endfacet
  facet normal 0 1 -0
    outer loop
      vertex 0 2.709 0
      vertex -9.57612 2.709 2.38268
      vertex 0 2.709 7
    endloop
  endfacet
  facet normal 0 1 0
    outer loop
      vertex -9.57612 2.709 2.38268
      vertex 0 2.709 0
      vertex -9.5 2.709 2
    endloop
  endfacet
  facet normal 0 1 0
    outer loop
      vertex -9.5 2.709 2
      vertex 0 2.709 0
      vertex -9.57612 2.709 1.61732
    endloop
  endfacet
  facet normal 0 1 0
    outer loop
      vertex -10 2.709 0
      vertex -9.57612 2.709 1.61732
      vertex 0 2.709 0
    endloop
  endfacet
  facet normal 0 1 0
    outer loop
      vertex -9.57612 2.709 1.61732
      vertex -10 2.709 0
      vertex -9.79289 2.709 1.29289
    endloop
  endfacet
  facet normal 0 1 0
    outer loop
      vertex -9.79289 2.709 1.29289
      vertex -10 2.709 0
      vertex -10 2.709 1.15451
    endloop
  endfacet
  facet normal 0 0 -1
    outer loop
      vertex -10 0 0
      vertex 0 2.709 0
      vertex 0 0 0
    endloop
  endfacet
  facet normal -0 0 -1
    outer loop
      vertex 0 2.709 0
      vertex -10 0 0
      vertex -10 2.709 0
    endloop
  endfacet
  facet normal 0 -1 0
    outer loop
      vertex -9.79289 0 2.70711
      vertex -10 0 7
      vertex -10 0 2.84549
    endloop
  endfacet
  facet normal 0 -1 0
    outer loop
      vertex -9.57612 0 2.38268
      vertex -10 0 7
      vertex -9.79289 0 2.70711
    endloop
  endfacet
  facet normal 0 -1 0
    outer loop
      vertex -10 0 7
      vertex -9.57612 0 2.38268
      vertex 0 0 7
    endloop
  endfacet
  facet normal 0 -1 0
    outer loop
      vertex 0 0 0
      vertex -9.57612 0 2.38268
      vertex -9.5 0 2
    endloop
  endfacet
  facet normal 0 -1 0
    outer loop
      vertex 0 0 0
      vertex -9.5 0 2
      vertex -9.57612 0 1.61732
    endloop
  endfacet
  facet normal 0 -1 0
    outer loop
      vertex -10 0 0
      vertex -9.57612 0 1.61732
      vertex -9.79289 0 1.29289
    endloop
  endfacet
  facet normal 0 -1 0
    outer loop
      vertex -10 0 0
      vertex -9.79289 0 1.29289
      vertex -10 0 1.15451
    endloop
  endfacet
  facet normal 0 -1 -0
    outer loop
      vertex -9.57612 0 1.61732
      vertex -10 0 0
      vertex 0 0 0
    endloop
  endfacet
  facet normal 0 -1 0
    outer loop
      vertex -9.57612 0 2.38268
      vertex 0 0 0
      vertex 0 0 7
    endloop
  endfacet
  facet normal -0.831478 0 -0.555557
    outer loop
      vertex -9.57612 0 2.38268
      vertex -9.79289 2.709 2.70711
      vertex -9.57612 2.709 2.38268
    endloop
  endfacet
  facet normal -0.831478 -0 -0.555557
    outer loop
      vertex -9.79289 2.709 2.70711
      vertex -9.57612 0 2.38268
      vertex -9.79289 0 2.70711
    endloop
  endfacet
  facet normal -0.555552 0 -0.831482
    outer loop
      vertex -10 0 2.84549
      vertex -9.79289 2.709 2.70711
      vertex -9.79289 0 2.70711
    endloop
  endfacet
  facet normal -0.555552 0 -0.831482
    outer loop
      vertex -9.79289 2.709 2.70711
      vertex -10 0 2.84549
      vertex -10 2.709 2.84549
    endloop
  endfacet
  facet normal -0.831478 0 0.555557
    outer loop
      vertex -9.79289 0 1.29289
      vertex -9.57612 2.709 1.61732
      vertex -9.79289 2.709 1.29289
    endloop
  endfacet
  facet normal -0.831478 0 0.555557
    outer loop
      vertex -9.57612 2.709 1.61732
      vertex -9.79289 0 1.29289
      vertex -9.57612 0 1.61732
    endloop
  endfacet
  facet normal -0.980785 0 -0.195091
    outer loop
      vertex -9.5 0 2
      vertex -9.57612 2.709 2.38268
      vertex -9.5 2.709 2
    endloop
  endfacet
  facet normal -0.980785 -0 -0.195091
    outer loop
      vertex -9.57612 2.709 2.38268
      vertex -9.5 0 2
      vertex -9.57612 0 2.38268
    endloop
  endfacet
  facet normal -0.980785 0 0.195091
    outer loop
      vertex -9.57612 0 1.61732
      vertex -9.5 2.709 2
      vertex -9.57612 2.709 1.61732
    endloop
  endfacet
  facet normal -0.980785 0 0.195091
    outer loop
      vertex -9.5 2.709 2
      vertex -9.57612 0 1.61732
      vertex -9.5 0 2
    endloop
  endfacet
  facet normal -0.555552 0 0.831482
    outer loop
      vertex -10 2.709 1.15451
      vertex -9.79289 0 1.29289
      vertex -9.79289 2.709 1.29289
    endloop
  endfacet
  facet normal -0.555552 0 0.831482
    outer loop
      vertex -9.79289 0 1.29289
      vertex -10 2.709 1.15451
      vertex -10 0 1.15451
    endloop
  endfacet
  facet normal 0 0 1
    outer loop
      vertex -0.383011 1.883 7.499
      vertex -0.391922 1.75862 7.499
      vertex -0.364014 1.844 7.499
    endloop
  endfacet
  facet normal 0 0 1
    outer loop
      vertex -0.383011 1.883 7.499
      vertex -0.420258 1.66941 7.499
      vertex -0.391922 1.75862 7.499
    endloop
  endfacet
  facet normal 0 0 1
    outer loop
      vertex -1.31964 1.05881 7.499
      vertex -0.420258 1.66941 7.499
      vertex -0.383011 1.883 7.499
    endloop
  endfacet
  facet normal 0 -0 1
    outer loop
      vertex -1.28056 1.05477 7.499
      vertex -0.420258 1.66941 7.499
      vertex -1.31964 1.05881 7.499
    endloop
  endfacet
  facet normal 0 -0 1
    outer loop
      vertex -1.24368 1.04982 7.499
      vertex -0.44899 1.5763 7.499
      vertex -1.28056 1.05477 7.499
    endloop
  endfacet
  facet normal 0 -0 1
    outer loop
      vertex -1.20901 1.04399 7.499
      vertex -0.478134 1.47934 7.499
      vertex -1.24368 1.04982 7.499
    endloop
  endfacet
  facet normal 0 0 1
    outer loop
      vertex -0.478134 1.47934 7.499
      vertex -1.17654 1.03726 7.499
      vertex -0.507675 1.37851 7.499
    endloop
  endfacet
  facet normal 0 0 1
    outer loop
      vertex -0.507675 1.37851 7.499
      vertex -1.11821 1.02109 7.499
      vertex -0.537643 1.27381 7.499
    endloop
  endfacet
  facet normal 0 0 1
    outer loop
      vertex -0.537643 1.27381 7.499
      vertex -1.0687 1.00135 7.499
      vertex -0.568008 1.16524 7.499
    endloop
  endfacet
  facet normal 0 -0 1
    outer loop
      vertex -1.01051 0.964816 7.499
      vertex -0.568008 1.16524 7.499
      vertex -1.02802 0.978 7.499
    endloop
  endfacet
  facet normal -0 0 1
    outer loop
      vertex -0.901398 0.601886 7.499
      vertex -0.725967 0.564395 7.499
      vertex -0.901108 0.629291 7.499
    endloop
  endfacet
  facet normal -0 0 1
    outer loop
      vertex -0.901108 0.629291 7.499
      vertex -0.725967 0.564395 7.499
      vertex -0.901001 0.656985 7.499
    endloop
  endfacet
  facet normal 0 0 1
    outer loop
      vertex -0.693558 0.692309 7.499
      vertex -0.901001 0.656985 7.499
      vertex -0.725967 0.564395 7.499
    endloop
  endfacet
  facet normal -0 0 1
    outer loop
      vertex -0.906845 0.750522 7.499
      vertex -0.693558 0.692309 7.499
      vertex -0.66156 0.816333 7.499
    endloop
  endfacet
  facet normal 0 -0 1
    outer loop
      vertex -0.965805 0.916278 7.499
      vertex -0.598785 1.05281 7.499
      vertex -0.979416 0.933963 7.499
    endloop
  endfacet
  facet normal 0 0 1
    outer loop
      vertex -0.693558 0.692309 7.499
      vertex -0.901657 0.68967 7.499
      vertex -0.901001 0.656985 7.499
    endloop
  endfacet
  facet normal 0 0 1
    outer loop
      vertex -0.693558 0.692309 7.499
      vertex -0.903595 0.720843 7.499
      vertex -0.901657 0.68967 7.499
    endloop
  endfacet
  facet normal 0 0 1
    outer loop
      vertex -0.693558 0.692309 7.499
      vertex -0.906845 0.750522 7.499
      vertex -0.903595 0.720843 7.499
    endloop
  endfacet
  facet normal 0 0 1
    outer loop
      vertex -0.66156 0.816333 7.499
      vertex -0.911377 0.778705 7.499
      vertex -0.906845 0.750522 7.499
    endloop
  endfacet
  facet normal 0 0 1
    outer loop
      vertex -0.66156 0.816333 7.499
      vertex -0.917206 0.805392 7.499
      vertex -0.911377 0.778705 7.499
    endloop
  endfacet
  facet normal 0 0 1
    outer loop
      vertex -0.66156 0.816333 7.499
      vertex -0.924332 0.830569 7.499
      vertex -0.917206 0.805392 7.499
    endloop
  endfacet
  facet normal 0 0 1
    outer loop
      vertex -0.66156 0.816333 7.499
      vertex -0.932755 0.854236 7.499
      vertex -0.924332 0.830569 7.499
    endloop
  endfacet
  facet normal 0 0 1
    outer loop
      vertex -0.629974 0.936511 7.499
      vertex -0.932755 0.854236 7.499
      vertex -0.66156 0.816333 7.499
    endloop
  endfacet
  facet normal 0 -0 1
    outer loop
      vertex -0.932755 0.854236 7.499
      vertex -0.629974 0.936511 7.499
      vertex -0.942474 0.876422 7.499
    endloop
  endfacet
  facet normal 0 -0 1
    outer loop
      vertex -0.942474 0.876422 7.499
      vertex -0.629974 0.936511 7.499
      vertex -0.953491 0.897098 7.499
    endloop
  endfacet
  facet normal 0 -0 1
    outer loop
      vertex -0.953491 0.897098 7.499
      vertex -0.629974 0.936511 7.499
      vertex -0.965805 0.916278 7.499
    endloop
  endfacet
  facet normal 0 0 1
    outer loop
      vertex -0.598785 1.05281 7.499
      vertex -0.965805 0.916278 7.499
      vertex -0.629974 0.936511 7.499
    endloop
  endfacet
  facet normal 0 -0 1
    outer loop
      vertex -0.979416 0.933963 7.499
      vertex -0.598785 1.05281 7.499
      vertex -0.994308 0.950137 7.499
    endloop
  endfacet
  facet normal 0 -0 1
    outer loop
      vertex -0.994308 0.950137 7.499
      vertex -0.598785 1.05281 7.499
      vertex -1.01051 0.964816 7.499
    endloop
  endfacet
  facet normal 0 0 1
    outer loop
      vertex -0.568008 1.16524 7.499
      vertex -1.01051 0.964816 7.499
      vertex -0.598785 1.05281 7.499
    endloop
  endfacet
  facet normal 0 -0 1
    outer loop
      vertex -1.02802 0.978 7.499
      vertex -0.568008 1.16524 7.499
      vertex -1.04726 0.990115 7.499
    endloop
  endfacet
  facet normal 0 -0 1
    outer loop
      vertex -1.04726 0.990115 7.499
      vertex -0.568008 1.16524 7.499
      vertex -1.0687 1.00135 7.499
    endloop
  endfacet
  facet normal 0 -0 1
    outer loop
      vertex -1.0687 1.00135 7.499
      vertex -0.537643 1.27381 7.499
      vertex -1.09236 1.01166 7.499
    endloop
  endfacet
  facet normal 0 -0 1
    outer loop
      vertex -1.09236 1.01166 7.499
      vertex -0.537643 1.27381 7.499
      vertex -1.11821 1.02109 7.499
    endloop
  endfacet
  facet normal 0 -0 1
    outer loop
      vertex -1.11821 1.02109 7.499
      vertex -0.507675 1.37851 7.499
      vertex -1.14627 1.02962 7.499
    endloop
  endfacet
  facet normal 0 -0 1
    outer loop
      vertex -1.14627 1.02962 7.499
      vertex -0.507675 1.37851 7.499
      vertex -1.17654 1.03726 7.499
    endloop
  endfacet
  facet normal 0 -0 1
    outer loop
      vertex -1.17654 1.03726 7.499
      vertex -0.478134 1.47934 7.499
      vertex -1.20901 1.04399 7.499
    endloop
  endfacet
  facet normal 0 0 1
    outer loop
      vertex -0.44899 1.5763 7.499
      vertex -1.24368 1.04982 7.499
      vertex -0.478134 1.47934 7.499
    endloop
  endfacet
  facet normal 0 0 1
    outer loop
      vertex -0.420258 1.66941 7.499
      vertex -1.28056 1.05477 7.499
      vertex -0.44899 1.5763 7.499
    endloop
  endfacet
  facet normal 0 0 1
    outer loop
      vertex -0.383011 1.883 7.499
      vertex -1.36093 1.06195 7.499
      vertex -1.31964 1.05881 7.499
    endloop
  endfacet
  facet normal 0 0 1
    outer loop
      vertex -0.383011 1.883 7.499
      vertex -1.40442 1.0642 7.499
      vertex -1.36093 1.06195 7.499
    endloop
  endfacet
  facet normal 0 0 1
    outer loop
      vertex -0.383011 1.883 7.499
      vertex -1.4501 1.06554 7.499
      vertex -1.40442 1.0642 7.499
    endloop
  endfacet
  facet normal 0 0 1
    outer loop
      vertex -0.383011 1.883 7.499
      vertex -1.498 1.066 7.499
      vertex -1.4501 1.06554 7.499
    endloop
  endfacet
  facet normal -0 0 1
    outer loop
      vertex -6.20001 1.883 7.499
      vertex -1.498 1.066 7.499
      vertex -0.383011 1.883 7.499
    endloop
  endfacet
  facet normal 0 0 1
    outer loop
      vertex -1.498 1.066 7.499
      vertex -6.20001 1.883 7.499
      vertex -6.16701 1.066 7.499
    endloop
  endfacet
  facet normal 0 0 1
    outer loop
      vertex -6.20001 1.883 7.499
      vertex -6.22171 1.06525 7.499
      vertex -6.16701 1.066 7.499
    endloop
  endfacet
  facet normal 0 0 1
    outer loop
      vertex -6.2556 1.88365 7.499
      vertex -6.22171 1.06525 7.499
      vertex -6.20001 1.883 7.499
    endloop
  endfacet
  facet normal 0 0 1
    outer loop
      vertex -6.2556 1.88365 7.499
      vertex -6.2738 1.06301 7.499
      vertex -6.22171 1.06525 7.499
    endloop
  endfacet
  facet normal 0 0 1
    outer loop
      vertex -6.30835 1.88567 7.499
      vertex -6.2738 1.06301 7.499
      vertex -6.2556 1.88365 7.499
    endloop
  endfacet
  facet normal 0 0 1
    outer loop
      vertex -6.30835 1.88567 7.499
      vertex -6.3233 1.05928 7.499
      vertex -6.2738 1.06301 7.499
    endloop
  endfacet
  facet normal 0 0 1
    outer loop
      vertex -6.35829 1.88901 7.499
      vertex -6.3233 1.05928 7.499
      vertex -6.30835 1.88567 7.499
    endloop
  endfacet
  facet normal 0 0 1
    outer loop
      vertex -6.35829 1.88901 7.499
      vertex -6.37019 1.05408 7.499
      vertex -6.3233 1.05928 7.499
    endloop
  endfacet
  facet normal 0 0 1
    outer loop
      vertex -6.4054 1.89368 7.499
      vertex -6.37019 1.05408 7.499
      vertex -6.35829 1.88901 7.499
    endloop
  endfacet
  facet normal 0 0 1
    outer loop
      vertex -6.4054 1.89368 7.499
      vertex -6.41449 1.04737 7.499
      vertex -6.37019 1.05408 7.499
    endloop
  endfacet
  facet normal 0 0 1
    outer loop
      vertex -6.44968 1.89971 7.499
      vertex -6.41449 1.04737 7.499
      vertex -6.4054 1.89368 7.499
    endloop
  endfacet
  facet normal 0 0 1
    outer loop
      vertex -6.44968 1.89971 7.499
      vertex -6.45618 1.03917 7.499
      vertex -6.41449 1.04737 7.499
    endloop
  endfacet
  facet normal 0 0 1
    outer loop
      vertex -6.49113 1.90705 7.499
      vertex -6.45618 1.03917 7.499
      vertex -6.44968 1.89971 7.499
    endloop
  endfacet
  facet normal 0 0 1
    outer loop
      vertex -6.49113 1.90705 7.499
      vertex -6.49525 1.0295 7.499
      vertex -6.45618 1.03917 7.499
    endloop
  endfacet
  facet normal 0 0 1
    outer loop
      vertex -6.52975 1.91574 7.499
      vertex -6.49525 1.0295 7.499
      vertex -6.49113 1.90705 7.499
    endloop
  endfacet
  facet normal 0 0 1
    outer loop
      vertex -6.52975 1.91574 7.499
      vertex -6.53174 1.01831 7.499
      vertex -6.49525 1.0295 7.499
    endloop
  endfacet
  facet normal 0 0 1
    outer loop
      vertex -6.56555 1.92577 7.499
      vertex -6.53174 1.01831 7.499
      vertex -6.52975 1.91574 7.499
    endloop
  endfacet
  facet normal 0 0 1
    outer loop
      vertex -6.56555 1.92577 7.499
      vertex -6.56563 1.00565 7.499
      vertex -6.53174 1.01831 7.499
    endloop
  endfacet
  facet normal 0 0 1
    outer loop
      vertex -6.59853 1.93714 7.499
      vertex -6.56563 1.00565 7.499
      vertex -6.56555 1.92577 7.499
    endloop
  endfacet
  facet normal 0 0 1
    outer loop
      vertex -6.56563 1.00565 7.499
      vertex -6.59853 1.93714 7.499
      vertex -6.59691 0.991504 7.499
    endloop
  endfacet
  facet normal 0 0 1
    outer loop
      vertex -6.62868 1.94983 7.499
      vertex -6.59691 0.991504 7.499
      vertex -6.59853 1.93714 7.499
    endloop
  endfacet
  facet normal 0 0 1
    outer loop
      vertex -6.59691 0.991504 7.499
      vertex -6.62868 1.94983 7.499
      vertex -6.62558 0.975863 7.499
    endloop
  endfacet
  facet normal 0 0 1
    outer loop
      vertex -6.65601 1.96387 7.499
      vertex -6.62558 0.975863 7.499
      vertex -6.62868 1.94983 7.499
    endloop
  endfacet
  facet normal 0 0 1
    outer loop
      vertex -6.62558 0.975863 7.499
      vertex -6.65601 1.96387 7.499
      vertex -6.65166 0.958728 7.499
    endloop
  endfacet
  facet normal 0 0 1
    outer loop
      vertex -6.6805 1.97924 7.499
      vertex -6.65166 0.958728 7.499
      vertex -6.65601 1.96387 7.499
    endloop
  endfacet
  facet normal 0 0 1
    outer loop
      vertex -6.65166 0.958728 7.499
      vertex -6.6805 1.97924 7.499
      vertex -6.67514 0.940097 7.499
    endloop
  endfacet
  facet normal 0 0 1
    outer loop
      vertex -6.70216 1.99594 7.499
      vertex -6.67514 0.940097 7.499
      vertex -6.6805 1.97924 7.499
    endloop
  endfacet
  facet normal 0 0 1
    outer loop
      vertex -6.67514 0.940097 7.499
      vertex -6.70216 1.99594 7.499
      vertex -6.69601 0.919986 7.499
    endloop
  endfacet
  facet normal 0 0 1
    outer loop
      vertex -6.72101 2.014 7.499
      vertex -6.69601 0.919986 7.499
      vertex -6.70216 1.99594 7.499
    endloop
  endfacet
  facet normal 0 0 1
    outer loop
      vertex -6.69601 0.919986 7.499
      vertex -6.72101 2.014 7.499
      vertex -6.71507 0.897555 7.499
    endloop
  endfacet
  facet normal 0 0 1
    outer loop
      vertex -6.73796 2.03456 7.499
      vertex -6.71507 0.897555 7.499
      vertex -6.72101 2.014 7.499
    endloop
  endfacet
  facet normal 0 0 1
    outer loop
      vertex -6.71507 0.897555 7.499
      vertex -6.73796 2.03456 7.499
      vertex -6.73315 0.871936 7.499
    endloop
  endfacet
  facet normal 0 0 1
    outer loop
      vertex -6.75397 2.05854 7.499
      vertex -6.73315 0.871936 7.499
      vertex -6.73796 2.03456 7.499
    endloop
  endfacet
  facet normal 0 0 1
    outer loop
      vertex -6.73315 0.871936 7.499
      vertex -6.75397 2.05854 7.499
      vertex -6.75023 0.843143 7.499
    endloop
  endfacet
  facet normal 0 0 1
    outer loop
      vertex -6.76903 2.08594 7.499
      vertex -6.75023 0.843143 7.499
      vertex -6.75397 2.05854 7.499
    endloop
  endfacet
  facet normal 0 0 1
    outer loop
      vertex -6.75023 0.843143 7.499
      vertex -6.76903 2.08594 7.499
      vertex -6.7663 0.811175 7.499
    endloop
  endfacet
  facet normal 0 0 1
    outer loop
      vertex -6.78313 2.11676 7.499
      vertex -6.7663 0.811175 7.499
      vertex -6.76903 2.08594 7.499
    endloop
  endfacet
  facet normal 0 0 1
    outer loop
      vertex -6.7663 0.811175 7.499
      vertex -6.78313 2.11676 7.499
      vertex -6.78137 0.776034 7.499
    endloop
  endfacet
  facet normal 0 0 1
    outer loop
      vertex -6.7963 2.151 7.499
      vertex -6.78137 0.776034 7.499
      vertex -6.78313 2.11676 7.499
    endloop
  endfacet
  facet normal 0 0 1
    outer loop
      vertex -6.78137 0.776034 7.499
      vertex -6.7963 2.151 7.499
      vertex -6.79544 0.73772 7.499
    endloop
  endfacet
  facet normal 0 0 1
    outer loop
      vertex -7 0.316989 7.499
      vertex -6.7963 2.151 7.499
      vertex -6.8085 2.18866 7.499
    endloop
  endfacet
  facet normal 0 0 1
    outer loop
      vertex -6.7963 2.151 7.499
      vertex -7 0.316989 7.499
      vertex -6.79544 0.73772 7.499
    endloop
  endfacet
  facet normal 0 0 1
    outer loop
      vertex -7 2.61299 7.499
      vertex -6.8085 2.18866 7.499
      vertex -6.81976 2.22974 7.499
    endloop
  endfacet
  facet normal 0 0 1
    outer loop
      vertex -6.79544 0.73772 7.499
      vertex -7 0.316989 7.499
      vertex -6.8085 0.696246 7.499
    endloop
  endfacet
  facet normal 0 0 1
    outer loop
      vertex -7 2.61299 7.499
      vertex -6.81976 2.22974 7.499
      vertex -6.83006 2.27423 7.499
    endloop
  endfacet
  facet normal 0 0 1
    outer loop
      vertex -6.8085 0.696246 7.499
      vertex -7 0.316989 7.499
      vertex -6.82057 0.651584 7.499
    endloop
  endfacet
  facet normal 0 0 1
    outer loop
      vertex -7 2.61299 7.499
      vertex -6.83006 2.27423 7.499
      vertex -6.83943 2.32215 7.499
    endloop
  endfacet
  facet normal 0 0 1
    outer loop
      vertex -6.82057 0.651584 7.499
      vertex -7 0.316989 7.499
      vertex -6.83165 0.603747 7.499
    endloop
  endfacet
  facet normal 0 0 1
    outer loop
      vertex -7 2.61299 7.499
      vertex -6.83943 2.32215 7.499
      vertex -6.84784 2.37348 7.499
    endloop
  endfacet
  facet normal 0 0 1
    outer loop
      vertex -6.83165 0.603747 7.499
      vertex -7 0.316989 7.499
      vertex -6.84172 0.552752 7.499
    endloop
  endfacet
  facet normal 0 0 1
    outer loop
      vertex -7 2.61299 7.499
      vertex -6.84784 2.37348 7.499
      vertex -6.85532 2.42823 7.499
    endloop
  endfacet
  facet normal 0 0 1
    outer loop
      vertex -6.84172 0.552752 7.499
      vertex -7 0.316989 7.499
      vertex -6.8508 0.498569 7.499
    endloop
  endfacet
  facet normal 0 0 1
    outer loop
      vertex -7 2.61299 7.499
      vertex -6.85532 2.42823 7.499
      vertex -6.86182 2.48641 7.499
    endloop
  endfacet
  facet normal 0 0 1
    outer loop
      vertex -6.8508 0.498569 7.499
      vertex -7 0.316989 7.499
      vertex -6.85887 0.441211 7.499
    endloop
  endfacet
  facet normal 0 0 1
    outer loop
      vertex -7 2.61299 7.499
      vertex -6.86182 2.48641 7.499
      vertex -6.86739 2.54799 7.499
    endloop
  endfacet
  facet normal -0 0 1
    outer loop
      vertex -7 2.61299 7.499
      vertex -6.86739 2.54799 7.499
      vertex -6.87201 2.61299 7.499
    endloop
  endfacet
  facet normal 0 0 1
    outer loop
      vertex -6.8085 2.18866 7.499
      vertex -7 2.61299 7.499
      vertex -7 0.316989 7.499
    endloop
  endfacet
  facet normal 0 0 1
    outer loop
      vertex -6.85887 0.441211 7.499
      vertex -7 0.316989 7.499
      vertex -6.86594 0.380694 7.499
    endloop
  endfacet
  facet normal 0 0 1
    outer loop
      vertex -6.86594 0.380694 7.499
      vertex -7 0.316989 7.499
      vertex -6.87201 0.316989 7.499
    endloop
  endfacet
  facet normal -0 0 1
    outer loop
      vertex -0.901886 0.574801 7.499
      vertex -0.725967 0.564395 7.499
      vertex -0.901398 0.601886 7.499
    endloop
  endfacet
  facet normal 0 0 1
    outer loop
      vertex -0.902557 0.548007 7.499
      vertex -0.725967 0.564395 7.499
      vertex -0.901886 0.574801 7.499
    endloop
  endfacet
  facet normal 0 0 1
    outer loop
      vertex -0.903427 0.521533 7.499
      vertex -0.725967 0.564395 7.499
      vertex -0.902557 0.548007 7.499
    endloop
  endfacet
  facet normal 0 0 1
    outer loop
      vertex -0.725967 0.564395 7.499
      vertex -0.903427 0.521533 7.499
      vertex -0.758789 0.432635 7.499
    endloop
  endfacet
  facet normal -0 0 1
    outer loop
      vertex -0.904495 0.495364 7.499
      vertex -0.758789 0.432635 7.499
      vertex -0.903427 0.521533 7.499
    endloop
  endfacet
  facet normal -0 0 1
    outer loop
      vertex -0.905762 0.469485 7.499
      vertex -0.758789 0.432635 7.499
      vertex -0.904495 0.495364 7.499
    endloop
  endfacet
  facet normal -0 0 1
    outer loop
      vertex -0.907211 0.443927 7.499
      vertex -0.758789 0.432635 7.499
      vertex -0.905762 0.469485 7.499
    endloop
  endfacet
  facet normal 0 0 1
    outer loop
      vertex -0.908859 0.418674 7.499
      vertex -0.758789 0.432635 7.499
      vertex -0.907211 0.443927 7.499
    endloop
  endfacet
  facet normal 0 0 1
    outer loop
      vertex -0.910706 0.393725 7.499
      vertex -0.758789 0.432635 7.499
      vertex -0.908859 0.418674 7.499
    endloop
  endfacet
  facet normal 0 0 1
    outer loop
      vertex -0.758789 0.432635 7.499
      vertex -0.910706 0.393725 7.499
      vertex -0.792007 0.296985 7.499
    endloop
  endfacet
  facet normal -0 0 1
    outer loop
      vertex -0.912735 0.369082 7.499
      vertex -0.792007 0.296985 7.499
      vertex -0.910706 0.393725 7.499
    endloop
  endfacet
  facet normal -0 0 1
    outer loop
      vertex -0.914963 0.344745 7.499
      vertex -0.792007 0.296985 7.499
      vertex -0.912735 0.369082 7.499
    endloop
  endfacet
  facet normal -0 0 1
    outer loop
      vertex -0.917389 0.320712 7.499
      vertex -0.792007 0.296985 7.499
      vertex -0.914963 0.344745 7.499
    endloop
  endfacet
  facet normal 0 0 1
    outer loop
      vertex -0.792007 0.296985 7.499
      vertex -0.917389 0.320712 7.499
      vertex -0.920013 0.296985 7.499
    endloop
  endfacet
  facet normal 0.997484 0.0708981 0
    outer loop
      vertex -6.86739 2.54799 7.499
      vertex -6.87201 2.61299 7
      vertex -6.87201 2.61299 7.499
    endloop
  endfacet
  facet normal 0.997484 0.0708981 0
    outer loop
      vertex -6.87201 2.61299 7
      vertex -6.86739 2.54799 7.499
      vertex -6.86739 2.54799 7
    endloop
  endfacet
  facet normal 0.995934 0.0900837 0
    outer loop
      vertex -6.86182 2.48641 7.499
      vertex -6.86739 2.54799 7
      vertex -6.86739 2.54799 7.499
    endloop
  endfacet
  facet normal 0.995934 0.0900837 0
    outer loop
      vertex -6.86739 2.54799 7
      vertex -6.86182 2.48641 7.499
      vertex -6.86182 2.48641 7
    endloop
  endfacet
  facet normal 0.993817 0.111031 0
    outer loop
      vertex -6.85532 2.42823 7.499
      vertex -6.86182 2.48641 7
      vertex -6.86182 2.48641 7.499
    endloop
  endfacet
  facet normal 0.993817 0.111031 0
    outer loop
      vertex -6.86182 2.48641 7
      vertex -6.85532 2.42823 7.499
      vertex -6.85532 2.42823 7
    endloop
  endfacet
  facet normal 0.990796 0.135364 0
    outer loop
      vertex -6.84784 2.37348 7.499
      vertex -6.85532 2.42823 7
      vertex -6.85532 2.42823 7.499
    endloop
  endfacet
  facet normal 0.990796 0.135364 0
    outer loop
      vertex -6.85532 2.42823 7
      vertex -6.84784 2.37348 7.499
      vertex -6.84784 2.37348 7
    endloop
  endfacet
  facet normal 0.986842 0.161686 0
    outer loop
      vertex -6.83943 2.32215 7.499
      vertex -6.84784 2.37348 7
      vertex -6.84784 2.37348 7.499
    endloop
  endfacet
  facet normal 0.986842 0.161686 0
    outer loop
      vertex -6.84784 2.37348 7
      vertex -6.83943 2.32215 7.499
      vertex -6.83943 2.32215 7
    endloop
  endfacet
  facet normal 0.981414 0.1919 0
    outer loop
      vertex -6.83006 2.27423 7.499
      vertex -6.83943 2.32215 7
      vertex -6.83943 2.32215 7.499
    endloop
  endfacet
  facet normal 0.981414 0.1919 0
    outer loop
      vertex -6.83943 2.32215 7
      vertex -6.83006 2.27423 7.499
      vertex -6.83006 2.27423 7
    endloop
  endfacet
  facet normal 0.974232 0.225547 0
    outer loop
      vertex -6.81976 2.22974 7.499
      vertex -6.83006 2.27423 7
      vertex -6.83006 2.27423 7.499
    endloop
  endfacet
  facet normal 0.974232 0.225547 0
    outer loop
      vertex -6.83006 2.27423 7
      vertex -6.81976 2.22974 7.499
      vertex -6.81976 2.22974 7
    endloop
  endfacet
  facet normal 0.964427 0.264349 0
    outer loop
      vertex -6.8085 2.18866 7.499
      vertex -6.81976 2.22974 7
      vertex -6.81976 2.22974 7.499
    endloop
  endfacet
  facet normal 0.964427 0.264349 0
    outer loop
      vertex -6.81976 2.22974 7
      vertex -6.8085 2.18866 7.499
      vertex -6.8085 2.18866 7
    endloop
  endfacet
  facet normal 0.951327 0.308183 0
    outer loop
      vertex -6.7963 2.151 7.499
      vertex -6.8085 2.18866 7
      vertex -6.8085 2.18866 7.499
    endloop
  endfacet
  facet normal 0.951327 0.308183 0
    outer loop
      vertex -6.8085 2.18866 7
      vertex -6.7963 2.151 7.499
      vertex -6.7963 2.151 7
    endloop
  endfacet
  facet normal 0.933339 0.358997 0
    outer loop
      vertex -6.78313 2.11676 7.499
      vertex -6.7963 2.151 7
      vertex -6.7963 2.151 7.499
    endloop
  endfacet
  facet normal 0.933339 0.358997 0
    outer loop
      vertex -6.7963 2.151 7
      vertex -6.78313 2.11676 7.499
      vertex -6.78313 2.11676 7
    endloop
  endfacet
  facet normal 0.909353 0.416025 0
    outer loop
      vertex -6.76903 2.08594 7.499
      vertex -6.78313 2.11676 7
      vertex -6.78313 2.11676 7.499
    endloop
  endfacet
  facet normal 0.909353 0.416025 0
    outer loop
      vertex -6.78313 2.11676 7
      vertex -6.76903 2.08594 7.499
      vertex -6.76903 2.08594 7
    endloop
  endfacet
  facet normal 0.876351 0.481673 0
    outer loop
      vertex -6.75397 2.05854 7.499
      vertex -6.76903 2.08594 7
      vertex -6.76903 2.08594 7.499
    endloop
  endfacet
  facet normal 0.876351 0.481673 0
    outer loop
      vertex -6.76903 2.08594 7
      vertex -6.75397 2.05854 7.499
      vertex -6.75397 2.05854 7
    endloop
  endfacet
  facet normal 0.831677 0.55526 0
    outer loop
      vertex -6.73796 2.03456 7.499
      vertex -6.75397 2.05854 7
      vertex -6.75397 2.05854 7.499
    endloop
  endfacet
  facet normal 0.831677 0.55526 0
    outer loop
      vertex -6.75397 2.05854 7
      vertex -6.73796 2.03456 7.499
      vertex -6.73796 2.03456 7
    endloop
  endfacet
  facet normal 0.771594 0.636115 0
    outer loop
      vertex -6.72101 2.014 7.499
      vertex -6.73796 2.03456 7
      vertex -6.73796 2.03456 7.499
    endloop
  endfacet
  facet normal 0.771594 0.636115 0
    outer loop
      vertex -6.73796 2.03456 7
      vertex -6.72101 2.014 7.499
      vertex -6.72101 2.014 7
    endloop
  endfacet
  facet normal 0.691814 0.722076 -0
    outer loop
      vertex -6.70216 1.99594 7
      vertex -6.72101 2.014 7.499
      vertex -6.70216 1.99594 7.499
    endloop
  endfacet
  facet normal 0.691814 0.722076 0
    outer loop
      vertex -6.72101 2.014 7.499
      vertex -6.70216 1.99594 7
      vertex -6.72101 2.014 7
    endloop
  endfacet
  facet normal 0.610594 0.791944 -0
    outer loop
      vertex -6.6805 1.97924 7
      vertex -6.70216 1.99594 7.499
      vertex -6.6805 1.97924 7.499
    endloop
  endfacet
  facet normal 0.610594 0.791944 0
    outer loop
      vertex -6.70216 1.99594 7.499
      vertex -6.6805 1.97924 7
      vertex -6.70216 1.99594 7
    endloop
  endfacet
  facet normal 0.531584 0.847006 -0
    outer loop
      vertex -6.65601 1.96387 7
      vertex -6.6805 1.97924 7.499
      vertex -6.65601 1.96387 7.499
    endloop
  endfacet
  facet normal 0.531584 0.847006 0
    outer loop
      vertex -6.6805 1.97924 7.499
      vertex -6.65601 1.96387 7
      vertex -6.6805 1.97924 7
    endloop
  endfacet
  facet normal 0.456951 0.889492 -0
    outer loop
      vertex -6.62868 1.94983 7
      vertex -6.65601 1.96387 7.499
      vertex -6.62868 1.94983 7.499
    endloop
  endfacet
  facet normal 0.456951 0.889492 0
    outer loop
      vertex -6.65601 1.96387 7.499
      vertex -6.62868 1.94983 7
      vertex -6.65601 1.96387 7
    endloop
  endfacet
  facet normal 0.387934 0.921687 -0
    outer loop
      vertex -6.59853 1.93714 7
      vertex -6.62868 1.94983 7.499
      vertex -6.59853 1.93714 7.499
    endloop
  endfacet
  facet normal 0.387934 0.921687 0
    outer loop
      vertex -6.62868 1.94983 7.499
      vertex -6.59853 1.93714 7
      vertex -6.62868 1.94983 7
    endloop
  endfacet
  facet normal 0.325929 0.945394 -0
    outer loop
      vertex -6.56555 1.92577 7
      vertex -6.59853 1.93714 7.499
      vertex -6.56555 1.92577 7.499
    endloop
  endfacet
  facet normal 0.325929 0.945394 0
    outer loop
      vertex -6.59853 1.93714 7.499
      vertex -6.56555 1.92577 7
      vertex -6.59853 1.93714 7
    endloop
  endfacet
  facet normal 0.26978 0.962922 -0
    outer loop
      vertex -6.52975 1.91574 7
      vertex -6.56555 1.92577 7.499
      vertex -6.52975 1.91574 7.499
    endloop
  endfacet
  facet normal 0.26978 0.962922 0
    outer loop
      vertex -6.56555 1.92577 7.499
      vertex -6.52975 1.91574 7
      vertex -6.56555 1.92577 7
    endloop
  endfacet
  facet normal 0.219524 0.975607 -0
    outer loop
      vertex -6.49113 1.90705 7
      vertex -6.52975 1.91574 7.499
      vertex -6.49113 1.90705 7.499
    endloop
  endfacet
  facet normal 0.219524 0.975607 0
    outer loop
      vertex -6.52975 1.91574 7.499
      vertex -6.49113 1.90705 7
      vertex -6.52975 1.91574 7
    endloop
  endfacet
  facet normal 0.174368 0.984681 -0
    outer loop
      vertex -6.44968 1.89971 7
      vertex -6.49113 1.90705 7.499
      vertex -6.44968 1.89971 7.499
    endloop
  endfacet
  facet normal 0.174368 0.984681 0
    outer loop
      vertex -6.49113 1.90705 7.499
      vertex -6.44968 1.89971 7
      vertex -6.49113 1.90705 7
    endloop
  endfacet
  facet normal 0.134933 0.990855 -0
    outer loop
      vertex -6.4054 1.89368 7
      vertex -6.44968 1.89971 7.499
      vertex -6.4054 1.89368 7.499
    endloop
  endfacet
  facet normal 0.134933 0.990855 0
    outer loop
      vertex -6.44968 1.89971 7.499
      vertex -6.4054 1.89368 7
      vertex -6.44968 1.89971 7
    endloop
  endfacet
  facet normal 0.0986462 0.995123 -0
    outer loop
      vertex -6.35829 1.88901 7
      vertex -6.4054 1.89368 7.499
      vertex -6.35829 1.88901 7.499
    endloop
  endfacet
  facet normal 0.0986462 0.995123 0
    outer loop
      vertex -6.4054 1.89368 7.499
      vertex -6.35829 1.88901 7
      vertex -6.4054 1.89368 7
    endloop
  endfacet
  facet normal 0.0667312 0.997771 -0
    outer loop
      vertex -6.30835 1.88567 7
      vertex -6.35829 1.88901 7.499
      vertex -6.30835 1.88567 7.499
    endloop
  endfacet
  facet normal 0.0667312 0.997771 0
    outer loop
      vertex -6.35829 1.88901 7.499
      vertex -6.30835 1.88567 7
      vertex -6.35829 1.88901 7
    endloop
  endfacet
  facet normal 0.0382658 0.999268 -0
    outer loop
      vertex -6.2556 1.88365 7
      vertex -6.30835 1.88567 7.499
      vertex -6.2556 1.88365 7.499
    endloop
  endfacet
  facet normal 0.0382658 0.999268 0
    outer loop
      vertex -6.30835 1.88567 7.499
      vertex -6.2556 1.88365 7
      vertex -6.30835 1.88567 7
    endloop
  endfacet
  facet normal 0.011692 0.999932 -0
    outer loop
      vertex -6.20001 1.883 7
      vertex -6.2556 1.88365 7.499
      vertex -6.20001 1.883 7.499
    endloop
  endfacet
  facet normal 0.011692 0.999932 0
    outer loop
      vertex -6.2556 1.88365 7.499
      vertex -6.20001 1.883 7
      vertex -6.2556 1.88365 7
    endloop
  endfacet
  facet normal 0 1 -0
    outer loop
      vertex -0.383011 1.883 7
      vertex -6.20001 1.883 7.499
      vertex -0.383011 1.883 7.499
    endloop
  endfacet
  facet normal 0 1 0
    outer loop
      vertex -6.20001 1.883 7.499
      vertex -0.383011 1.883 7
      vertex -6.20001 1.883 7
    endloop
  endfacet
  facet normal 0.899017 0.437914 0
    outer loop
      vertex -0.364014 1.844 7.499
      vertex -0.383011 1.883 7
      vertex -0.383011 1.883 7.499
    endloop
  endfacet
  facet normal 0.899017 0.437914 0
    outer loop
      vertex -0.383011 1.883 7
      vertex -0.364014 1.844 7.499
      vertex -0.364014 1.844 7
    endloop
  endfacet
  facet normal 0.950511 -0.310692 0
    outer loop
      vertex -0.391922 1.75862 7.499
      vertex -0.364014 1.844 7
      vertex -0.364014 1.844 7.499
    endloop
  endfacet
  facet normal 0.950511 -0.310692 0
    outer loop
      vertex -0.364014 1.844 7
      vertex -0.391922 1.75862 7.499
      vertex -0.391922 1.75862 7
    endloop
  endfacet
  facet normal 0.953077 -0.302728 0
    outer loop
      vertex -0.420258 1.66941 7.499
      vertex -0.391922 1.75862 7
      vertex -0.391922 1.75862 7.499
    endloop
  endfacet
  facet normal 0.953077 -0.302728 0
    outer loop
      vertex -0.391922 1.75862 7
      vertex -0.420258 1.66941 7.499
      vertex -0.420258 1.66941 7
    endloop
  endfacet
  facet normal 0.95554 -0.294862 0
    outer loop
      vertex -0.44899 1.5763 7.499
      vertex -0.420258 1.66941 7
      vertex -0.420258 1.66941 7.499
    endloop
  endfacet
  facet normal 0.95554 -0.294862 0
    outer loop
      vertex -0.420258 1.66941 7
      vertex -0.44899 1.5763 7.499
      vertex -0.44899 1.5763 7
    endloop
  endfacet
  facet normal 0.957674 -0.287855 0
    outer loop
      vertex -0.478134 1.47934 7.499
      vertex -0.44899 1.5763 7
      vertex -0.44899 1.5763 7.499
    endloop
  endfacet
  facet normal 0.957674 -0.287855 0
    outer loop
      vertex -0.44899 1.5763 7
      vertex -0.478134 1.47934 7.499
      vertex -0.478134 1.47934 7
    endloop
  endfacet
  facet normal 0.959661 -0.28116 0
    outer loop
      vertex -0.507675 1.37851 7.499
      vertex -0.478134 1.47934 7
      vertex -0.478134 1.47934 7.499
    endloop
  endfacet
  facet normal 0.959661 -0.28116 0
    outer loop
      vertex -0.478134 1.47934 7
      vertex -0.507675 1.37851 7.499
      vertex -0.507675 1.37851 7
    endloop
  endfacet
  facet normal 0.961394 -0.275177 0
    outer loop
      vertex -0.537643 1.27381 7.499
      vertex -0.507675 1.37851 7
      vertex -0.507675 1.37851 7.499
    endloop
  endfacet
  facet normal 0.961394 -0.275177 0
    outer loop
      vertex -0.507675 1.37851 7
      vertex -0.537643 1.27381 7.499
      vertex -0.537643 1.27381 7
    endloop
  endfacet
  facet normal 0.963044 -0.269345 0
    outer loop
      vertex -0.568008 1.16524 7.499
      vertex -0.537643 1.27381 7
      vertex -0.537643 1.27381 7.499
    endloop
  endfacet
  facet normal 0.963044 -0.269345 0
    outer loop
      vertex -0.537643 1.27381 7
      vertex -0.568008 1.16524 7.499
      vertex -0.568008 1.16524 7
    endloop
  endfacet
  facet normal 0.964515 -0.26403 0
    outer loop
      vertex -0.598785 1.05281 7.499
      vertex -0.568008 1.16524 7
      vertex -0.568008 1.16524 7.499
    endloop
  endfacet
  facet normal 0.964515 -0.26403 0
    outer loop
      vertex -0.568008 1.16524 7
      vertex -0.598785 1.05281 7.499
      vertex -0.598785 1.05281 7
    endloop
  endfacet
  facet normal 0.96587 -0.259027 0
    outer loop
      vertex -0.629974 0.936511 7.499
      vertex -0.598785 1.05281 7
      vertex -0.598785 1.05281 7.499
    endloop
  endfacet
  facet normal 0.96587 -0.259027 0
    outer loop
      vertex -0.598785 1.05281 7
      vertex -0.629974 0.936511 7.499
      vertex -0.629974 0.936511 7
    endloop
  endfacet
  facet normal 0.967153 -0.254194 0
    outer loop
      vertex -0.66156 0.816333 7.499
      vertex -0.629974 0.936511 7
      vertex -0.629974 0.936511 7.499
    endloop
  endfacet
  facet normal 0.967153 -0.254194 0
    outer loop
      vertex -0.629974 0.936511 7
      vertex -0.66156 0.816333 7.499
      vertex -0.66156 0.816333 7
    endloop
  endfacet
  facet normal 0.968293 -0.249818 0
    outer loop
      vertex -0.693558 0.692309 7.499
      vertex -0.66156 0.816333 7
      vertex -0.66156 0.816333 7.499
    endloop
  endfacet
  facet normal 0.968293 -0.249818 0
    outer loop
      vertex -0.66156 0.816333 7
      vertex -0.693558 0.692309 7.499
      vertex -0.693558 0.692309 7
    endloop
  endfacet
  facet normal 0.96937 -0.245605 0
    outer loop
      vertex -0.725967 0.564395 7.499
      vertex -0.693558 0.692309 7
      vertex -0.693558 0.692309 7.499
    endloop
  endfacet
  facet normal 0.96937 -0.245605 0
    outer loop
      vertex -0.693558 0.692309 7
      vertex -0.725967 0.564395 7.499
      vertex -0.725967 0.564395 7
    endloop
  endfacet
  facet normal 0.970347 -0.241718 0
    outer loop
      vertex -0.758789 0.432635 7.499
      vertex -0.725967 0.564395 7
      vertex -0.725967 0.564395 7.499
    endloop
  endfacet
  facet normal 0.970347 -0.241718 0
    outer loop
      vertex -0.725967 0.564395 7
      vertex -0.758789 0.432635 7.499
      vertex -0.758789 0.432635 7
    endloop
  endfacet
  facet normal 0.971301 -0.237852 0
    outer loop
      vertex -0.792007 0.296985 7.499
      vertex -0.758789 0.432635 7
      vertex -0.758789 0.432635 7.499
    endloop
  endfacet
  facet normal 0.971301 -0.237852 0
    outer loop
      vertex -0.758789 0.432635 7
      vertex -0.792007 0.296985 7.499
      vertex -0.792007 0.296985 7
    endloop
  endfacet
  facet normal 0 -1 0
    outer loop
      vertex -0.920013 0.296985 7
      vertex -0.792007 0.296985 7.499
      vertex -0.920013 0.296985 7.499
    endloop
  endfacet
  facet normal 0 -1 -0
    outer loop
      vertex -0.792007 0.296985 7.499
      vertex -0.920013 0.296985 7
      vertex -0.792007 0.296985 7
    endloop
  endfacet
  facet normal -0.99394 0.109921 0
    outer loop
      vertex -0.920013 0.296985 7
      vertex -0.917389 0.320712 7.499
      vertex -0.917389 0.320712 7
    endloop
  endfacet
  facet normal -0.99394 0.109921 0
    outer loop
      vertex -0.917389 0.320712 7.499
      vertex -0.920013 0.296985 7
      vertex -0.920013 0.296985 7.499
    endloop
  endfacet
  facet normal -0.994944 0.100434 0
    outer loop
      vertex -0.917389 0.320712 7
      vertex -0.914963 0.344745 7.499
      vertex -0.914963 0.344745 7
    endloop
  endfacet
  facet normal -0.994944 0.100434 0
    outer loop
      vertex -0.914963 0.344745 7.499
      vertex -0.917389 0.320712 7
      vertex -0.917389 0.320712 7.499
    endloop
  endfacet
  facet normal -0.995836 0.0911666 0
    outer loop
      vertex -0.914963 0.344745 7
      vertex -0.912735 0.369082 7.499
      vertex -0.912735 0.369082 7
    endloop
  endfacet
  facet normal -0.995836 0.0911666 0
    outer loop
      vertex -0.912735 0.369082 7.499
      vertex -0.914963 0.344745 7
      vertex -0.914963 0.344745 7.499
    endloop
  endfacet
  facet normal -0.996628 0.0820581 0
    outer loop
      vertex -0.912735 0.369082 7
      vertex -0.910706 0.393725 7.499
      vertex -0.910706 0.393725 7
    endloop
  endfacet
  facet normal -0.996628 0.0820581 0
    outer loop
      vertex -0.910706 0.393725 7.499
      vertex -0.912735 0.369082 7
      vertex -0.912735 0.369082 7.499
    endloop
  endfacet
  facet normal -0.997271 0.073829 0
    outer loop
      vertex -0.910706 0.393725 7
      vertex -0.908859 0.418674 7.499
      vertex -0.908859 0.418674 7
    endloop
  endfacet
  facet normal -0.997271 0.073829 0
    outer loop
      vertex -0.908859 0.418674 7.499
      vertex -0.910706 0.393725 7
      vertex -0.910706 0.393725 7.499
    endloop
  endfacet
  facet normal -0.997877 0.0651211 0
    outer loop
      vertex -0.908859 0.418674 7
      vertex -0.907211 0.443927 7.499
      vertex -0.907211 0.443927 7
    endloop
  endfacet
  facet normal -0.997877 0.0651211 0
    outer loop
      vertex -0.907211 0.443927 7.499
      vertex -0.908859 0.418674 7
      vertex -0.908859 0.418674 7.499
    endloop
  endfacet
  facet normal -0.998397 0.0566037 0
    outer loop
      vertex -0.907211 0.443927 7
      vertex -0.905762 0.469485 7.499
      vertex -0.905762 0.469485 7
    endloop
  endfacet
  facet normal -0.998397 0.0566037 0
    outer loop
      vertex -0.905762 0.469485 7.499
      vertex -0.907211 0.443927 7
      vertex -0.907211 0.443927 7.499
    endloop
  endfacet
  facet normal -0.998804 0.0489 0
    outer loop
      vertex -0.905762 0.469485 7
      vertex -0.904495 0.495364 7.499
      vertex -0.904495 0.495364 7
    endloop
  endfacet
  facet normal -0.998804 0.0489 0
    outer loop
      vertex -0.904495 0.495364 7.499
      vertex -0.905762 0.469485 7
      vertex -0.905762 0.469485 7.499
    endloop
  endfacet
  facet normal -0.999168 0.0407777 0
    outer loop
      vertex -0.904495 0.495364 7
      vertex -0.903427 0.521533 7.499
      vertex -0.903427 0.521533 7
    endloop
  endfacet
  facet normal -0.999168 0.0407777 0
    outer loop
      vertex -0.903427 0.521533 7.499
      vertex -0.904495 0.495364 7
      vertex -0.904495 0.495364 7.499
    endloop
  endfacet
  facet normal -0.99946 0.0328447 0
    outer loop
      vertex -0.903427 0.521533 7
      vertex -0.902557 0.548007 7.499
      vertex -0.902557 0.548007 7
    endloop
  endfacet
  facet normal -0.99946 0.0328447 0
    outer loop
      vertex -0.902557 0.548007 7.499
      vertex -0.903427 0.521533 7
      vertex -0.903427 0.521533 7.499
    endloop
  endfacet
  facet normal -0.999687 0.0250351 0
    outer loop
      vertex -0.902557 0.548007 7
      vertex -0.901886 0.574801 7.499
      vertex -0.901886 0.574801 7
    endloop
  endfacet
  facet normal -0.999687 0.0250351 0
    outer loop
      vertex -0.901886 0.574801 7.499
      vertex -0.902557 0.548007 7
      vertex -0.902557 0.548007 7.499
    endloop
  endfacet
  facet normal -0.999838 0.0180144 0
    outer loop
      vertex -0.901886 0.574801 7
      vertex -0.901398 0.601886 7.499
      vertex -0.901398 0.601886 7
    endloop
  endfacet
  facet normal -0.999838 0.0180144 0
    outer loop
      vertex -0.901398 0.601886 7.499
      vertex -0.901886 0.574801 7
      vertex -0.901886 0.574801 7.499
    endloop
  endfacet
  facet normal -0.999944 0.0105814 0
    outer loop
      vertex -0.901398 0.601886 7
      vertex -0.901108 0.629291 7.499
      vertex -0.901108 0.629291 7
    endloop
  endfacet
  facet normal -0.999944 0.0105814 0
    outer loop
      vertex -0.901108 0.629291 7.499
      vertex -0.901398 0.601886 7
      vertex -0.901398 0.601886 7.499
    endloop
  endfacet
  facet normal -0.999993 0.00386362 0
    outer loop
      vertex -0.901108 0.629291 7
      vertex -0.901001 0.656985 7.499
      vertex -0.901001 0.656985 7
    endloop
  endfacet
  facet normal -0.999993 0.00386362 0
    outer loop
      vertex -0.901001 0.656985 7.499
      vertex -0.901108 0.629291 7
      vertex -0.901108 0.629291 7.499
    endloop
  endfacet
  facet normal -0.999799 -0.0200663 0
    outer loop
      vertex -0.901001 0.656985 7
      vertex -0.901657 0.68967 7.499
      vertex -0.901657 0.68967 7
    endloop
  endfacet
  facet normal -0.999799 -0.0200663 0
    outer loop
      vertex -0.901657 0.68967 7.499
      vertex -0.901001 0.656985 7
      vertex -0.901001 0.656985 7.499
    endloop
  endfacet
  facet normal -0.998073 -0.0620494 0
    outer loop
      vertex -0.901657 0.68967 7
      vertex -0.903595 0.720843 7.499
      vertex -0.903595 0.720843 7
    endloop
  endfacet
  facet normal -0.998073 -0.0620494 0
    outer loop
      vertex -0.903595 0.720843 7.499
      vertex -0.901657 0.68967 7
      vertex -0.901657 0.68967 7.499
    endloop
  endfacet
  facet normal -0.994058 -0.108854 0
    outer loop
      vertex -0.903595 0.720843 7
      vertex -0.906845 0.750522 7.499
      vertex -0.906845 0.750522 7
    endloop
  endfacet
  facet normal -0.994058 -0.108854 0
    outer loop
      vertex -0.906845 0.750522 7.499
      vertex -0.903595 0.720843 7
      vertex -0.903595 0.720843 7.499
    endloop
  endfacet
  facet normal -0.987316 -0.158767 0
    outer loop
      vertex -0.906845 0.750522 7
      vertex -0.911377 0.778705 7.499
      vertex -0.911377 0.778705 7
    endloop
  endfacet
  facet normal -0.987316 -0.158767 0
    outer loop
      vertex -0.911377 0.778705 7.499
      vertex -0.906845 0.750522 7
      vertex -0.906845 0.750522 7.499
    endloop
  endfacet
  facet normal -0.976967 -0.21339 0
    outer loop
      vertex -0.911377 0.778705 7
      vertex -0.917206 0.805392 7.499
      vertex -0.917206 0.805392 7
    endloop
  endfacet
  facet normal -0.976967 -0.21339 0
    outer loop
      vertex -0.917206 0.805392 7.499
      vertex -0.911377 0.778705 7
      vertex -0.911377 0.778705 7.499
    endloop
  endfacet
  facet normal -0.962202 -0.272338 0
    outer loop
      vertex -0.917206 0.805392 7
      vertex -0.924332 0.830569 7.499
      vertex -0.924332 0.830569 7
    endloop
  endfacet
  facet normal -0.962202 -0.272338 0
    outer loop
      vertex -0.924332 0.830569 7.499
      vertex -0.917206 0.805392 7
      vertex -0.917206 0.805392 7.499
    endloop
  endfacet
  facet normal -0.942113 -0.335295 0
    outer loop
      vertex -0.924332 0.830569 7
      vertex -0.932755 0.854236 7.499
      vertex -0.932755 0.854236 7
    endloop
  endfacet
  facet normal -0.942113 -0.335295 0
    outer loop
      vertex -0.932755 0.854236 7.499
      vertex -0.924332 0.830569 7
      vertex -0.924332 0.830569 7.499
    endloop
  endfacet
  facet normal -0.915966 -0.401256 0
    outer loop
      vertex -0.932755 0.854236 7
      vertex -0.942474 0.876422 7.499
      vertex -0.942474 0.876422 7
    endloop
  endfacet
  facet normal -0.915966 -0.401256 0
    outer loop
      vertex -0.942474 0.876422 7.499
      vertex -0.932755 0.854236 7
      vertex -0.932755 0.854236 7.499
    endloop
  endfacet
  facet normal -0.882534 -0.470249 0
    outer loop
      vertex -0.942474 0.876422 7
      vertex -0.953491 0.897098 7.499
      vertex -0.953491 0.897098 7
    endloop
  endfacet
  facet normal -0.882534 -0.470249 0
    outer loop
      vertex -0.953491 0.897098 7.499
      vertex -0.942474 0.876422 7
      vertex -0.942474 0.876422 7.499
    endloop
  endfacet
  facet normal -0.841498 -0.540261 0
    outer loop
      vertex -0.953491 0.897098 7
      vertex -0.965805 0.916278 7.499
      vertex -0.965805 0.916278 7
    endloop
  endfacet
  facet normal -0.841498 -0.540261 0
    outer loop
      vertex -0.965805 0.916278 7.499
      vertex -0.953491 0.897098 7
      vertex -0.953491 0.897098 7.499
    endloop
  endfacet
  facet normal -0.792469 -0.609912 0
    outer loop
      vertex -0.965805 0.916278 7
      vertex -0.979416 0.933963 7.499
      vertex -0.979416 0.933963 7
    endloop
  endfacet
  facet normal -0.792469 -0.609912 0
    outer loop
      vertex -0.979416 0.933963 7.499
      vertex -0.965805 0.916278 7
      vertex -0.965805 0.916278 7.499
    endloop
  endfacet
  facet normal -0.735661 -0.67735 0
    outer loop
      vertex -0.979416 0.933963 7
      vertex -0.994308 0.950137 7.499
      vertex -0.994308 0.950137 7
    endloop
  endfacet
  facet normal -0.735661 -0.67735 0
    outer loop
      vertex -0.994308 0.950137 7.499
      vertex -0.979416 0.933963 7
      vertex -0.979416 0.933963 7.499
    endloop
  endfacet
  facet normal -0.671417 -0.741079 0
    outer loop
      vertex -1.01051 0.964816 7
      vertex -0.994308 0.950137 7.499
      vertex -1.01051 0.964816 7.499
    endloop
  endfacet
  facet normal -0.671417 -0.741079 -0
    outer loop
      vertex -0.994308 0.950137 7.499
      vertex -1.01051 0.964816 7
      vertex -0.994308 0.950137 7
    endloop
  endfacet
  facet normal -0.601503 -0.798871 0
    outer loop
      vertex -1.02802 0.978 7
      vertex -1.01051 0.964816 7.499
      vertex -1.02802 0.978 7.499
    endloop
  endfacet
  facet normal -0.601503 -0.798871 -0
    outer loop
      vertex -1.01051 0.964816 7.499
      vertex -1.02802 0.978 7
      vertex -1.01051 0.964816 7
    endloop
  endfacet
  facet normal -0.532842 -0.846214 0
    outer loop
      vertex -1.04726 0.990115 7
      vertex -1.02802 0.978 7.499
      vertex -1.04726 0.990115 7.499
    endloop
  endfacet
  facet normal -0.532842 -0.846214 -0
    outer loop
      vertex -1.02802 0.978 7.499
      vertex -1.04726 0.990115 7
      vertex -1.02802 0.978 7
    endloop
  endfacet
  facet normal -0.464154 -0.885755 0
    outer loop
      vertex -1.0687 1.00135 7
      vertex -1.04726 0.990115 7.499
      vertex -1.0687 1.00135 7.499
    endloop
  endfacet
  facet normal -0.464154 -0.885755 -0
    outer loop
      vertex -1.04726 0.990115 7.499
      vertex -1.0687 1.00135 7
      vertex -1.04726 0.990115 7
    endloop
  endfacet
  facet normal -0.399477 -0.916743 0
    outer loop
      vertex -1.09236 1.01166 7
      vertex -1.0687 1.00135 7.499
      vertex -1.09236 1.01166 7.499
    endloop
  endfacet
  facet normal -0.399477 -0.916743 -0
    outer loop
      vertex -1.0687 1.00135 7.499
      vertex -1.09236 1.01166 7
      vertex -1.0687 1.00135 7
    endloop
  endfacet
  facet normal -0.342706 -0.939443 0
    outer loop
      vertex -1.11821 1.02109 7
      vertex -1.09236 1.01166 7.499
      vertex -1.11821 1.02109 7.499
    endloop
  endfacet
  facet normal -0.342706 -0.939443 -0
    outer loop
      vertex -1.09236 1.01166 7.499
      vertex -1.11821 1.02109 7
      vertex -1.09236 1.01166 7
    endloop
  endfacet
  facet normal -0.29085 -0.956769 0
    outer loop
      vertex -1.14627 1.02962 7
      vertex -1.11821 1.02109 7.499
      vertex -1.14627 1.02962 7.499
    endloop
  endfacet
  facet normal -0.29085 -0.956769 -0
    outer loop
      vertex -1.11821 1.02109 7.499
      vertex -1.14627 1.02962 7
      vertex -1.11821 1.02109 7
    endloop
  endfacet
  facet normal -0.244721 -0.969594 0
    outer loop
      vertex -1.17654 1.03726 7
      vertex -1.14627 1.02962 7.499
      vertex -1.17654 1.03726 7.499
    endloop
  endfacet
  facet normal -0.244721 -0.969594 -0
    outer loop
      vertex -1.14627 1.02962 7.499
      vertex -1.17654 1.03726 7
      vertex -1.14627 1.02962 7
    endloop
  endfacet
  facet normal -0.202955 -0.979188 0
    outer loop
      vertex -1.20901 1.04399 7
      vertex -1.17654 1.03726 7.499
      vertex -1.20901 1.04399 7.499
    endloop
  endfacet
  facet normal -0.202955 -0.979188 -0
    outer loop
      vertex -1.17654 1.03726 7.499
      vertex -1.20901 1.04399 7
      vertex -1.17654 1.03726 7
    endloop
  endfacet
  facet normal -0.165829 -0.986155 0
    outer loop
      vertex -1.24368 1.04982 7
      vertex -1.20901 1.04399 7.499
      vertex -1.24368 1.04982 7.499
    endloop
  endfacet
  facet normal -0.165829 -0.986155 -0
    outer loop
      vertex -1.20901 1.04399 7.499
      vertex -1.24368 1.04982 7
      vertex -1.20901 1.04399 7
    endloop
  endfacet
  facet normal -0.133026 -0.991113 0
    outer loop
      vertex -1.28056 1.05477 7
      vertex -1.24368 1.04982 7.499
      vertex -1.28056 1.05477 7.499
    endloop
  endfacet
  facet normal -0.133026 -0.991113 -0
    outer loop
      vertex -1.24368 1.04982 7.499
      vertex -1.28056 1.05477 7
      vertex -1.24368 1.04982 7
    endloop
  endfacet
  facet normal -0.10283 -0.994699 0
    outer loop
      vertex -1.31964 1.05881 7
      vertex -1.28056 1.05477 7.499
      vertex -1.31964 1.05881 7.499
    endloop
  endfacet
  facet normal -0.10283 -0.994699 -0
    outer loop
      vertex -1.28056 1.05477 7.499
      vertex -1.31964 1.05881 7
      vertex -1.28056 1.05477 7
    endloop
  endfacet
  facet normal -0.0758285 -0.997121 0
    outer loop
      vertex -1.36093 1.06195 7
      vertex -1.31964 1.05881 7.499
      vertex -1.36093 1.06195 7.499
    endloop
  endfacet
  facet normal -0.0758285 -0.997121 -0
    outer loop
      vertex -1.31964 1.05881 7.499
      vertex -1.36093 1.06195 7
      vertex -1.31964 1.05881 7
    endloop
  endfacet
  facet normal -0.0516669 -0.998664 0
    outer loop
      vertex -1.40442 1.0642 7
      vertex -1.36093 1.06195 7.499
      vertex -1.40442 1.0642 7.499
    endloop
  endfacet
  facet normal -0.0516669 -0.998664 -0
    outer loop
      vertex -1.36093 1.06195 7.499
      vertex -1.40442 1.0642 7
      vertex -1.36093 1.06195 7
    endloop
  endfacet
  facet normal -0.0293219 -0.99957 0
    outer loop
      vertex -1.4501 1.06554 7
      vertex -1.40442 1.0642 7.499
      vertex -1.4501 1.06554 7.499
    endloop
  endfacet
  facet normal -0.0293219 -0.99957 -0
    outer loop
      vertex -1.40442 1.0642 7.499
      vertex -1.4501 1.06554 7
      vertex -1.40442 1.0642 7
    endloop
  endfacet
  facet normal -0.0096029 -0.999954 0
    outer loop
      vertex -1.498 1.066 7
      vertex -1.4501 1.06554 7.499
      vertex -1.498 1.066 7.499
    endloop
  endfacet
  facet normal -0.0096029 -0.999954 -0
    outer loop
      vertex -1.4501 1.06554 7.499
      vertex -1.498 1.066 7
      vertex -1.4501 1.06554 7
    endloop
  endfacet
  facet normal 0 -1 0
    outer loop
      vertex -6.16701 1.066 7
      vertex -1.498 1.066 7.499
      vertex -6.16701 1.066 7.499
    endloop
  endfacet
  facet normal 0 -1 -0
    outer loop
      vertex -1.498 1.066 7.499
      vertex -6.16701 1.066 7
      vertex -1.498 1.066 7
    endloop
  endfacet
  facet normal 0.0137099 -0.999906 0
    outer loop
      vertex -6.22171 1.06525 7
      vertex -6.16701 1.066 7.499
      vertex -6.22171 1.06525 7.499
    endloop
  endfacet
  facet normal 0.0137099 -0.999906 0
    outer loop
      vertex -6.16701 1.066 7.499
      vertex -6.22171 1.06525 7
      vertex -6.16701 1.066 7
    endloop
  endfacet
  facet normal 0.0429628 -0.999077 0
    outer loop
      vertex -6.2738 1.06301 7
      vertex -6.22171 1.06525 7.499
      vertex -6.2738 1.06301 7.499
    endloop
  endfacet
  facet normal 0.0429628 -0.999077 0
    outer loop
      vertex -6.22171 1.06525 7.499
      vertex -6.2738 1.06301 7
      vertex -6.22171 1.06525 7
    endloop
  endfacet
  facet normal 0.0751405 -0.997173 0
    outer loop
      vertex -6.3233 1.05928 7
      vertex -6.2738 1.06301 7.499
      vertex -6.3233 1.05928 7.499
    endloop
  endfacet
  facet normal 0.0751405 -0.997173 0
    outer loop
      vertex -6.2738 1.06301 7.499
      vertex -6.3233 1.05928 7
      vertex -6.2738 1.06301 7
    endloop
  endfacet
  facet normal 0.110222 -0.993907 0
    outer loop
      vertex -6.37019 1.05408 7
      vertex -6.3233 1.05928 7.499
      vertex -6.37019 1.05408 7.499
    endloop
  endfacet
  facet normal 0.110222 -0.993907 0
    outer loop
      vertex -6.3233 1.05928 7.499
      vertex -6.37019 1.05408 7
      vertex -6.3233 1.05928 7
    endloop
  endfacet
  facet normal 0.149759 -0.988723 0
    outer loop
      vertex -6.41449 1.04737 7
      vertex -6.37019 1.05408 7.499
      vertex -6.41449 1.04737 7.499
    endloop
  endfacet
  facet normal 0.149759 -0.988723 0
    outer loop
      vertex -6.37019 1.05408 7.499
      vertex -6.41449 1.04737 7
      vertex -6.37019 1.05408 7
    endloop
  endfacet
  facet normal 0.192992 -0.9812 0
    outer loop
      vertex -6.45618 1.03917 7
      vertex -6.41449 1.04737 7.499
      vertex -6.45618 1.03917 7.499
    endloop
  endfacet
  facet normal 0.192992 -0.9812 0
    outer loop
      vertex -6.41449 1.04737 7.499
      vertex -6.45618 1.03917 7
      vertex -6.41449 1.04737 7
    endloop
  endfacet
  facet normal 0.240255 -0.97071 0
    outer loop
      vertex -6.49525 1.0295 7
      vertex -6.45618 1.03917 7.499
      vertex -6.49525 1.0295 7.499
    endloop
  endfacet
  facet normal 0.240255 -0.97071 0
    outer loop
      vertex -6.45618 1.03917 7.499
      vertex -6.49525 1.0295 7
      vertex -6.45618 1.03917 7
    endloop
  endfacet
  facet normal 0.293184 -0.956056 0
    outer loop
      vertex -6.53174 1.01831 7
      vertex -6.49525 1.0295 7.499
      vertex -6.53174 1.01831 7.499
    endloop
  endfacet
  facet normal 0.293184 -0.956056 0
    outer loop
      vertex -6.49525 1.0295 7.499
      vertex -6.53174 1.01831 7
      vertex -6.49525 1.0295 7
    endloop
  endfacet
  facet normal 0.349942 -0.936771 0
    outer loop
      vertex -6.56563 1.00565 7
      vertex -6.53174 1.01831 7.499
      vertex -6.56563 1.00565 7.499
    endloop
  endfacet
  facet normal 0.349942 -0.936771 0
    outer loop
      vertex -6.53174 1.01831 7.499
      vertex -6.56563 1.00565 7
      vertex -6.53174 1.01831 7
    endloop
  endfacet
  facet normal 0.41206 -0.911157 0
    outer loop
      vertex -6.59691 0.991504 7
      vertex -6.56563 1.00565 7.499
      vertex -6.59691 0.991504 7.499
    endloop
  endfacet
  facet normal 0.41206 -0.911157 0
    outer loop
      vertex -6.56563 1.00565 7.499
      vertex -6.59691 0.991504 7
      vertex -6.56563 1.00565 7
    endloop
  endfacet
  facet normal 0.478919 -0.877859 0
    outer loop
      vertex -6.62558 0.975863 7
      vertex -6.59691 0.991504 7.499
      vertex -6.62558 0.975863 7.499
    endloop
  endfacet
  facet normal 0.478919 -0.877859 0
    outer loop
      vertex -6.59691 0.991504 7.499
      vertex -6.62558 0.975863 7
      vertex -6.59691 0.991504 7
    endloop
  endfacet
  facet normal 0.549104 -0.835754 0
    outer loop
      vertex -6.65166 0.958728 7
      vertex -6.62558 0.975863 7.499
      vertex -6.65166 0.958728 7.499
    endloop
  endfacet
  facet normal 0.549104 -0.835754 0
    outer loop
      vertex -6.62558 0.975863 7.499
      vertex -6.65166 0.958728 7
      vertex -6.62558 0.975863 7
    endloop
  endfacet
  facet normal 0.621578 -0.783353 0
    outer loop
      vertex -6.67514 0.940097 7
      vertex -6.65166 0.958728 7.499
      vertex -6.67514 0.940097 7.499
    endloop
  endfacet
  facet normal 0.621578 -0.783353 0
    outer loop
      vertex -6.65166 0.958728 7.499
      vertex -6.67514 0.940097 7
      vertex -6.65166 0.958728 7
    endloop
  endfacet
  facet normal 0.693892 -0.720079 0
    outer loop
      vertex -6.69601 0.919986 7
      vertex -6.67514 0.940097 7.499
      vertex -6.69601 0.919986 7.499
    endloop
  endfacet
  facet normal 0.693892 -0.720079 0
    outer loop
      vertex -6.67514 0.940097 7.499
      vertex -6.69601 0.919986 7
      vertex -6.67514 0.940097 7
    endloop
  endfacet
  facet normal 0.762046 -0.647523 0
    outer loop
      vertex -6.71507 0.897555 7.499
      vertex -6.69601 0.919986 7
      vertex -6.69601 0.919986 7.499
    endloop
  endfacet
  facet normal 0.762046 -0.647523 0
    outer loop
      vertex -6.69601 0.919986 7
      vertex -6.71507 0.897555 7.499
      vertex -6.71507 0.897555 7
    endloop
  endfacet
  facet normal 0.817028 -0.576598 0
    outer loop
      vertex -6.73315 0.871936 7.499
      vertex -6.71507 0.897555 7
      vertex -6.71507 0.897555 7.499
    endloop
  endfacet
  facet normal 0.817028 -0.576598 0
    outer loop
      vertex -6.71507 0.897555 7
      vertex -6.73315 0.871936 7.499
      vertex -6.73315 0.871936 7
    endloop
  endfacet
  facet normal 0.860062 -0.510189 0
    outer loop
      vertex -6.75023 0.843143 7.499
      vertex -6.73315 0.871936 7
      vertex -6.73315 0.871936 7.499
    endloop
  endfacet
  facet normal 0.860062 -0.510189 0
    outer loop
      vertex -6.73315 0.871936 7
      vertex -6.75023 0.843143 7.499
      vertex -6.75023 0.843143 7
    endloop
  endfacet
  facet normal 0.893464 -0.449135 0
    outer loop
      vertex -6.7663 0.811175 7.499
      vertex -6.75023 0.843143 7
      vertex -6.75023 0.843143 7.499
    endloop
  endfacet
  facet normal 0.893464 -0.449135 0
    outer loop
      vertex -6.75023 0.843143 7
      vertex -6.7663 0.811175 7.499
      vertex -6.7663 0.811175 7
    endloop
  endfacet
  facet normal 0.919054 -0.394131 0
    outer loop
      vertex -6.78137 0.776034 7.499
      vertex -6.7663 0.811175 7
      vertex -6.7663 0.811175 7.499
    endloop
  endfacet
  facet normal 0.919054 -0.394131 0
    outer loop
      vertex -6.7663 0.811175 7
      vertex -6.78137 0.776034 7.499
      vertex -6.78137 0.776034 7
    endloop
  endfacet
  facet normal 0.938706 -0.34472 0
    outer loop
      vertex -6.79544 0.73772 7.499
      vertex -6.78137 0.776034 7
      vertex -6.78137 0.776034 7.499
    endloop
  endfacet
  facet normal 0.938706 -0.34472 0
    outer loop
      vertex -6.78137 0.776034 7
      vertex -6.79544 0.73772 7.499
      vertex -6.79544 0.73772 7
    endloop
  endfacet
  facet normal 0.953827 -0.300356 0
    outer loop
      vertex -6.8085 0.696246 7.499
      vertex -6.79544 0.73772 7
      vertex -6.79544 0.73772 7.499
    endloop
  endfacet
  facet normal 0.953827 -0.300356 0
    outer loop
      vertex -6.79544 0.73772 7
      vertex -6.8085 0.696246 7.499
      vertex -6.8085 0.696246 7
    endloop
  endfacet
  facet normal 0.965368 -0.260893 0
    outer loop
      vertex -6.82057 0.651584 7.499
      vertex -6.8085 0.696246 7
      vertex -6.8085 0.696246 7.499
    endloop
  endfacet
  facet normal 0.965368 -0.260893 0
    outer loop
      vertex -6.8085 0.696246 7
      vertex -6.82057 0.651584 7.499
      vertex -6.82057 0.651584 7
    endloop
  endfacet
  facet normal 0.974209 -0.225646 0
    outer loop
      vertex -6.83165 0.603747 7.499
      vertex -6.82057 0.651584 7
      vertex -6.82057 0.651584 7.499
    endloop
  endfacet
  facet normal 0.974209 -0.225646 0
    outer loop
      vertex -6.82057 0.651584 7
      vertex -6.83165 0.603747 7.499
      vertex -6.83165 0.603747 7
    endloop
  endfacet
  facet normal 0.981055 -0.193729 0
    outer loop
      vertex -6.84172 0.552752 7.499
      vertex -6.83165 0.603747 7
      vertex -6.83165 0.603747 7.499
    endloop
  endfacet
  facet normal 0.981055 -0.193729 0
    outer loop
      vertex -6.83165 0.603747 7
      vertex -6.84172 0.552752 7.499
      vertex -6.84172 0.552752 7
    endloop
  endfacet
  facet normal 0.986247 -0.165276 0
    outer loop
      vertex -6.8508 0.498569 7.499
      vertex -6.84172 0.552752 7
      vertex -6.84172 0.552752 7.499
    endloop
  endfacet
  facet normal 0.986247 -0.165276 0
    outer loop
      vertex -6.84172 0.552752 7
      vertex -6.8508 0.498569 7.499
      vertex -6.8508 0.498569 7
    endloop
  endfacet
  facet normal 0.990247 -0.139323 0
    outer loop
      vertex -6.85887 0.441211 7.499
      vertex -6.8508 0.498569 7
      vertex -6.8508 0.498569 7.499
    endloop
  endfacet
  facet normal 0.990247 -0.139323 0
    outer loop
      vertex -6.8508 0.498569 7
      vertex -6.85887 0.441211 7.499
      vertex -6.85887 0.441211 7
    endloop
  endfacet
  facet normal 0.993245 -0.116037 0
    outer loop
      vertex -6.86594 0.380694 7.499
      vertex -6.85887 0.441211 7
      vertex -6.85887 0.441211 7.499
    endloop
  endfacet
  facet normal 0.993245 -0.116037 0
    outer loop
      vertex -6.85887 0.441211 7
      vertex -6.86594 0.380694 7.499
      vertex -6.86594 0.380694 7
    endloop
  endfacet
  facet normal 0.995491 -0.0948533 0
    outer loop
      vertex -6.87201 0.316989 7.499
      vertex -6.86594 0.380694 7
      vertex -6.86594 0.380694 7.499
    endloop
  endfacet
  facet normal 0.995491 -0.0948533 0
    outer loop
      vertex -6.86594 0.380694 7
      vertex -6.87201 0.316989 7.499
      vertex -6.87201 0.316989 7
    endloop
  endfacet
  facet normal 0 -1 0
    outer loop
      vertex -7 0.316989 7
      vertex -6.87201 0.316989 7.499
      vertex -7 0.316989 7.499
    endloop
  endfacet
  facet normal 0 -1 -0
    outer loop
      vertex -6.87201 0.316989 7.499
      vertex -7 0.316989 7
      vertex -6.87201 0.316989 7
    endloop
  endfacet
  facet normal -1 0 0
    outer loop
      vertex -7 0.316989 7
      vertex -7 2.61299 7.499
      vertex -7 2.61299 7
    endloop
  endfacet
  facet normal -1 -0 0
    outer loop
      vertex -7 2.61299 7.499
      vertex -7 0.316989 7
      vertex -7 0.316989 7.499
    endloop
  endfacet
  facet normal 0 1 -0
    outer loop
      vertex -6.87201 2.61299 7
      vertex -7 2.61299 7.499
      vertex -6.87201 2.61299 7.499
    endloop
  endfacet
  facet normal 0 1 0
    outer loop
      vertex -7 2.61299 7.499
      vertex -6.87201 2.61299 7
      vertex -7 2.61299 7
    endloop
  endfacet
endsolid OpenSCAD_Model
