solid OpenSCAD_Model
  facet normal 1 -0 0
    outer loop
      vertex 0 0 7
      vertex 0 2.625 0
      vertex 0 2.625 7
    endloop
  endfacet
  facet normal 1 0 0
    outer loop
      vertex 0 2.625 0
      vertex 0 0 7
      vertex 0 0 0
    endloop
  endfacet
  facet normal -0 0 1
    outer loop
      vertex -10 2.625 7
      vertex 0 0 7
      vertex 0 2.625 7
    endloop
  endfacet
  facet normal 0 0 1
    outer loop
      vertex 0 0 7
      vertex -10 2.625 7
      vertex -10 0 7
    endloop
  endfacet
  facet normal -1 0 0
    outer loop
      vertex -10 0 2.84549
      vertex -10 2.625 7
      vertex -10 2.625 2.84549
    endloop
  endfacet
  facet normal -1 -0 0
    outer loop
      vertex -10 2.625 7
      vertex -10 0 2.84549
      vertex -10 0 7
    endloop
  endfacet
  facet normal -1 0 0
    outer loop
      vertex -10 0 0
      vertex -10 2.625 1.15451
      vertex -10 2.625 0
    endloop
  endfacet
  facet normal -1 -0 0
    outer loop
      vertex -10 2.625 1.15451
      vertex -10 0 0
      vertex -10 0 1.15451
    endloop
  endfacet
  facet normal 0 1 -0
    outer loop
      vertex -9.57612 2.625 2.38268
      vertex -10 2.625 7
      vertex 0 2.625 7
    endloop
  endfacet
  facet normal 0 1 0
    outer loop
      vertex -10 2.625 7
      vertex -9.79289 2.625 2.70711
      vertex -10 2.625 2.84549
    endloop
  endfacet
  facet normal 0 1 0
    outer loop
      vertex -10 2.625 7
      vertex -9.57612 2.625 2.38268
      vertex -9.79289 2.625 2.70711
    endloop
  endfacet
  facet normal 0 1 -0
    outer loop
      vertex 0 2.625 0
      vertex -9.57612 2.625 2.38268
      vertex 0 2.625 7
    endloop
  endfacet
  facet normal 0 1 0
    outer loop
      vertex -9.57612 2.625 2.38268
      vertex 0 2.625 0
      vertex -9.5 2.625 2
    endloop
  endfacet
  facet normal 0 1 0
    outer loop
      vertex -9.5 2.625 2
      vertex 0 2.625 0
      vertex -9.57612 2.625 1.61732
    endloop
  endfacet
  facet normal 0 1 0
    outer loop
      vertex -10 2.625 0
      vertex -9.57612 2.625 1.61732
      vertex 0 2.625 0
    endloop
  endfacet
  facet normal 0 1 0
    outer loop
      vertex -9.57612 2.625 1.61732
      vertex -10 2.625 0
      vertex -9.79289 2.625 1.29289
    endloop
  endfacet
  facet normal 0 1 0
    outer loop
      vertex -9.79289 2.625 1.29289
      vertex -10 2.625 0
      vertex -10 2.625 1.15451
    endloop
  endfacet
  facet normal 0 0 -1
    outer loop
      vertex -10 0 0
      vertex 0 2.625 0
      vertex 0 0 0
    endloop
  endfacet
  facet normal -0 0 -1
    outer loop
      vertex 0 2.625 0
      vertex -10 0 0
      vertex -10 2.625 0
    endloop
  endfacet
  facet normal 0 -1 0
    outer loop
      vertex -9.79289 0 2.70711
      vertex -10 0 7
      vertex -10 0 2.84549
    endloop
  endfacet
  facet normal 0 -1 0
    outer loop
      vertex -9.57612 0 2.38268
      vertex -10 0 7
      vertex -9.79289 0 2.70711
    endloop
  endfacet
  facet normal 0 -1 0
    outer loop
      vertex -10 0 7
      vertex -9.57612 0 2.38268
      vertex 0 0 7
    endloop
  endfacet
  facet normal 0 -1 0
    outer loop
      vertex 0 0 0
      vertex -9.57612 0 2.38268
      vertex -9.5 0 2
    endloop
  endfacet
  facet normal 0 -1 0
    outer loop
      vertex 0 0 0
      vertex -9.5 0 2
      vertex -9.57612 0 1.61732
    endloop
  endfacet
  facet normal 0 -1 0
    outer loop
      vertex -10 0 0
      vertex -9.57612 0 1.61732
      vertex -9.79289 0 1.29289
    endloop
  endfacet
  facet normal 0 -1 0
    outer loop
      vertex -10 0 0
      vertex -9.79289 0 1.29289
      vertex -10 0 1.15451
    endloop
  endfacet
  facet normal 0 -1 -0
    outer loop
      vertex -9.57612 0 1.61732
      vertex -10 0 0
      vertex 0 0 0
    endloop
  endfacet
  facet normal 0 -1 0
    outer loop
      vertex -9.57612 0 2.38268
      vertex 0 0 0
      vertex 0 0 7
    endloop
  endfacet
  facet normal -0.831478 0 -0.555557
    outer loop
      vertex -9.57612 0 2.38268
      vertex -9.79289 2.625 2.70711
      vertex -9.57612 2.625 2.38268
    endloop
  endfacet
  facet normal -0.831478 -0 -0.555557
    outer loop
      vertex -9.79289 2.625 2.70711
      vertex -9.57612 0 2.38268
      vertex -9.79289 0 2.70711
    endloop
  endfacet
  facet normal -0.555552 0 -0.831482
    outer loop
      vertex -10 0 2.84549
      vertex -9.79289 2.625 2.70711
      vertex -9.79289 0 2.70711
    endloop
  endfacet
  facet normal -0.555552 0 -0.831482
    outer loop
      vertex -9.79289 2.625 2.70711
      vertex -10 0 2.84549
      vertex -10 2.625 2.84549
    endloop
  endfacet
  facet normal -0.831478 0 0.555557
    outer loop
      vertex -9.79289 0 1.29289
      vertex -9.57612 2.625 1.61732
      vertex -9.79289 2.625 1.29289
    endloop
  endfacet
  facet normal -0.831478 0 0.555557
    outer loop
      vertex -9.57612 2.625 1.61732
      vertex -9.79289 0 1.29289
      vertex -9.57612 0 1.61732
    endloop
  endfacet
  facet normal -0.980785 0 -0.195091
    outer loop
      vertex -9.5 0 2
      vertex -9.57612 2.625 2.38268
      vertex -9.5 2.625 2
    endloop
  endfacet
  facet normal -0.980785 -0 -0.195091
    outer loop
      vertex -9.57612 2.625 2.38268
      vertex -9.5 0 2
      vertex -9.57612 0 2.38268
    endloop
  endfacet
  facet normal -0.980785 0 0.195091
    outer loop
      vertex -9.57612 0 1.61732
      vertex -9.5 2.625 2
      vertex -9.57612 2.625 1.61732
    endloop
  endfacet
  facet normal -0.980785 0 0.195091
    outer loop
      vertex -9.5 2.625 2
      vertex -9.57612 0 1.61732
      vertex -9.5 0 2
    endloop
  endfacet
  facet normal -0.555552 0 0.831482
    outer loop
      vertex -10 2.625 1.15451
      vertex -9.79289 0 1.29289
      vertex -9.79289 2.625 1.29289
    endloop
  endfacet
  facet normal -0.555552 0 0.831482
    outer loop
      vertex -9.79289 0 1.29289
      vertex -10 2.625 1.15451
      vertex -10 0 1.15451
    endloop
  endfacet
endsolid OpenSCAD_Model
