solid OpenSCAD_Model
  facet normal 1 -0 0
    outer loop
      vertex 0 0 7
      vertex 0 6.363 0
      vertex 0 6.363 7
    endloop
  endfacet
  facet normal 1 0 0
    outer loop
      vertex 0 6.363 0
      vertex 0 0 7
      vertex 0 0 0
    endloop
  endfacet
  facet normal 0 0 1
    outer loop
      vertex -2.136 0.578998 7
      vertex -0.984009 2.12599 7
      vertex -0.984009 2.65099 7
    endloop
  endfacet
  facet normal 0 0 1
    outer loop
      vertex -0.984009 2.12599 7
      vertex -2.136 0.578998 7
      vertex -0.985062 2.01203 7
    endloop
  endfacet
  facet normal 0 0 1
    outer loop
      vertex -0.985062 2.01203 7
      vertex -2.136 0.578998 7
      vertex -0.988235 1.90357 7
    endloop
  endfacet
  facet normal 0 -0 1
    outer loop
      vertex -2.03329 0.60451 7
      vertex -0.988235 1.90357 7
      vertex -2.136 0.578998 7
    endloop
  endfacet
  facet normal 0 0 1
    outer loop
      vertex -0.988235 1.90357 7
      vertex -2.03329 0.60451 7
      vertex -0.993515 1.8006 7
    endloop
  endfacet
  facet normal 0 -0 1
    outer loop
      vertex -1.93599 0.631076 7
      vertex -0.993515 1.8006 7
      vertex -2.03329 0.60451 7
    endloop
  endfacet
  facet normal 0 0 1
    outer loop
      vertex -0.993515 1.8006 7
      vertex -1.93599 0.631076 7
      vertex -1.0009 1.70313 7
    endloop
  endfacet
  facet normal 0 0 1
    outer loop
      vertex -1.0009 1.70313 7
      vertex -1.8441 0.658679 7
      vertex -1.01041 1.61116 7
    endloop
  endfacet
  facet normal 0 0 1
    outer loop
      vertex -1.01041 1.61116 7
      vertex -1.75764 0.68732 7
      vertex -1.02203 1.52471 7
    endloop
  endfacet
  facet normal 0 -0 1
    outer loop
      vertex -1.67659 0.716998 7
      vertex -1.02203 1.52471 7
      vertex -1.75764 0.68732 7
    endloop
  endfacet
  facet normal 0 0 1
    outer loop
      vertex -1.02203 1.52471 7
      vertex -1.60097 0.747729 7
      vertex -1.03575 1.44374 7
    endloop
  endfacet
  facet normal 0 0 1
    outer loop
      vertex -1.03575 1.44374 7
      vertex -1.53076 0.779498 7
      vertex -1.05161 1.36827 7
    endloop
  endfacet
  facet normal 0 -0 1
    outer loop
      vertex -1.46597 0.812304 7
      vertex -1.05161 1.36827 7
      vertex -1.53076 0.779498 7
    endloop
  endfacet
  facet normal 0 -0 1
    outer loop
      vertex -1.4066 0.846148 7
      vertex -1.06955 1.29831 7
      vertex -1.46597 0.812304 7
    endloop
  endfacet
  facet normal 0 -0 1
    outer loop
      vertex -1.35265 0.88103 7
      vertex -1.08961 1.23384 7
      vertex -1.4066 0.846148 7
    endloop
  endfacet
  facet normal 0 -0 1
    outer loop
      vertex -1.30411 0.916965 7
      vertex -1.1118 1.17488 7
      vertex -1.35265 0.88103 7
    endloop
  endfacet
  facet normal 0 0 1
    outer loop
      vertex -1.1118 1.17488 7
      vertex -1.30411 0.916965 7
      vertex -1.13609 1.12142 7
    endloop
  endfacet
  facet normal 0 0 1
    outer loop
      vertex -1.13609 1.12142 7
      vertex -1.26099 0.953937 7
      vertex -1.16249 1.07346 7
    endloop
  endfacet
  facet normal 0 0 1
    outer loop
      vertex -1.16249 1.07346 7
      vertex -1.22328 0.991946 7
      vertex -1.19101 1.03099 7
    endloop
  endfacet
  facet normal 0 0 1
    outer loop
      vertex -1.16249 1.07346 7
      vertex -1.26099 0.953937 7
      vertex -1.22328 0.991946 7
    endloop
  endfacet
  facet normal 0 -0 1
    outer loop
      vertex -1.26099 0.953937 7
      vertex -1.13609 1.12142 7
      vertex -1.30411 0.916965 7
    endloop
  endfacet
  facet normal 0 0 1
    outer loop
      vertex -1.08961 1.23384 7
      vertex -1.35265 0.88103 7
      vertex -1.1118 1.17488 7
    endloop
  endfacet
  facet normal 0 0 1
    outer loop
      vertex -1.06955 1.29831 7
      vertex -1.4066 0.846148 7
      vertex -1.08961 1.23384 7
    endloop
  endfacet
  facet normal 0 0 1
    outer loop
      vertex -1.05161 1.36827 7
      vertex -1.46597 0.812304 7
      vertex -1.06955 1.29831 7
    endloop
  endfacet
  facet normal 0 -0 1
    outer loop
      vertex -1.53076 0.779498 7
      vertex -1.03575 1.44374 7
      vertex -1.60097 0.747729 7
    endloop
  endfacet
  facet normal 0 -0 1
    outer loop
      vertex -1.60097 0.747729 7
      vertex -1.02203 1.52471 7
      vertex -1.67659 0.716998 7
    endloop
  endfacet
  facet normal 0 -0 1
    outer loop
      vertex -1.75764 0.68732 7
      vertex -1.01041 1.61116 7
      vertex -1.8441 0.658679 7
    endloop
  endfacet
  facet normal 0 -0 1
    outer loop
      vertex -1.8441 0.658679 7
      vertex -1.0009 1.70313 7
      vertex -1.93599 0.631076 7
    endloop
  endfacet
  facet normal 0 0 1
    outer loop
      vertex -2.136 0.578998 7
      vertex -5.82901 2.65099 7
      vertex -2.136 0.345996 7
    endloop
  endfacet
  facet normal -0 0 1
    outer loop
      vertex -5.82901 2.65099 7
      vertex -2.136 0.578998 7
      vertex -0.984009 2.65099 7
    endloop
  endfacet
  facet normal 0 0 1
    outer loop
      vertex 0 6.363 7
      vertex -0.536011 5.89099 7
      vertex 0 0 7
    endloop
  endfacet
  facet normal 0 0 1
    outer loop
      vertex 0 6.363 7
      vertex -2.136 5.94899 7
      vertex -0.536011 5.89099 7
    endloop
  endfacet
  facet normal 0 0 1
    outer loop
      vertex -6.80801 4.57799 7
      vertex -2.136 5.71599 7
      vertex -2.136 5.94899 7
    endloop
  endfacet
  facet normal 0 0 1
    outer loop
      vertex -2.136 5.71599 7
      vertex -6.80801 4.57799 7
      vertex -5.936 3.64398 7
    endloop
  endfacet
  facet normal -0 -0 1
    outer loop
      vertex -6.80322 4.49408 7
      vertex -5.936 3.64398 7
      vertex -6.80801 4.57799 7
    endloop
  endfacet
  facet normal -0 -0 1
    outer loop
      vertex -6.79715 4.41463 7
      vertex -5.936 3.64398 7
      vertex -6.80322 4.49408 7
    endloop
  endfacet
  facet normal 0 0 1
    outer loop
      vertex -5.936 3.64398 7
      vertex -6.79715 4.41463 7
      vertex -6.01022 3.64484 7
    endloop
  endfacet
  facet normal -0 -0 1
    outer loop
      vertex -6.78979 4.33963 7
      vertex -6.01022 3.64484 7
      vertex -6.79715 4.41463 7
    endloop
  endfacet
  facet normal 0 0 1
    outer loop
      vertex -6.01022 3.64484 7
      vertex -6.78979 4.33963 7
      vertex -6.08058 3.64736 7
    endloop
  endfacet
  facet normal -0 -0 1
    outer loop
      vertex -6.78114 4.26909 7
      vertex -6.08058 3.64736 7
      vertex -6.78979 4.33963 7
    endloop
  endfacet
  facet normal 0 0 1
    outer loop
      vertex -6.08058 3.64736 7
      vertex -6.78114 4.26909 7
      vertex -6.14708 3.65157 7
    endloop
  endfacet
  facet normal -0 -0 1
    outer loop
      vertex -6.77122 4.20302 7
      vertex -6.14708 3.65157 7
      vertex -6.78114 4.26909 7
    endloop
  endfacet
  facet normal 0 0 1
    outer loop
      vertex -6.14708 3.65157 7
      vertex -6.77122 4.20302 7
      vertex -6.20972 3.65746 7
    endloop
  endfacet
  facet normal -0 -0 1
    outer loop
      vertex -6.76001 4.14141 7
      vertex -6.20972 3.65746 7
      vertex -6.77122 4.20302 7
    endloop
  endfacet
  facet normal 0 0 1
    outer loop
      vertex -6.20972 3.65746 7
      vertex -6.76001 4.14141 7
      vertex -6.26851 3.66504 7
    endloop
  endfacet
  facet normal -0 -0 1
    outer loop
      vertex -6.74751 4.08425 7
      vertex -6.26851 3.66504 7
      vertex -6.76001 4.14141 7
    endloop
  endfacet
  facet normal 0 0 1
    outer loop
      vertex -6.26851 3.66504 7
      vertex -6.74751 4.08425 7
      vertex -6.32344 3.6743 7
    endloop
  endfacet
  facet normal 0 0 1
    outer loop
      vertex -6.32344 3.6743 7
      vertex -6.74751 4.08425 7
      vertex -6.37451 3.68524 7
    endloop
  endfacet
  facet normal -0 -0 1
    outer loop
      vertex -6.73372 4.03154 7
      vertex -6.37451 3.68524 7
      vertex -6.74751 4.08425 7
    endloop
  endfacet
  facet normal 0 0 1
    outer loop
      vertex -6.37451 3.68524 7
      vertex -6.73372 4.03154 7
      vertex -6.42172 3.69786 7
    endloop
  endfacet
  facet normal 0 0 1
    outer loop
      vertex -6.42172 3.69786 7
      vertex -6.71864 3.98331 7
      vertex -6.46507 3.71218 7
    endloop
  endfacet
  facet normal 0 0 1
    outer loop
      vertex -6.46507 3.71218 7
      vertex -6.70229 3.93952 7
      vertex -6.50458 3.72818 7
    endloop
  endfacet
  facet normal -0 -0 1
    outer loop
      vertex -6.68465 3.9002 7
      vertex -6.50458 3.72818 7
      vertex -6.70229 3.93952 7
    endloop
  endfacet
  facet normal -0 -0 1
    outer loop
      vertex -6.66573 3.86534 7
      vertex -6.54022 3.74585 7
      vertex -6.68465 3.9002 7
    endloop
  endfacet
  facet normal -0 -0 1
    outer loop
      vertex -6.64551 3.83493 7
      vertex -6.59993 3.78626 7
      vertex -6.66573 3.86534 7
    endloop
  endfacet
  facet normal 0 0 1
    outer loop
      vertex -6.57201 3.76522 7
      vertex -6.66573 3.86534 7
      vertex -6.59993 3.78626 7
    endloop
  endfacet
  facet normal 0 0 1
    outer loop
      vertex -6.59993 3.78626 7
      vertex -6.64551 3.83493 7
      vertex -6.62401 3.80899 7
    endloop
  endfacet
  facet normal 0 0 1
    outer loop
      vertex -6.54022 3.74585 7
      vertex -6.66573 3.86534 7
      vertex -6.57201 3.76522 7
    endloop
  endfacet
  facet normal 0 0 1
    outer loop
      vertex -6.50458 3.72818 7
      vertex -6.68465 3.9002 7
      vertex -6.54022 3.74585 7
    endloop
  endfacet
  facet normal -0 -0 1
    outer loop
      vertex -6.70229 3.93952 7
      vertex -6.46507 3.71218 7
      vertex -6.71864 3.98331 7
    endloop
  endfacet
  facet normal -0 -0 1
    outer loop
      vertex -6.71864 3.98331 7
      vertex -6.42172 3.69786 7
      vertex -6.73372 4.03154 7
    endloop
  endfacet
  facet normal 0 0 1
    outer loop
      vertex -10 6.363 7
      vertex -6.80801 4.57799 7
      vertex -2.136 5.94899 7
    endloop
  endfacet
  facet normal 0 0 1
    outer loop
      vertex -10 0 7
      vertex -7 4.57799 7
      vertex -10 6.363 7
    endloop
  endfacet
  facet normal 0 0 1
    outer loop
      vertex -6.80801 4.57799 7
      vertex -10 6.363 7
      vertex -7 4.57799 7
    endloop
  endfacet
  facet normal -0 0 1
    outer loop
      vertex -10 6.363 7
      vertex -2.136 5.94899 7
      vertex 0 6.363 7
    endloop
  endfacet
  facet normal -0 0 1
    outer loop
      vertex -0.536011 0.403995 7
      vertex 0 0 7
      vertex -0.536011 5.89099 7
    endloop
  endfacet
  facet normal -0 0 1
    outer loop
      vertex -2.136 0.345996 7
      vertex 0 0 7
      vertex -0.536011 0.403995 7
    endloop
  endfacet
  facet normal 0 0 1
    outer loop
      vertex -6.80801 1.73699 7
      vertex -5.82901 2.65099 7
      vertex -5.91524 2.6502 7
    endloop
  endfacet
  facet normal 0 0 1
    outer loop
      vertex -6.80182 1.82085 7
      vertex -5.91524 2.6502 7
      vertex -5.99677 2.64781 7
    endloop
  endfacet
  facet normal 0 0 1
    outer loop
      vertex -6.79439 1.90013 7
      vertex -5.99677 2.64781 7
      vertex -6.07359 2.64383 7
    endloop
  endfacet
  facet normal 0 0 1
    outer loop
      vertex -6.78574 1.97486 7
      vertex -6.07359 2.64383 7
      vertex -6.14574 2.63826 7
    endloop
  endfacet
  facet normal 0 0 1
    outer loop
      vertex -6.77585 2.04499 7
      vertex -6.14574 2.63826 7
      vertex -6.2132 2.63109 7
    endloop
  endfacet
  facet normal 0 0 1
    outer loop
      vertex -6.76471 2.11057 7
      vertex -6.2132 2.63109 7
      vertex -6.27594 2.62233 7
    endloop
  endfacet
  facet normal 0 0 1
    outer loop
      vertex -6.75235 2.17156 7
      vertex -6.27594 2.62233 7
      vertex -6.33401 2.61199 7
    endloop
  endfacet
  facet normal 0 0 1
    outer loop
      vertex -6.73875 2.228 7
      vertex -6.33401 2.61199 7
      vertex -6.38737 2.60005 7
    endloop
  endfacet
  facet normal 0 0 1
    outer loop
      vertex -6.72392 2.27985 7
      vertex -6.38737 2.60005 7
      vertex -6.43605 2.58652 7
    endloop
  endfacet
  facet normal 0 0 1
    outer loop
      vertex -6.70786 2.32714 7
      vertex -6.43605 2.58652 7
      vertex -6.48003 2.5714 7
    endloop
  endfacet
  facet normal 0 0 1
    outer loop
      vertex -6.69055 2.36985 7
      vertex -6.48003 2.5714 7
      vertex -6.51932 2.55469 7
    endloop
  endfacet
  facet normal 0 0 1
    outer loop
      vertex -6.67203 2.40799 7
      vertex -6.51932 2.55469 7
      vertex -6.55391 2.53638 7
    endloop
  endfacet
  facet normal 0 0 1
    outer loop
      vertex -6.65225 2.44156 7
      vertex -6.55391 2.53638 7
      vertex -6.5838 2.51648 7
    endloop
  endfacet
  facet normal 0 0 1
    outer loop
      vertex -6.63124 2.47057 7
      vertex -6.5838 2.51648 7
      vertex -6.60901 2.495 7
    endloop
  endfacet
  facet normal 0 0 1
    outer loop
      vertex -6.5838 2.51648 7
      vertex -6.63124 2.47057 7
      vertex -6.65225 2.44156 7
    endloop
  endfacet
  facet normal 0 0 1
    outer loop
      vertex -6.55391 2.53638 7
      vertex -6.65225 2.44156 7
      vertex -6.67203 2.40799 7
    endloop
  endfacet
  facet normal 0 0 1
    outer loop
      vertex -6.51932 2.55469 7
      vertex -6.67203 2.40799 7
      vertex -6.69055 2.36985 7
    endloop
  endfacet
  facet normal 0 0 1
    outer loop
      vertex -6.48003 2.5714 7
      vertex -6.69055 2.36985 7
      vertex -6.70786 2.32714 7
    endloop
  endfacet
  facet normal 0 0 1
    outer loop
      vertex -6.43605 2.58652 7
      vertex -6.70786 2.32714 7
      vertex -6.72392 2.27985 7
    endloop
  endfacet
  facet normal 0 0 1
    outer loop
      vertex -6.38737 2.60005 7
      vertex -6.72392 2.27985 7
      vertex -6.73875 2.228 7
    endloop
  endfacet
  facet normal 0 0 1
    outer loop
      vertex -6.33401 2.61199 7
      vertex -6.73875 2.228 7
      vertex -6.75235 2.17156 7
    endloop
  endfacet
  facet normal 0 0 1
    outer loop
      vertex -6.27594 2.62233 7
      vertex -6.75235 2.17156 7
      vertex -6.76471 2.11057 7
    endloop
  endfacet
  facet normal 0 0 1
    outer loop
      vertex -6.2132 2.63109 7
      vertex -6.76471 2.11057 7
      vertex -6.77585 2.04499 7
    endloop
  endfacet
  facet normal 0 0 1
    outer loop
      vertex -6.14574 2.63826 7
      vertex -6.77585 2.04499 7
      vertex -6.78574 1.97486 7
    endloop
  endfacet
  facet normal 0 0 1
    outer loop
      vertex -6.07359 2.64383 7
      vertex -6.78574 1.97486 7
      vertex -6.79439 1.90013 7
    endloop
  endfacet
  facet normal 0 0 1
    outer loop
      vertex -5.99677 2.64781 7
      vertex -6.79439 1.90013 7
      vertex -6.80182 1.82085 7
    endloop
  endfacet
  facet normal 0 0 1
    outer loop
      vertex -5.91524 2.6502 7
      vertex -6.80182 1.82085 7
      vertex -6.80801 1.73699 7
    endloop
  endfacet
  facet normal 0 0 1
    outer loop
      vertex -5.82901 2.65099 7
      vertex -6.80801 1.73699 7
      vertex -2.136 0.345996 7
    endloop
  endfacet
  facet normal 0 0 1
    outer loop
      vertex -10 0 7
      vertex -6.80801 1.73699 7
      vertex -7 1.73699 7
    endloop
  endfacet
  facet normal 0 0 1
    outer loop
      vertex -2.136 0.345996 7
      vertex -10 0 7
      vertex 0 0 7
    endloop
  endfacet
  facet normal 0 0 1
    outer loop
      vertex -6.80801 1.73699 7
      vertex -10 0 7
      vertex -2.136 0.345996 7
    endloop
  endfacet
  facet normal 0 0 1
    outer loop
      vertex -7 4.57799 7
      vertex -10 0 7
      vertex -7 1.73699 7
    endloop
  endfacet
  facet normal 0 0 1
    outer loop
      vertex -2.136 5.71599 7
      vertex -0.984009 4.16899 7
      vertex -0.985046 4.28434 7
    endloop
  endfacet
  facet normal 0 0 1
    outer loop
      vertex -2.136 5.71599 7
      vertex -0.985046 4.28434 7
      vertex -0.988144 4.39405 7
    endloop
  endfacet
  facet normal 0 0 1
    outer loop
      vertex -2.03207 5.69185 7
      vertex -0.988144 4.39405 7
      vertex -0.993332 4.49817 7
    endloop
  endfacet
  facet normal 0 0 1
    outer loop
      vertex -1.9337 5.66654 7
      vertex -0.993332 4.49817 7
      vertex -1.00058 4.59667 7
    endloop
  endfacet
  facet normal 0 0 1
    outer loop
      vertex -1.8409 5.64009 7
      vertex -1.00058 4.59667 7
      vertex -1.0099 4.68955 7
    endloop
  endfacet
  facet normal 0 0 1
    outer loop
      vertex -1.75365 5.61248 7
      vertex -1.0099 4.68955 7
      vertex -1.02129 4.77683 7
    endloop
  endfacet
  facet normal 0 0 1
    outer loop
      vertex -1.67195 5.58373 7
      vertex -1.02129 4.77683 7
      vertex -1.03476 4.85849 7
    endloop
  endfacet
  facet normal 0 0 1
    outer loop
      vertex -1.59583 5.55381 7
      vertex -1.03476 4.85849 7
      vertex -1.05029 4.93454 7
    endloop
  endfacet
  facet normal 0 0 1
    outer loop
      vertex -1.52525 5.52274 7
      vertex -1.05029 4.93454 7
      vertex -1.0679 5.00498 7
    endloop
  endfacet
  facet normal 0 0 1
    outer loop
      vertex -1.46025 5.49053 7
      vertex -1.0679 5.00498 7
      vertex -1.08759 5.06981 7
    endloop
  endfacet
  facet normal 0 0 1
    outer loop
      vertex -1.4008 5.45716 7
      vertex -1.08759 5.06981 7
      vertex -1.10933 5.12902 7
    endloop
  endfacet
  facet normal 0 0 1
    outer loop
      vertex -1.34692 5.42263 7
      vertex -1.10933 5.12902 7
      vertex -1.13315 5.18262 7
    endloop
  endfacet
  facet normal 0 0 1
    outer loop
      vertex -1.2986 5.38695 7
      vertex -1.13315 5.18262 7
      vertex -1.15904 5.23061 7
    endloop
  endfacet
  facet normal 0 0 1
    outer loop
      vertex -1.25584 5.35012 7
      vertex -1.15904 5.23061 7
      vertex -1.18701 5.273 7
    endloop
  endfacet
  facet normal 0 0 1
    outer loop
      vertex -1.25584 5.35012 7
      vertex -1.18701 5.273 7
      vertex -1.21864 5.31214 7
    endloop
  endfacet
  facet normal 0 0 1
    outer loop
      vertex -1.15904 5.23061 7
      vertex -1.25584 5.35012 7
      vertex -1.2986 5.38695 7
    endloop
  endfacet
  facet normal 0 0 1
    outer loop
      vertex -1.13315 5.18262 7
      vertex -1.2986 5.38695 7
      vertex -1.34692 5.42263 7
    endloop
  endfacet
  facet normal 0 0 1
    outer loop
      vertex -1.10933 5.12902 7
      vertex -1.34692 5.42263 7
      vertex -1.4008 5.45716 7
    endloop
  endfacet
  facet normal 0 0 1
    outer loop
      vertex -1.08759 5.06981 7
      vertex -1.4008 5.45716 7
      vertex -1.46025 5.49053 7
    endloop
  endfacet
  facet normal 0 0 1
    outer loop
      vertex -1.0679 5.00498 7
      vertex -1.46025 5.49053 7
      vertex -1.52525 5.52274 7
    endloop
  endfacet
  facet normal 0 0 1
    outer loop
      vertex -1.05029 4.93454 7
      vertex -1.52525 5.52274 7
      vertex -1.59583 5.55381 7
    endloop
  endfacet
  facet normal 0 0 1
    outer loop
      vertex -1.03476 4.85849 7
      vertex -1.59583 5.55381 7
      vertex -1.67195 5.58373 7
    endloop
  endfacet
  facet normal 0 0 1
    outer loop
      vertex -1.02129 4.77683 7
      vertex -1.67195 5.58373 7
      vertex -1.75365 5.61248 7
    endloop
  endfacet
  facet normal 0 0 1
    outer loop
      vertex -1.0099 4.68955 7
      vertex -1.75365 5.61248 7
      vertex -1.8409 5.64009 7
    endloop
  endfacet
  facet normal 0 0 1
    outer loop
      vertex -1.00058 4.59667 7
      vertex -1.8409 5.64009 7
      vertex -1.9337 5.66654 7
    endloop
  endfacet
  facet normal 0 0 1
    outer loop
      vertex -0.993332 4.49817 7
      vertex -1.9337 5.66654 7
      vertex -2.03207 5.69185 7
    endloop
  endfacet
  facet normal 0 0 1
    outer loop
      vertex -0.988144 4.39405 7
      vertex -2.03207 5.69185 7
      vertex -2.136 5.71599 7
    endloop
  endfacet
  facet normal 0 0 1
    outer loop
      vertex -0.984009 4.16899 7
      vertex -2.136 5.71599 7
      vertex -0.984009 3.64398 7
    endloop
  endfacet
  facet normal 0 0 1
    outer loop
      vertex -0.984009 3.64398 7
      vertex -2.136 5.71599 7
      vertex -5.936 3.64398 7
    endloop
  endfacet
  facet normal -1 0 0
    outer loop
      vertex -10 0 2.84549
      vertex -10 6.363 7
      vertex -10 6.363 2.84549
    endloop
  endfacet
  facet normal -1 -0 0
    outer loop
      vertex -10 6.363 7
      vertex -10 0 2.84549
      vertex -10 0 7
    endloop
  endfacet
  facet normal -1 0 0
    outer loop
      vertex -10 0 0
      vertex -10 6.363 1.15451
      vertex -10 6.363 0
    endloop
  endfacet
  facet normal -1 -0 0
    outer loop
      vertex -10 6.363 1.15451
      vertex -10 0 0
      vertex -10 0 1.15451
    endloop
  endfacet
  facet normal 0 1 -0
    outer loop
      vertex -9.57612 6.363 2.38268
      vertex -10 6.363 7
      vertex 0 6.363 7
    endloop
  endfacet
  facet normal 0 1 0
    outer loop
      vertex -10 6.363 7
      vertex -9.79289 6.363 2.70711
      vertex -10 6.363 2.84549
    endloop
  endfacet
  facet normal 0 1 0
    outer loop
      vertex -10 6.363 7
      vertex -9.57612 6.363 2.38268
      vertex -9.79289 6.363 2.70711
    endloop
  endfacet
  facet normal 0 1 -0
    outer loop
      vertex 0 6.363 0
      vertex -9.57612 6.363 2.38268
      vertex 0 6.363 7
    endloop
  endfacet
  facet normal 0 1 0
    outer loop
      vertex -9.57612 6.363 2.38268
      vertex 0 6.363 0
      vertex -9.5 6.363 2
    endloop
  endfacet
  facet normal 0 1 0
    outer loop
      vertex -9.5 6.363 2
      vertex 0 6.363 0
      vertex -9.57612 6.363 1.61732
    endloop
  endfacet
  facet normal 0 1 0
    outer loop
      vertex -10 6.363 0
      vertex -9.57612 6.363 1.61732
      vertex 0 6.363 0
    endloop
  endfacet
  facet normal 0 1 0
    outer loop
      vertex -9.57612 6.363 1.61732
      vertex -10 6.363 0
      vertex -9.79289 6.363 1.29289
    endloop
  endfacet
  facet normal 0 1 0
    outer loop
      vertex -9.79289 6.363 1.29289
      vertex -10 6.363 0
      vertex -10 6.363 1.15451
    endloop
  endfacet
  facet normal 0 0 -1
    outer loop
      vertex -10 0 0
      vertex 0 6.363 0
      vertex 0 0 0
    endloop
  endfacet
  facet normal -0 0 -1
    outer loop
      vertex 0 6.363 0
      vertex -10 0 0
      vertex -10 6.363 0
    endloop
  endfacet
  facet normal 0 -1 0
    outer loop
      vertex -9.79289 0 2.70711
      vertex -10 0 7
      vertex -10 0 2.84549
    endloop
  endfacet
  facet normal 0 -1 0
    outer loop
      vertex -9.57612 0 2.38268
      vertex -10 0 7
      vertex -9.79289 0 2.70711
    endloop
  endfacet
  facet normal 0 -1 0
    outer loop
      vertex -10 0 7
      vertex -9.57612 0 2.38268
      vertex 0 0 7
    endloop
  endfacet
  facet normal 0 -1 0
    outer loop
      vertex 0 0 0
      vertex -9.57612 0 2.38268
      vertex -9.5 0 2
    endloop
  endfacet
  facet normal 0 -1 0
    outer loop
      vertex 0 0 0
      vertex -9.5 0 2
      vertex -9.57612 0 1.61732
    endloop
  endfacet
  facet normal 0 -1 0
    outer loop
      vertex -10 0 0
      vertex -9.57612 0 1.61732
      vertex -9.79289 0 1.29289
    endloop
  endfacet
  facet normal 0 -1 0
    outer loop
      vertex -10 0 0
      vertex -9.79289 0 1.29289
      vertex -10 0 1.15451
    endloop
  endfacet
  facet normal 0 -1 -0
    outer loop
      vertex -9.57612 0 1.61732
      vertex -10 0 0
      vertex 0 0 0
    endloop
  endfacet
  facet normal 0 -1 0
    outer loop
      vertex -9.57612 0 2.38268
      vertex 0 0 0
      vertex 0 0 7
    endloop
  endfacet
  facet normal -0.831478 0 -0.555557
    outer loop
      vertex -9.57612 0 2.38268
      vertex -9.79289 6.363 2.70711
      vertex -9.57612 6.363 2.38268
    endloop
  endfacet
  facet normal -0.831478 -0 -0.555557
    outer loop
      vertex -9.79289 6.363 2.70711
      vertex -9.57612 0 2.38268
      vertex -9.79289 0 2.70711
    endloop
  endfacet
  facet normal -0.555552 0 -0.831482
    outer loop
      vertex -10 0 2.84549
      vertex -9.79289 6.363 2.70711
      vertex -9.79289 0 2.70711
    endloop
  endfacet
  facet normal -0.555552 0 -0.831482
    outer loop
      vertex -9.79289 6.363 2.70711
      vertex -10 0 2.84549
      vertex -10 6.363 2.84549
    endloop
  endfacet
  facet normal -0.831478 0 0.555557
    outer loop
      vertex -9.79289 0 1.29289
      vertex -9.57612 6.363 1.61732
      vertex -9.79289 6.363 1.29289
    endloop
  endfacet
  facet normal -0.831478 0 0.555557
    outer loop
      vertex -9.57612 6.363 1.61732
      vertex -9.79289 0 1.29289
      vertex -9.57612 0 1.61732
    endloop
  endfacet
  facet normal -0.980785 0 -0.195091
    outer loop
      vertex -9.5 0 2
      vertex -9.57612 6.363 2.38268
      vertex -9.5 6.363 2
    endloop
  endfacet
  facet normal -0.980785 -0 -0.195091
    outer loop
      vertex -9.57612 6.363 2.38268
      vertex -9.5 0 2
      vertex -9.57612 0 2.38268
    endloop
  endfacet
  facet normal -0.980785 0 0.195091
    outer loop
      vertex -9.57612 0 1.61732
      vertex -9.5 6.363 2
      vertex -9.57612 6.363 1.61732
    endloop
  endfacet
  facet normal -0.980785 0 0.195091
    outer loop
      vertex -9.5 6.363 2
      vertex -9.57612 0 1.61732
      vertex -9.5 0 2
    endloop
  endfacet
  facet normal -0.555552 0 0.831482
    outer loop
      vertex -10 6.363 1.15451
      vertex -9.79289 0 1.29289
      vertex -9.79289 6.363 1.29289
    endloop
  endfacet
  facet normal -0.555552 0 0.831482
    outer loop
      vertex -9.79289 0 1.29289
      vertex -10 6.363 1.15451
      vertex -10 0 1.15451
    endloop
  endfacet
  facet normal 0 0 1
    outer loop
      vertex -0.984009 3.64398 7.499
      vertex -5.82901 2.65099 7.499
      vertex -0.984009 2.65099 7.499
    endloop
  endfacet
  facet normal -0 0 1
    outer loop
      vertex -5.936 3.64398 7.499
      vertex -5.82901 2.65099 7.499
      vertex -0.984009 3.64398 7.499
    endloop
  endfacet
  facet normal 0 0 1
    outer loop
      vertex -5.82901 2.65099 7.499
      vertex -5.936 3.64398 7.499
      vertex -5.91524 2.6502 7.499
    endloop
  endfacet
  facet normal 0 0 1
    outer loop
      vertex -5.936 3.64398 7.499
      vertex -5.99677 2.64781 7.499
      vertex -5.91524 2.6502 7.499
    endloop
  endfacet
  facet normal 0 0 1
    outer loop
      vertex -6.01022 3.64484 7.499
      vertex -5.99677 2.64781 7.499
      vertex -5.936 3.64398 7.499
    endloop
  endfacet
  facet normal 0 0 1
    outer loop
      vertex -6.01022 3.64484 7.499
      vertex -6.07359 2.64383 7.499
      vertex -5.99677 2.64781 7.499
    endloop
  endfacet
  facet normal 0 0 1
    outer loop
      vertex -6.08058 3.64736 7.499
      vertex -6.07359 2.64383 7.499
      vertex -6.01022 3.64484 7.499
    endloop
  endfacet
  facet normal 0 0 1
    outer loop
      vertex -6.08058 3.64736 7.499
      vertex -6.14574 2.63826 7.499
      vertex -6.07359 2.64383 7.499
    endloop
  endfacet
  facet normal 0 0 1
    outer loop
      vertex -6.14708 3.65157 7.499
      vertex -6.14574 2.63826 7.499
      vertex -6.08058 3.64736 7.499
    endloop
  endfacet
  facet normal 0 0 1
    outer loop
      vertex -6.20972 3.65746 7.499
      vertex -6.14574 2.63826 7.499
      vertex -6.14708 3.65157 7.499
    endloop
  endfacet
  facet normal 0 0 1
    outer loop
      vertex -6.20972 3.65746 7.499
      vertex -6.2132 2.63109 7.499
      vertex -6.14574 2.63826 7.499
    endloop
  endfacet
  facet normal 0 0 1
    outer loop
      vertex -6.26851 3.66504 7.499
      vertex -6.2132 2.63109 7.499
      vertex -6.20972 3.65746 7.499
    endloop
  endfacet
  facet normal 0 0 1
    outer loop
      vertex -6.26851 3.66504 7.499
      vertex -6.27594 2.62233 7.499
      vertex -6.2132 2.63109 7.499
    endloop
  endfacet
  facet normal 0 0 1
    outer loop
      vertex -6.32344 3.6743 7.499
      vertex -6.27594 2.62233 7.499
      vertex -6.26851 3.66504 7.499
    endloop
  endfacet
  facet normal 0 0 1
    outer loop
      vertex -6.32344 3.6743 7.499
      vertex -6.33401 2.61199 7.499
      vertex -6.27594 2.62233 7.499
    endloop
  endfacet
  facet normal 0 0 1
    outer loop
      vertex -6.37451 3.68524 7.499
      vertex -6.33401 2.61199 7.499
      vertex -6.32344 3.6743 7.499
    endloop
  endfacet
  facet normal 0 0 1
    outer loop
      vertex -6.37451 3.68524 7.499
      vertex -6.38737 2.60005 7.499
      vertex -6.33401 2.61199 7.499
    endloop
  endfacet
  facet normal 0 0 1
    outer loop
      vertex -6.42172 3.69786 7.499
      vertex -6.38737 2.60005 7.499
      vertex -6.37451 3.68524 7.499
    endloop
  endfacet
  facet normal 0 0 1
    outer loop
      vertex -6.42172 3.69786 7.499
      vertex -6.43605 2.58652 7.499
      vertex -6.38737 2.60005 7.499
    endloop
  endfacet
  facet normal 0 0 1
    outer loop
      vertex -6.46507 3.71218 7.499
      vertex -6.43605 2.58652 7.499
      vertex -6.42172 3.69786 7.499
    endloop
  endfacet
  facet normal 0 0 1
    outer loop
      vertex -6.46507 3.71218 7.499
      vertex -6.48003 2.5714 7.499
      vertex -6.43605 2.58652 7.499
    endloop
  endfacet
  facet normal 0 0 1
    outer loop
      vertex -6.50458 3.72818 7.499
      vertex -6.48003 2.5714 7.499
      vertex -6.46507 3.71218 7.499
    endloop
  endfacet
  facet normal 0 0 1
    outer loop
      vertex -6.50458 3.72818 7.499
      vertex -6.51932 2.55469 7.499
      vertex -6.48003 2.5714 7.499
    endloop
  endfacet
  facet normal 0 0 1
    outer loop
      vertex -6.54022 3.74585 7.499
      vertex -6.51932 2.55469 7.499
      vertex -6.50458 3.72818 7.499
    endloop
  endfacet
  facet normal 0 0 1
    outer loop
      vertex -6.54022 3.74585 7.499
      vertex -6.55391 2.53638 7.499
      vertex -6.51932 2.55469 7.499
    endloop
  endfacet
  facet normal 0 0 1
    outer loop
      vertex -6.57201 3.76522 7.499
      vertex -6.55391 2.53638 7.499
      vertex -6.54022 3.74585 7.499
    endloop
  endfacet
  facet normal 0 0 1
    outer loop
      vertex -6.57201 3.76522 7.499
      vertex -6.5838 2.51648 7.499
      vertex -6.55391 2.53638 7.499
    endloop
  endfacet
  facet normal 0 0 1
    outer loop
      vertex -6.59993 3.78626 7.499
      vertex -6.5838 2.51648 7.499
      vertex -6.57201 3.76522 7.499
    endloop
  endfacet
  facet normal 0 0 1
    outer loop
      vertex -6.59993 3.78626 7.499
      vertex -6.60901 2.495 7.499
      vertex -6.5838 2.51648 7.499
    endloop
  endfacet
  facet normal 0 0 1
    outer loop
      vertex -6.62401 3.80899 7.499
      vertex -6.60901 2.495 7.499
      vertex -6.59993 3.78626 7.499
    endloop
  endfacet
  facet normal 0 0 1
    outer loop
      vertex -6.62401 3.80899 7.499
      vertex -6.63124 2.47057 7.499
      vertex -6.60901 2.495 7.499
    endloop
  endfacet
  facet normal 0 0 1
    outer loop
      vertex -6.64551 3.83493 7.499
      vertex -6.63124 2.47057 7.499
      vertex -6.62401 3.80899 7.499
    endloop
  endfacet
  facet normal 0 0 1
    outer loop
      vertex -6.64551 3.83493 7.499
      vertex -6.65225 2.44156 7.499
      vertex -6.63124 2.47057 7.499
    endloop
  endfacet
  facet normal 0 0 1
    outer loop
      vertex -6.66573 3.86534 7.499
      vertex -6.65225 2.44156 7.499
      vertex -6.64551 3.83493 7.499
    endloop
  endfacet
  facet normal 0 0 1
    outer loop
      vertex -6.66573 3.86534 7.499
      vertex -6.67203 2.40799 7.499
      vertex -6.65225 2.44156 7.499
    endloop
  endfacet
  facet normal 0 0 1
    outer loop
      vertex -6.68465 3.9002 7.499
      vertex -6.67203 2.40799 7.499
      vertex -6.66573 3.86534 7.499
    endloop
  endfacet
  facet normal 0 0 1
    outer loop
      vertex -6.68465 3.9002 7.499
      vertex -6.69055 2.36985 7.499
      vertex -6.67203 2.40799 7.499
    endloop
  endfacet
  facet normal 0 0 1
    outer loop
      vertex -6.70229 3.93952 7.499
      vertex -6.69055 2.36985 7.499
      vertex -6.68465 3.9002 7.499
    endloop
  endfacet
  facet normal 0 0 1
    outer loop
      vertex -6.70229 3.93952 7.499
      vertex -6.70786 2.32714 7.499
      vertex -6.69055 2.36985 7.499
    endloop
  endfacet
  facet normal 0 0 1
    outer loop
      vertex -6.71864 3.98331 7.499
      vertex -6.70786 2.32714 7.499
      vertex -6.70229 3.93952 7.499
    endloop
  endfacet
  facet normal 0 0 1
    outer loop
      vertex -7 1.73699 7.499
      vertex -6.70786 2.32714 7.499
      vertex -6.71864 3.98331 7.499
    endloop
  endfacet
  facet normal 0 0 1
    outer loop
      vertex -7 4.57799 7.499
      vertex -6.71864 3.98331 7.499
      vertex -6.73372 4.03154 7.499
    endloop
  endfacet
  facet normal 0 0 1
    outer loop
      vertex -6.70786 2.32714 7.499
      vertex -7 1.73699 7.499
      vertex -6.72392 2.27985 7.499
    endloop
  endfacet
  facet normal 0 0 1
    outer loop
      vertex -7 4.57799 7.499
      vertex -6.73372 4.03154 7.499
      vertex -6.74751 4.08425 7.499
    endloop
  endfacet
  facet normal 0 0 1
    outer loop
      vertex -6.72392 2.27985 7.499
      vertex -7 1.73699 7.499
      vertex -6.73875 2.228 7.499
    endloop
  endfacet
  facet normal 0 0 1
    outer loop
      vertex -7 4.57799 7.499
      vertex -6.74751 4.08425 7.499
      vertex -6.76001 4.14141 7.499
    endloop
  endfacet
  facet normal 0 0 1
    outer loop
      vertex -6.73875 2.228 7.499
      vertex -7 1.73699 7.499
      vertex -6.75235 2.17156 7.499
    endloop
  endfacet
  facet normal 0 0 1
    outer loop
      vertex -7 4.57799 7.499
      vertex -6.76001 4.14141 7.499
      vertex -6.77122 4.20302 7.499
    endloop
  endfacet
  facet normal 0 0 1
    outer loop
      vertex -6.75235 2.17156 7.499
      vertex -7 1.73699 7.499
      vertex -6.76471 2.11057 7.499
    endloop
  endfacet
  facet normal 0 0 1
    outer loop
      vertex -7 4.57799 7.499
      vertex -6.77122 4.20302 7.499
      vertex -6.78114 4.26909 7.499
    endloop
  endfacet
  facet normal 0 0 1
    outer loop
      vertex -6.76471 2.11057 7.499
      vertex -7 1.73699 7.499
      vertex -6.77585 2.04499 7.499
    endloop
  endfacet
  facet normal 0 0 1
    outer loop
      vertex -7 4.57799 7.499
      vertex -6.78114 4.26909 7.499
      vertex -6.78979 4.33963 7.499
    endloop
  endfacet
  facet normal 0 0 1
    outer loop
      vertex -6.77585 2.04499 7.499
      vertex -7 1.73699 7.499
      vertex -6.78574 1.97486 7.499
    endloop
  endfacet
  facet normal 0 0 1
    outer loop
      vertex -7 4.57799 7.499
      vertex -6.78979 4.33963 7.499
      vertex -6.79715 4.41463 7.499
    endloop
  endfacet
  facet normal 0 0 1
    outer loop
      vertex -6.78574 1.97486 7.499
      vertex -7 1.73699 7.499
      vertex -6.79439 1.90013 7.499
    endloop
  endfacet
  facet normal 0 0 1
    outer loop
      vertex -7 4.57799 7.499
      vertex -6.79715 4.41463 7.499
      vertex -6.80322 4.49408 7.499
    endloop
  endfacet
  facet normal -0 0 1
    outer loop
      vertex -7 4.57799 7.499
      vertex -6.80322 4.49408 7.499
      vertex -6.80801 4.57799 7.499
    endloop
  endfacet
  facet normal 0 0 1
    outer loop
      vertex -6.71864 3.98331 7.499
      vertex -7 4.57799 7.499
      vertex -7 1.73699 7.499
    endloop
  endfacet
  facet normal 0 0 1
    outer loop
      vertex -6.79439 1.90013 7.499
      vertex -7 1.73699 7.499
      vertex -6.80182 1.82085 7.499
    endloop
  endfacet
  facet normal 0 0 1
    outer loop
      vertex -6.80182 1.82085 7.499
      vertex -7 1.73699 7.499
      vertex -6.80801 1.73699 7.499
    endloop
  endfacet
  facet normal 0 0 1
    outer loop
      vertex -0.984009 3.64398 7.499
      vertex -0.536011 5.89099 7.499
      vertex -0.984009 4.16899 7.499
    endloop
  endfacet
  facet normal 0 0 1
    outer loop
      vertex -0.536011 5.89099 7.499
      vertex -0.985046 4.28434 7.499
      vertex -0.984009 4.16899 7.499
    endloop
  endfacet
  facet normal 0 0 1
    outer loop
      vertex -0.536011 5.89099 7.499
      vertex -0.988144 4.39405 7.499
      vertex -0.985046 4.28434 7.499
    endloop
  endfacet
  facet normal 0 0 1
    outer loop
      vertex -0.536011 5.89099 7.499
      vertex -0.993332 4.49817 7.499
      vertex -0.988144 4.39405 7.499
    endloop
  endfacet
  facet normal 0 0 1
    outer loop
      vertex -0.536011 5.89099 7.499
      vertex -1.00058 4.59667 7.499
      vertex -0.993332 4.49817 7.499
    endloop
  endfacet
  facet normal 0 0 1
    outer loop
      vertex -0.536011 5.89099 7.499
      vertex -1.0099 4.68955 7.499
      vertex -1.00058 4.59667 7.499
    endloop
  endfacet
  facet normal 0 0 1
    outer loop
      vertex -0.536011 5.89099 7.499
      vertex -1.02129 4.77683 7.499
      vertex -1.0099 4.68955 7.499
    endloop
  endfacet
  facet normal 0 0 1
    outer loop
      vertex -0.536011 5.89099 7.499
      vertex -1.03476 4.85849 7.499
      vertex -1.02129 4.77683 7.499
    endloop
  endfacet
  facet normal 0 0 1
    outer loop
      vertex -0.536011 5.89099 7.499
      vertex -1.05029 4.93454 7.499
      vertex -1.03476 4.85849 7.499
    endloop
  endfacet
  facet normal 0 0 1
    outer loop
      vertex -0.536011 5.89099 7.499
      vertex -1.0679 5.00498 7.499
      vertex -1.05029 4.93454 7.499
    endloop
  endfacet
  facet normal 0 0 1
    outer loop
      vertex -0.536011 5.89099 7.499
      vertex -1.08759 5.06981 7.499
      vertex -1.0679 5.00498 7.499
    endloop
  endfacet
  facet normal 0 0 1
    outer loop
      vertex -0.536011 5.89099 7.499
      vertex -1.10933 5.12902 7.499
      vertex -1.08759 5.06981 7.499
    endloop
  endfacet
  facet normal 0 0 1
    outer loop
      vertex -0.536011 5.89099 7.499
      vertex -1.13315 5.18262 7.499
      vertex -1.10933 5.12902 7.499
    endloop
  endfacet
  facet normal 0 0 1
    outer loop
      vertex -0.536011 5.89099 7.499
      vertex -1.15904 5.23061 7.499
      vertex -1.13315 5.18262 7.499
    endloop
  endfacet
  facet normal 0 0 1
    outer loop
      vertex -0.536011 5.89099 7.499
      vertex -1.18701 5.273 7.499
      vertex -1.15904 5.23061 7.499
    endloop
  endfacet
  facet normal 0 0 1
    outer loop
      vertex -0.536011 5.89099 7.499
      vertex -1.21864 5.31214 7.499
      vertex -1.18701 5.273 7.499
    endloop
  endfacet
  facet normal 0 0 1
    outer loop
      vertex -0.536011 5.89099 7.499
      vertex -1.25584 5.35012 7.499
      vertex -1.21864 5.31214 7.499
    endloop
  endfacet
  facet normal 0 0 1
    outer loop
      vertex -0.536011 5.89099 7.499
      vertex -1.2986 5.38695 7.499
      vertex -1.25584 5.35012 7.499
    endloop
  endfacet
  facet normal 0 0 1
    outer loop
      vertex -0.536011 5.89099 7.499
      vertex -1.34692 5.42263 7.499
      vertex -1.2986 5.38695 7.499
    endloop
  endfacet
  facet normal 0 0 1
    outer loop
      vertex -0.536011 5.89099 7.499
      vertex -1.4008 5.45716 7.499
      vertex -1.34692 5.42263 7.499
    endloop
  endfacet
  facet normal 0 0 1
    outer loop
      vertex -0.536011 5.89099 7.499
      vertex -1.46025 5.49053 7.499
      vertex -1.4008 5.45716 7.499
    endloop
  endfacet
  facet normal 0 0 1
    outer loop
      vertex -0.536011 5.89099 7.499
      vertex -1.52525 5.52274 7.499
      vertex -1.46025 5.49053 7.499
    endloop
  endfacet
  facet normal 0 0 1
    outer loop
      vertex -0.536011 5.89099 7.499
      vertex -1.59583 5.55381 7.499
      vertex -1.52525 5.52274 7.499
    endloop
  endfacet
  facet normal 0 0 1
    outer loop
      vertex -0.536011 5.89099 7.499
      vertex -1.67195 5.58373 7.499
      vertex -1.59583 5.55381 7.499
    endloop
  endfacet
  facet normal 0 0 1
    outer loop
      vertex -2.136 5.94899 7.499
      vertex -1.67195 5.58373 7.499
      vertex -0.536011 5.89099 7.499
    endloop
  endfacet
  facet normal 0 0 1
    outer loop
      vertex -1.67195 5.58373 7.499
      vertex -2.136 5.94899 7.499
      vertex -1.75365 5.61248 7.499
    endloop
  endfacet
  facet normal 0 0 1
    outer loop
      vertex -1.75365 5.61248 7.499
      vertex -2.136 5.94899 7.499
      vertex -1.8409 5.64009 7.499
    endloop
  endfacet
  facet normal 0 0 1
    outer loop
      vertex -1.8409 5.64009 7.499
      vertex -2.136 5.94899 7.499
      vertex -1.9337 5.66654 7.499
    endloop
  endfacet
  facet normal 0 0 1
    outer loop
      vertex -1.9337 5.66654 7.499
      vertex -2.136 5.94899 7.499
      vertex -2.03207 5.69185 7.499
    endloop
  endfacet
  facet normal 0 0 1
    outer loop
      vertex -2.03207 5.69185 7.499
      vertex -2.136 5.94899 7.499
      vertex -2.136 5.71599 7.499
    endloop
  endfacet
  facet normal 0 0 1
    outer loop
      vertex -0.536011 5.89099 7.499
      vertex -0.984009 3.64398 7.499
      vertex -0.536011 0.403995 7.499
    endloop
  endfacet
  facet normal -0 0 1
    outer loop
      vertex -0.984009 2.65099 7.499
      vertex -0.536011 0.403995 7.499
      vertex -0.984009 3.64398 7.499
    endloop
  endfacet
  facet normal -0 0 1
    outer loop
      vertex -0.984009 2.12599 7.499
      vertex -0.536011 0.403995 7.499
      vertex -0.984009 2.65099 7.499
    endloop
  endfacet
  facet normal -0 0 1
    outer loop
      vertex -0.985062 2.01203 7.499
      vertex -0.536011 0.403995 7.499
      vertex -0.984009 2.12599 7.499
    endloop
  endfacet
  facet normal -0 0 1
    outer loop
      vertex -0.988235 1.90357 7.499
      vertex -0.536011 0.403995 7.499
      vertex -0.985062 2.01203 7.499
    endloop
  endfacet
  facet normal -0 0 1
    outer loop
      vertex -0.993515 1.8006 7.499
      vertex -0.536011 0.403995 7.499
      vertex -0.988235 1.90357 7.499
    endloop
  endfacet
  facet normal -0 0 1
    outer loop
      vertex -1.0009 1.70313 7.499
      vertex -0.536011 0.403995 7.499
      vertex -0.993515 1.8006 7.499
    endloop
  endfacet
  facet normal -0 0 1
    outer loop
      vertex -1.01041 1.61116 7.499
      vertex -0.536011 0.403995 7.499
      vertex -1.0009 1.70313 7.499
    endloop
  endfacet
  facet normal -0 0 1
    outer loop
      vertex -1.02203 1.52471 7.499
      vertex -0.536011 0.403995 7.499
      vertex -1.01041 1.61116 7.499
    endloop
  endfacet
  facet normal -0 0 1
    outer loop
      vertex -1.03575 1.44374 7.499
      vertex -0.536011 0.403995 7.499
      vertex -1.02203 1.52471 7.499
    endloop
  endfacet
  facet normal -0 0 1
    outer loop
      vertex -1.05161 1.36827 7.499
      vertex -0.536011 0.403995 7.499
      vertex -1.03575 1.44374 7.499
    endloop
  endfacet
  facet normal -0 0 1
    outer loop
      vertex -1.06955 1.29831 7.499
      vertex -0.536011 0.403995 7.499
      vertex -1.05161 1.36827 7.499
    endloop
  endfacet
  facet normal -0 0 1
    outer loop
      vertex -1.08961 1.23384 7.499
      vertex -0.536011 0.403995 7.499
      vertex -1.06955 1.29831 7.499
    endloop
  endfacet
  facet normal -0 0 1
    outer loop
      vertex -1.1118 1.17488 7.499
      vertex -0.536011 0.403995 7.499
      vertex -1.08961 1.23384 7.499
    endloop
  endfacet
  facet normal -0 0 1
    outer loop
      vertex -1.13609 1.12142 7.499
      vertex -0.536011 0.403995 7.499
      vertex -1.1118 1.17488 7.499
    endloop
  endfacet
  facet normal -0 0 1
    outer loop
      vertex -1.16249 1.07346 7.499
      vertex -0.536011 0.403995 7.499
      vertex -1.13609 1.12142 7.499
    endloop
  endfacet
  facet normal -0 0 1
    outer loop
      vertex -1.19101 1.03099 7.499
      vertex -0.536011 0.403995 7.499
      vertex -1.16249 1.07346 7.499
    endloop
  endfacet
  facet normal -0 0 1
    outer loop
      vertex -1.22328 0.991946 7.499
      vertex -0.536011 0.403995 7.499
      vertex -1.19101 1.03099 7.499
    endloop
  endfacet
  facet normal -0 0 1
    outer loop
      vertex -1.26099 0.953937 7.499
      vertex -0.536011 0.403995 7.499
      vertex -1.22328 0.991946 7.499
    endloop
  endfacet
  facet normal -0 0 1
    outer loop
      vertex -1.30411 0.916965 7.499
      vertex -0.536011 0.403995 7.499
      vertex -1.26099 0.953937 7.499
    endloop
  endfacet
  facet normal -0 0 1
    outer loop
      vertex -1.35265 0.88103 7.499
      vertex -0.536011 0.403995 7.499
      vertex -1.30411 0.916965 7.499
    endloop
  endfacet
  facet normal -0 0 1
    outer loop
      vertex -1.4066 0.846148 7.499
      vertex -0.536011 0.403995 7.499
      vertex -1.35265 0.88103 7.499
    endloop
  endfacet
  facet normal -0 0 1
    outer loop
      vertex -1.46597 0.812304 7.499
      vertex -0.536011 0.403995 7.499
      vertex -1.4066 0.846148 7.499
    endloop
  endfacet
  facet normal -0 0 1
    outer loop
      vertex -1.53076 0.779498 7.499
      vertex -0.536011 0.403995 7.499
      vertex -1.46597 0.812304 7.499
    endloop
  endfacet
  facet normal -0 0 1
    outer loop
      vertex -1.60097 0.747729 7.499
      vertex -0.536011 0.403995 7.499
      vertex -1.53076 0.779498 7.499
    endloop
  endfacet
  facet normal -0 0 1
    outer loop
      vertex -1.67659 0.716998 7.499
      vertex -0.536011 0.403995 7.499
      vertex -1.60097 0.747729 7.499
    endloop
  endfacet
  facet normal 0 0 1
    outer loop
      vertex -2.136 0.345996 7.499
      vertex -1.67659 0.716998 7.499
      vertex -1.75764 0.68732 7.499
    endloop
  endfacet
  facet normal 0 0 1
    outer loop
      vertex -2.136 0.345996 7.499
      vertex -1.75764 0.68732 7.499
      vertex -1.8441 0.658679 7.499
    endloop
  endfacet
  facet normal 0 0 1
    outer loop
      vertex -2.136 0.345996 7.499
      vertex -1.8441 0.658679 7.499
      vertex -1.93599 0.631076 7.499
    endloop
  endfacet
  facet normal 0 0 1
    outer loop
      vertex -2.136 0.345996 7.499
      vertex -1.93599 0.631076 7.499
      vertex -2.03329 0.60451 7.499
    endloop
  endfacet
  facet normal 0 0 1
    outer loop
      vertex -2.136 0.345996 7.499
      vertex -2.03329 0.60451 7.499
      vertex -2.136 0.578998 7.499
    endloop
  endfacet
  facet normal 0 0 1
    outer loop
      vertex -1.67659 0.716998 7.499
      vertex -2.136 0.345996 7.499
      vertex -0.536011 0.403995 7.499
    endloop
  endfacet
  facet normal 0.998375 0.0569922 0
    outer loop
      vertex -6.80322 4.49408 7.499
      vertex -6.80801 4.57799 7
      vertex -6.80801 4.57799 7.499
    endloop
  endfacet
  facet normal 0.998375 0.0569922 0
    outer loop
      vertex -6.80801 4.57799 7
      vertex -6.80322 4.49408 7.499
      vertex -6.80322 4.49408 7
    endloop
  endfacet
  facet normal 0.997094 0.0761782 0
    outer loop
      vertex -6.79715 4.41463 7.499
      vertex -6.80322 4.49408 7
      vertex -6.80322 4.49408 7.499
    endloop
  endfacet
  facet normal 0.997094 0.0761782 0
    outer loop
      vertex -6.80322 4.49408 7
      vertex -6.79715 4.41463 7.499
      vertex -6.79715 4.41463 7
    endloop
  endfacet
  facet normal 0.995219 0.0976642 0
    outer loop
      vertex -6.78979 4.33963 7.499
      vertex -6.79715 4.41463 7
      vertex -6.79715 4.41463 7.499
    endloop
  endfacet
  facet normal 0.995219 0.0976642 0
    outer loop
      vertex -6.79715 4.41463 7
      vertex -6.78979 4.33963 7.499
      vertex -6.78979 4.33963 7
    endloop
  endfacet
  facet normal 0.992565 0.121714 0
    outer loop
      vertex -6.78114 4.26909 7.499
      vertex -6.78979 4.33963 7
      vertex -6.78979 4.33963 7.499
    endloop
  endfacet
  facet normal 0.992565 0.121714 0
    outer loop
      vertex -6.78979 4.33963 7
      vertex -6.78114 4.26909 7.499
      vertex -6.78114 4.26909 7
    endloop
  endfacet
  facet normal 0.988915 0.14848 0
    outer loop
      vertex -6.77122 4.20302 7.499
      vertex -6.78114 4.26909 7
      vertex -6.78114 4.26909 7.499
    endloop
  endfacet
  facet normal 0.988915 0.14848 0
    outer loop
      vertex -6.78114 4.26909 7
      vertex -6.77122 4.20302 7.499
      vertex -6.77122 4.20302 7
    endloop
  endfacet
  facet normal 0.983847 0.179012 0
    outer loop
      vertex -6.76001 4.14141 7.499
      vertex -6.77122 4.20302 7
      vertex -6.77122 4.20302 7.499
    endloop
  endfacet
  facet normal 0.983847 0.179012 0
    outer loop
      vertex -6.77122 4.20302 7
      vertex -6.76001 4.14141 7.499
      vertex -6.76001 4.14141 7
    endloop
  endfacet
  facet normal 0.976913 0.213636 0
    outer loop
      vertex -6.74751 4.08425 7.499
      vertex -6.76001 4.14141 7
      vertex -6.76001 4.14141 7.499
    endloop
  endfacet
  facet normal 0.976913 0.213636 0
    outer loop
      vertex -6.76001 4.14141 7
      vertex -6.74751 4.08425 7.499
      vertex -6.74751 4.08425 7
    endloop
  endfacet
  facet normal 0.96744 0.253102 0
    outer loop
      vertex -6.73372 4.03154 7.499
      vertex -6.74751 4.08425 7
      vertex -6.74751 4.08425 7.499
    endloop
  endfacet
  facet normal 0.96744 0.253102 0
    outer loop
      vertex -6.74751 4.08425 7
      vertex -6.73372 4.03154 7.499
      vertex -6.73372 4.03154 7
    endloop
  endfacet
  facet normal 0.954434 0.298421 0
    outer loop
      vertex -6.71864 3.98331 7.499
      vertex -6.73372 4.03154 7
      vertex -6.73372 4.03154 7.499
    endloop
  endfacet
  facet normal 0.954434 0.298421 0
    outer loop
      vertex -6.73372 4.03154 7
      vertex -6.71864 3.98331 7.499
      vertex -6.71864 3.98331 7
    endloop
  endfacet
  facet normal 0.936829 0.349787 0
    outer loop
      vertex -6.70229 3.93952 7.499
      vertex -6.71864 3.98331 7
      vertex -6.71864 3.98331 7.499
    endloop
  endfacet
  facet normal 0.936829 0.349787 0
    outer loop
      vertex -6.71864 3.98331 7
      vertex -6.70229 3.93952 7.499
      vertex -6.70229 3.93952 7
    endloop
  endfacet
  facet normal 0.91239 0.409322 0
    outer loop
      vertex -6.68465 3.9002 7.499
      vertex -6.70229 3.93952 7
      vertex -6.70229 3.93952 7.499
    endloop
  endfacet
  facet normal 0.91239 0.409322 0
    outer loop
      vertex -6.70229 3.93952 7
      vertex -6.68465 3.9002 7.499
      vertex -6.68465 3.9002 7
    endloop
  endfacet
  facet normal 0.878896 0.477014 0
    outer loop
      vertex -6.66573 3.86534 7.499
      vertex -6.68465 3.9002 7
      vertex -6.68465 3.9002 7.499
    endloop
  endfacet
  facet normal 0.878896 0.477014 0
    outer loop
      vertex -6.68465 3.9002 7
      vertex -6.66573 3.86534 7.499
      vertex -6.66573 3.86534 7
    endloop
  endfacet
  facet normal 0.832724 0.553689 0
    outer loop
      vertex -6.64551 3.83493 7.499
      vertex -6.66573 3.86534 7
      vertex -6.66573 3.86534 7.499
    endloop
  endfacet
  facet normal 0.832724 0.553689 0
    outer loop
      vertex -6.66573 3.86534 7
      vertex -6.64551 3.83493 7.499
      vertex -6.64551 3.83493 7
    endloop
  endfacet
  facet normal 0.769922 0.638139 0
    outer loop
      vertex -6.62401 3.80899 7.499
      vertex -6.64551 3.83493 7
      vertex -6.64551 3.83493 7.499
    endloop
  endfacet
  facet normal 0.769922 0.638139 0
    outer loop
      vertex -6.64551 3.83493 7
      vertex -6.62401 3.80899 7.499
      vertex -6.62401 3.80899 7
    endloop
  endfacet
  facet normal 0.686428 0.727197 -0
    outer loop
      vertex -6.59993 3.78626 7
      vertex -6.62401 3.80899 7.499
      vertex -6.59993 3.78626 7.499
    endloop
  endfacet
  facet normal 0.686428 0.727197 0
    outer loop
      vertex -6.62401 3.80899 7.499
      vertex -6.59993 3.78626 7
      vertex -6.62401 3.80899 7
    endloop
  endfacet
  facet normal 0.601829 0.798625 -0
    outer loop
      vertex -6.57201 3.76522 7
      vertex -6.59993 3.78626 7.499
      vertex -6.57201 3.76522 7.499
    endloop
  endfacet
  facet normal 0.601829 0.798625 0
    outer loop
      vertex -6.59993 3.78626 7.499
      vertex -6.57201 3.76522 7
      vertex -6.59993 3.78626 7
    endloop
  endfacet
  facet normal 0.52033 0.853965 -0
    outer loop
      vertex -6.54022 3.74585 7
      vertex -6.57201 3.76522 7.499
      vertex -6.54022 3.74585 7.499
    endloop
  endfacet
  facet normal 0.52033 0.853965 0
    outer loop
      vertex -6.57201 3.76522 7.499
      vertex -6.54022 3.74585 7
      vertex -6.57201 3.76522 7
    endloop
  endfacet
  facet normal 0.444194 0.89593 -0
    outer loop
      vertex -6.50458 3.72818 7
      vertex -6.54022 3.74585 7.499
      vertex -6.50458 3.72818 7.499
    endloop
  endfacet
  facet normal 0.444194 0.89593 0
    outer loop
      vertex -6.54022 3.74585 7.499
      vertex -6.50458 3.72818 7
      vertex -6.54022 3.74585 7
    endloop
  endfacet
  facet normal 0.375351 0.926883 -0
    outer loop
      vertex -6.46507 3.71218 7
      vertex -6.50458 3.72818 7.499
      vertex -6.46507 3.71218 7.499
    endloop
  endfacet
  facet normal 0.375351 0.926883 0
    outer loop
      vertex -6.50458 3.72818 7.499
      vertex -6.46507 3.71218 7
      vertex -6.50458 3.72818 7
    endloop
  endfacet
  facet normal 0.313664 0.949534 -0
    outer loop
      vertex -6.42172 3.69786 7
      vertex -6.46507 3.71218 7.499
      vertex -6.42172 3.69786 7.499
    endloop
  endfacet
  facet normal 0.313664 0.949534 0
    outer loop
      vertex -6.46507 3.71218 7.499
      vertex -6.42172 3.69786 7
      vertex -6.46507 3.71218 7
    endloop
  endfacet
  facet normal 0.258248 0.966079 -0
    outer loop
      vertex -6.37451 3.68524 7
      vertex -6.42172 3.69786 7.499
      vertex -6.37451 3.68524 7.499
    endloop
  endfacet
  facet normal 0.258248 0.966079 0
    outer loop
      vertex -6.42172 3.69786 7.499
      vertex -6.37451 3.68524 7
      vertex -6.42172 3.69786 7
    endloop
  endfacet
  facet normal 0.209464 0.977816 -0
    outer loop
      vertex -6.32344 3.6743 7
      vertex -6.37451 3.68524 7.499
      vertex -6.32344 3.6743 7.499
    endloop
  endfacet
  facet normal 0.209464 0.977816 0
    outer loop
      vertex -6.37451 3.68524 7.499
      vertex -6.32344 3.6743 7
      vertex -6.37451 3.68524 7
    endloop
  endfacet
  facet normal 0.166233 0.986087 -0
    outer loop
      vertex -6.26851 3.66504 7
      vertex -6.32344 3.6743 7.499
      vertex -6.26851 3.66504 7.499
    endloop
  endfacet
  facet normal 0.166233 0.986087 0
    outer loop
      vertex -6.32344 3.6743 7.499
      vertex -6.26851 3.66504 7
      vertex -6.32344 3.6743 7
    endloop
  endfacet
  facet normal 0.127875 0.99179 -0
    outer loop
      vertex -6.20972 3.65746 7
      vertex -6.26851 3.66504 7.499
      vertex -6.20972 3.65746 7.499
    endloop
  endfacet
  facet normal 0.127875 0.99179 0
    outer loop
      vertex -6.26851 3.66504 7.499
      vertex -6.20972 3.65746 7
      vertex -6.26851 3.66504 7
    endloop
  endfacet
  facet normal 0.0936164 0.995608 -0
    outer loop
      vertex -6.14708 3.65157 7
      vertex -6.20972 3.65746 7.499
      vertex -6.14708 3.65157 7.499
    endloop
  endfacet
  facet normal 0.0936164 0.995608 0
    outer loop
      vertex -6.20972 3.65746 7.499
      vertex -6.14708 3.65157 7
      vertex -6.20972 3.65746 7
    endloop
  endfacet
  facet normal 0.0631818 0.998002 -0
    outer loop
      vertex -6.08058 3.64736 7
      vertex -6.14708 3.65157 7.499
      vertex -6.08058 3.64736 7.499
    endloop
  endfacet
  facet normal 0.0631818 0.998002 0
    outer loop
      vertex -6.14708 3.65157 7.499
      vertex -6.08058 3.64736 7
      vertex -6.14708 3.65157 7
    endloop
  endfacet
  facet normal 0.0357929 0.999359 -0
    outer loop
      vertex -6.01022 3.64484 7
      vertex -6.08058 3.64736 7.499
      vertex -6.01022 3.64484 7.499
    endloop
  endfacet
  facet normal 0.0357929 0.999359 0
    outer loop
      vertex -6.08058 3.64736 7.499
      vertex -6.01022 3.64484 7
      vertex -6.08058 3.64736 7
    endloop
  endfacet
  facet normal 0.0115864 0.999933 -0
    outer loop
      vertex -5.936 3.64398 7
      vertex -6.01022 3.64484 7.499
      vertex -5.936 3.64398 7.499
    endloop
  endfacet
  facet normal 0.0115864 0.999933 0
    outer loop
      vertex -6.01022 3.64484 7.499
      vertex -5.936 3.64398 7
      vertex -6.01022 3.64484 7
    endloop
  endfacet
  facet normal 0 1 -0
    outer loop
      vertex -0.984009 3.64398 7
      vertex -5.936 3.64398 7.499
      vertex -0.984009 3.64398 7.499
    endloop
  endfacet
  facet normal 0 1 0
    outer loop
      vertex -5.936 3.64398 7.499
      vertex -0.984009 3.64398 7
      vertex -5.936 3.64398 7
    endloop
  endfacet
  facet normal -1 0 0
    outer loop
      vertex -0.984009 3.64398 7
      vertex -0.984009 4.16899 7.499
      vertex -0.984009 4.16899 7
    endloop
  endfacet
  facet normal -1 -0 0
    outer loop
      vertex -0.984009 4.16899 7.499
      vertex -0.984009 3.64398 7
      vertex -0.984009 3.64398 7.499
    endloop
  endfacet
  facet normal -0.99996 -0.00898967 0
    outer loop
      vertex -0.984009 4.16899 7
      vertex -0.985046 4.28434 7.499
      vertex -0.985046 4.28434 7
    endloop
  endfacet
  facet normal -0.99996 -0.00898967 0
    outer loop
      vertex -0.985046 4.28434 7.499
      vertex -0.984009 4.16899 7
      vertex -0.984009 4.16899 7.499
    endloop
  endfacet
  facet normal -0.999602 -0.0282268 0
    outer loop
      vertex -0.985046 4.28434 7
      vertex -0.988144 4.39405 7.499
      vertex -0.988144 4.39405 7
    endloop
  endfacet
  facet normal -0.999602 -0.0282268 0
    outer loop
      vertex -0.988144 4.39405 7.499
      vertex -0.985046 4.28434 7
      vertex -0.985046 4.28434 7.499
    endloop
  endfacet
  facet normal -0.998761 -0.0497654 0
    outer loop
      vertex -0.988144 4.39405 7
      vertex -0.993332 4.49817 7.499
      vertex -0.993332 4.49817 7
    endloop
  endfacet
  facet normal -0.998761 -0.0497654 0
    outer loop
      vertex -0.993332 4.49817 7.499
      vertex -0.988144 4.39405 7
      vertex -0.988144 4.39405 7.499
    endloop
  endfacet
  facet normal -0.997304 -0.0733853 0
    outer loop
      vertex -0.993332 4.49817 7
      vertex -1.00058 4.59667 7.499
      vertex -1.00058 4.59667 7
    endloop
  endfacet
  facet normal -0.997304 -0.0733853 0
    outer loop
      vertex -1.00058 4.59667 7.499
      vertex -0.993332 4.49817 7
      vertex -0.993332 4.49817 7.499
    endloop
  endfacet
  facet normal -0.995003 -0.0998431 0
    outer loop
      vertex -1.00058 4.59667 7
      vertex -1.0099 4.68955 7.499
      vertex -1.0099 4.68955 7
    endloop
  endfacet
  facet normal -0.995003 -0.0998431 0
    outer loop
      vertex -1.0099 4.68955 7.499
      vertex -1.00058 4.59667 7
      vertex -1.00058 4.59667 7.499
    endloop
  endfacet
  facet normal -0.991592 -0.129402 0
    outer loop
      vertex -1.0099 4.68955 7
      vertex -1.02129 4.77683 7.499
      vertex -1.02129 4.77683 7
    endloop
  endfacet
  facet normal -0.991592 -0.129402 0
    outer loop
      vertex -1.02129 4.77683 7.499
      vertex -1.0099 4.68955 7
      vertex -1.0099 4.68955 7.499
    endloop
  endfacet
  facet normal -0.986667 -0.162753 0
    outer loop
      vertex -1.02129 4.77683 7
      vertex -1.03476 4.85849 7.499
      vertex -1.03476 4.85849 7
    endloop
  endfacet
  facet normal -0.986667 -0.162753 0
    outer loop
      vertex -1.03476 4.85849 7.499
      vertex -1.02129 4.77683 7
      vertex -1.02129 4.77683 7.499
    endloop
  endfacet
  facet normal -0.97978 -0.200079 0
    outer loop
      vertex -1.03476 4.85849 7
      vertex -1.05029 4.93454 7.499
      vertex -1.05029 4.93454 7
    endloop
  endfacet
  facet normal -0.97978 -0.200079 0
    outer loop
      vertex -1.05029 4.93454 7.499
      vertex -1.03476 4.85849 7
      vertex -1.03476 4.85849 7.499
    endloop
  endfacet
  facet normal -0.970143 -0.242536 0
    outer loop
      vertex -1.05029 4.93454 7
      vertex -1.0679 5.00498 7.499
      vertex -1.0679 5.00498 7
    endloop
  endfacet
  facet normal -0.970143 -0.242536 0
    outer loop
      vertex -1.0679 5.00498 7.499
      vertex -1.05029 4.93454 7
      vertex -1.05029 4.93454 7.499
    endloop
  endfacet
  facet normal -0.956842 -0.29061 0
    outer loop
      vertex -1.0679 5.00498 7
      vertex -1.08759 5.06981 7.499
      vertex -1.08759 5.06981 7
    endloop
  endfacet
  facet normal -0.956842 -0.29061 0
    outer loop
      vertex -1.08759 5.06981 7.499
      vertex -1.0679 5.00498 7
      vertex -1.0679 5.00498 7.499
    endloop
  endfacet
  facet normal -0.938724 -0.344669 0
    outer loop
      vertex -1.08759 5.06981 7
      vertex -1.10933 5.12902 7.499
      vertex -1.10933 5.12902 7
    endloop
  endfacet
  facet normal -0.938724 -0.344669 0
    outer loop
      vertex -1.10933 5.12902 7.499
      vertex -1.08759 5.06981 7
      vertex -1.08759 5.06981 7.499
    endloop
  endfacet
  facet normal -0.913826 -0.406107 0
    outer loop
      vertex -1.10933 5.12902 7
      vertex -1.13315 5.18262 7.499
      vertex -1.13315 5.18262 7
    endloop
  endfacet
  facet normal -0.913826 -0.406107 0
    outer loop
      vertex -1.13315 5.18262 7.499
      vertex -1.10933 5.12902 7
      vertex -1.10933 5.12902 7.499
    endloop
  endfacet
  facet normal -0.880094 -0.4748 0
    outer loop
      vertex -1.13315 5.18262 7
      vertex -1.15904 5.23061 7.499
      vertex -1.15904 5.23061 7
    endloop
  endfacet
  facet normal -0.880094 -0.4748 0
    outer loop
      vertex -1.15904 5.23061 7.499
      vertex -1.13315 5.18262 7
      vertex -1.13315 5.18262 7.499
    endloop
  endfacet
  facet normal -0.834676 -0.550741 0
    outer loop
      vertex -1.15904 5.23061 7
      vertex -1.18701 5.273 7.499
      vertex -1.18701 5.273 7
    endloop
  endfacet
  facet normal -0.834676 -0.550741 0
    outer loop
      vertex -1.18701 5.273 7.499
      vertex -1.15904 5.23061 7
      vertex -1.15904 5.23061 7.499
    endloop
  endfacet
  facet normal -0.777777 -0.628541 0
    outer loop
      vertex -1.18701 5.273 7
      vertex -1.21864 5.31214 7.499
      vertex -1.21864 5.31214 7
    endloop
  endfacet
  facet normal -0.777777 -0.628541 0
    outer loop
      vertex -1.21864 5.31214 7.499
      vertex -1.18701 5.273 7
      vertex -1.18701 5.273 7.499
    endloop
  endfacet
  facet normal -0.714405 -0.699733 0
    outer loop
      vertex -1.21864 5.31214 7
      vertex -1.25584 5.35012 7.499
      vertex -1.25584 5.35012 7
    endloop
  endfacet
  facet normal -0.714405 -0.699733 0
    outer loop
      vertex -1.25584 5.35012 7.499
      vertex -1.21864 5.31214 7
      vertex -1.21864 5.31214 7.499
    endloop
  endfacet
  facet normal -0.652614 -0.757691 0
    outer loop
      vertex -1.2986 5.38695 7
      vertex -1.25584 5.35012 7.499
      vertex -1.2986 5.38695 7.499
    endloop
  endfacet
  facet normal -0.652614 -0.757691 -0
    outer loop
      vertex -1.25584 5.35012 7.499
      vertex -1.2986 5.38695 7
      vertex -1.25584 5.35012 7
    endloop
  endfacet
  facet normal -0.594017 -0.804453 0
    outer loop
      vertex -1.34692 5.42263 7
      vertex -1.2986 5.38695 7.499
      vertex -1.34692 5.42263 7.499
    endloop
  endfacet
  facet normal -0.594017 -0.804453 -0
    outer loop
      vertex -1.2986 5.38695 7.499
      vertex -1.34692 5.42263 7
      vertex -1.2986 5.38695 7
    endloop
  endfacet
  facet normal -0.539572 -0.841939 0
    outer loop
      vertex -1.4008 5.45716 7
      vertex -1.34692 5.42263 7.499
      vertex -1.4008 5.45716 7.499
    endloop
  endfacet
  facet normal -0.539572 -0.841939 -0
    outer loop
      vertex -1.34692 5.42263 7.499
      vertex -1.4008 5.45716 7
      vertex -1.34692 5.42263 7
    endloop
  endfacet
  facet normal -0.489474 -0.872018 0
    outer loop
      vertex -1.46025 5.49053 7
      vertex -1.4008 5.45716 7.499
      vertex -1.46025 5.49053 7.499
    endloop
  endfacet
  facet normal -0.489474 -0.872018 -0
    outer loop
      vertex -1.4008 5.45716 7.499
      vertex -1.46025 5.49053 7
      vertex -1.4008 5.45716 7
    endloop
  endfacet
  facet normal -0.444013 -0.896021 0
    outer loop
      vertex -1.52525 5.52274 7
      vertex -1.46025 5.49053 7.499
      vertex -1.52525 5.52274 7.499
    endloop
  endfacet
  facet normal -0.444013 -0.896021 -0
    outer loop
      vertex -1.46025 5.49053 7.499
      vertex -1.52525 5.52274 7
      vertex -1.46025 5.49053 7
    endloop
  endfacet
  facet normal -0.402899 -0.915244 0
    outer loop
      vertex -1.59583 5.55381 7
      vertex -1.52525 5.52274 7.499
      vertex -1.59583 5.55381 7.499
    endloop
  endfacet
  facet normal -0.402899 -0.915244 -0
    outer loop
      vertex -1.52525 5.52274 7.499
      vertex -1.59583 5.55381 7
      vertex -1.52525 5.52274 7
    endloop
  endfacet
  facet normal -0.365819 -0.930686 0
    outer loop
      vertex -1.67195 5.58373 7
      vertex -1.59583 5.55381 7.499
      vertex -1.67195 5.58373 7.499
    endloop
  endfacet
  facet normal -0.365819 -0.930686 -0
    outer loop
      vertex -1.59583 5.55381 7.499
      vertex -1.67195 5.58373 7
      vertex -1.59583 5.55381 7
    endloop
  endfacet
  facet normal -0.331944 -0.943299 0
    outer loop
      vertex -1.75365 5.61248 7
      vertex -1.67195 5.58373 7.499
      vertex -1.75365 5.61248 7.499
    endloop
  endfacet
  facet normal -0.331944 -0.943299 -0
    outer loop
      vertex -1.67195 5.58373 7.499
      vertex -1.75365 5.61248 7
      vertex -1.67195 5.58373 7
    endloop
  endfacet
  facet normal -0.301701 -0.953402 0
    outer loop
      vertex -1.8409 5.64009 7
      vertex -1.75365 5.61248 7.499
      vertex -1.8409 5.64009 7.499
    endloop
  endfacet
  facet normal -0.301701 -0.953402 -0
    outer loop
      vertex -1.75365 5.61248 7.499
      vertex -1.8409 5.64009 7
      vertex -1.75365 5.61248 7
    endloop
  endfacet
  facet normal -0.274105 -0.9617 0
    outer loop
      vertex -1.9337 5.66654 7
      vertex -1.8409 5.64009 7.499
      vertex -1.9337 5.66654 7.499
    endloop
  endfacet
  facet normal -0.274105 -0.9617 -0
    outer loop
      vertex -1.8409 5.64009 7.499
      vertex -1.9337 5.66654 7
      vertex -1.8409 5.64009 7
    endloop
  endfacet
  facet normal -0.249178 -0.968458 0
    outer loop
      vertex -2.03207 5.69185 7
      vertex -1.9337 5.66654 7.499
      vertex -2.03207 5.69185 7.499
    endloop
  endfacet
  facet normal -0.249178 -0.968458 -0
    outer loop
      vertex -1.9337 5.66654 7.499
      vertex -2.03207 5.69185 7
      vertex -1.9337 5.66654 7
    endloop
  endfacet
  facet normal -0.226249 -0.97407 0
    outer loop
      vertex -2.136 5.71599 7
      vertex -2.03207 5.69185 7.499
      vertex -2.136 5.71599 7.499
    endloop
  endfacet
  facet normal -0.226249 -0.97407 -0
    outer loop
      vertex -2.03207 5.69185 7.499
      vertex -2.136 5.71599 7
      vertex -2.03207 5.69185 7
    endloop
  endfacet
  facet normal -1 0 0
    outer loop
      vertex -2.136 5.71599 7
      vertex -2.136 5.94899 7.499
      vertex -2.136 5.94899 7
    endloop
  endfacet
  facet normal -1 -0 0
    outer loop
      vertex -2.136 5.94899 7.499
      vertex -2.136 5.71599 7
      vertex -2.136 5.71599 7.499
    endloop
  endfacet
  facet normal 0.0362265 0.999344 -0
    outer loop
      vertex -0.536011 5.89099 7
      vertex -2.136 5.94899 7.499
      vertex -0.536011 5.89099 7.499
    endloop
  endfacet
  facet normal 0.0362265 0.999344 0
    outer loop
      vertex -2.136 5.94899 7.499
      vertex -0.536011 5.89099 7
      vertex -2.136 5.94899 7
    endloop
  endfacet
  facet normal 1 -0 0
    outer loop
      vertex -0.536011 0.403995 7.499
      vertex -0.536011 5.89099 7
      vertex -0.536011 5.89099 7.499
    endloop
  endfacet
  facet normal 1 0 0
    outer loop
      vertex -0.536011 5.89099 7
      vertex -0.536011 0.403995 7.499
      vertex -0.536011 0.403995 7
    endloop
  endfacet
  facet normal 0.0362258 -0.999344 0
    outer loop
      vertex -2.136 0.345996 7
      vertex -0.536011 0.403995 7.499
      vertex -2.136 0.345996 7.499
    endloop
  endfacet
  facet normal 0.0362258 -0.999344 0
    outer loop
      vertex -0.536011 0.403995 7.499
      vertex -2.136 0.345996 7
      vertex -0.536011 0.403995 7
    endloop
  endfacet
  facet normal -1 0 0
    outer loop
      vertex -2.136 0.345996 7
      vertex -2.136 0.578998 7.499
      vertex -2.136 0.578998 7
    endloop
  endfacet
  facet normal -1 -0 0
    outer loop
      vertex -2.136 0.578998 7.499
      vertex -2.136 0.345996 7
      vertex -2.136 0.345996 7.499
    endloop
  endfacet
  facet normal -0.241064 0.970509 0
    outer loop
      vertex -2.03329 0.60451 7
      vertex -2.136 0.578998 7.499
      vertex -2.03329 0.60451 7.499
    endloop
  endfacet
  facet normal -0.241064 0.970509 0
    outer loop
      vertex -2.136 0.578998 7.499
      vertex -2.03329 0.60451 7
      vertex -2.136 0.578998 7
    endloop
  endfacet
  facet normal -0.263391 0.964689 0
    outer loop
      vertex -1.93599 0.631076 7
      vertex -2.03329 0.60451 7.499
      vertex -1.93599 0.631076 7.499
    endloop
  endfacet
  facet normal -0.263391 0.964689 0
    outer loop
      vertex -2.03329 0.60451 7.499
      vertex -1.93599 0.631076 7
      vertex -2.03329 0.60451 7
    endloop
  endfacet
  facet normal -0.287692 0.957723 0
    outer loop
      vertex -1.8441 0.658679 7
      vertex -1.93599 0.631076 7.499
      vertex -1.8441 0.658679 7.499
    endloop
  endfacet
  facet normal -0.287692 0.957723 0
    outer loop
      vertex -1.93599 0.631076 7.499
      vertex -1.8441 0.658679 7
      vertex -1.93599 0.631076 7
    endloop
  endfacet
  facet normal -0.314458 0.949271 0
    outer loop
      vertex -1.75764 0.68732 7
      vertex -1.8441 0.658679 7.499
      vertex -1.75764 0.68732 7.499
    endloop
  endfacet
  facet normal -0.314458 0.949271 0
    outer loop
      vertex -1.8441 0.658679 7.499
      vertex -1.75764 0.68732 7
      vertex -1.8441 0.658679 7
    endloop
  endfacet
  facet normal -0.343843 0.939027 0
    outer loop
      vertex -1.67659 0.716998 7
      vertex -1.75764 0.68732 7.499
      vertex -1.67659 0.716998 7.499
    endloop
  endfacet
  facet normal -0.343843 0.939027 0
    outer loop
      vertex -1.75764 0.68732 7.499
      vertex -1.67659 0.716998 7
      vertex -1.75764 0.68732 7
    endloop
  endfacet
  facet normal -0.376486 0.926422 0
    outer loop
      vertex -1.60097 0.747729 7
      vertex -1.67659 0.716998 7.499
      vertex -1.60097 0.747729 7.499
    endloop
  endfacet
  facet normal -0.376486 0.926422 0
    outer loop
      vertex -1.67659 0.716998 7.499
      vertex -1.60097 0.747729 7
      vertex -1.67659 0.716998 7
    endloop
  endfacet
  facet normal -0.412247 0.911072 0
    outer loop
      vertex -1.53076 0.779498 7
      vertex -1.60097 0.747729 7.499
      vertex -1.53076 0.779498 7.499
    endloop
  endfacet
  facet normal -0.412247 0.911072 0
    outer loop
      vertex -1.60097 0.747729 7.499
      vertex -1.53076 0.779498 7
      vertex -1.60097 0.747729 7
    endloop
  endfacet
  facet normal -0.451735 0.892152 0
    outer loop
      vertex -1.46597 0.812304 7
      vertex -1.53076 0.779498 7.499
      vertex -1.46597 0.812304 7.499
    endloop
  endfacet
  facet normal -0.451735 0.892152 0
    outer loop
      vertex -1.53076 0.779498 7.499
      vertex -1.46597 0.812304 7
      vertex -1.53076 0.779498 7
    endloop
  endfacet
  facet normal -0.495237 0.868758 0
    outer loop
      vertex -1.4066 0.846148 7
      vertex -1.46597 0.812304 7.499
      vertex -1.4066 0.846148 7.499
    endloop
  endfacet
  facet normal -0.495237 0.868758 0
    outer loop
      vertex -1.46597 0.812304 7.499
      vertex -1.4066 0.846148 7
      vertex -1.46597 0.812304 7
    endloop
  endfacet
  facet normal -0.542957 0.839761 0
    outer loop
      vertex -1.35265 0.88103 7
      vertex -1.4066 0.846148 7.499
      vertex -1.35265 0.88103 7.499
    endloop
  endfacet
  facet normal -0.542957 0.839761 0
    outer loop
      vertex -1.4066 0.846148 7.499
      vertex -1.35265 0.88103 7
      vertex -1.4066 0.846148 7
    endloop
  endfacet
  facet normal -0.595008 0.80372 0
    outer loop
      vertex -1.30411 0.916965 7
      vertex -1.35265 0.88103 7.499
      vertex -1.30411 0.916965 7.499
    endloop
  endfacet
  facet normal -0.595008 0.80372 0
    outer loop
      vertex -1.35265 0.88103 7.499
      vertex -1.30411 0.916965 7
      vertex -1.35265 0.88103 7
    endloop
  endfacet
  facet normal -0.650913 0.759152 0
    outer loop
      vertex -1.26099 0.953937 7
      vertex -1.30411 0.916965 7.499
      vertex -1.26099 0.953937 7.499
    endloop
  endfacet
  facet normal -0.650913 0.759152 0
    outer loop
      vertex -1.30411 0.916965 7.499
      vertex -1.26099 0.953937 7
      vertex -1.30411 0.916965 7
    endloop
  endfacet
  facet normal -0.709893 0.704309 0
    outer loop
      vertex -1.26099 0.953937 7
      vertex -1.22328 0.991946 7.499
      vertex -1.22328 0.991946 7
    endloop
  endfacet
  facet normal -0.709893 0.704309 0
    outer loop
      vertex -1.22328 0.991946 7.499
      vertex -1.26099 0.953937 7
      vertex -1.26099 0.953937 7.499
    endloop
  endfacet
  facet normal -0.770804 0.637072 0
    outer loop
      vertex -1.22328 0.991946 7
      vertex -1.19101 1.03099 7.499
      vertex -1.19101 1.03099 7
    endloop
  endfacet
  facet normal -0.770804 0.637072 0
    outer loop
      vertex -1.19101 1.03099 7.499
      vertex -1.22328 0.991946 7
      vertex -1.22328 0.991946 7.499
    endloop
  endfacet
  facet normal -0.830181 0.557494 0
    outer loop
      vertex -1.19101 1.03099 7
      vertex -1.16249 1.07346 7.499
      vertex -1.16249 1.07346 7
    endloop
  endfacet
  facet normal -0.830181 0.557494 0
    outer loop
      vertex -1.16249 1.07346 7.499
      vertex -1.19101 1.03099 7
      vertex -1.19101 1.03099 7.499
    endloop
  endfacet
  facet normal -0.876046 0.482227 0
    outer loop
      vertex -1.16249 1.07346 7
      vertex -1.13609 1.12142 7.499
      vertex -1.13609 1.12142 7
    endloop
  endfacet
  facet normal -0.876046 0.482227 0
    outer loop
      vertex -1.13609 1.12142 7.499
      vertex -1.16249 1.07346 7
      vertex -1.16249 1.07346 7.499
    endloop
  endfacet
  facet normal -0.910431 0.413662 0
    outer loop
      vertex -1.13609 1.12142 7
      vertex -1.1118 1.17488 7.499
      vertex -1.1118 1.17488 7
    endloop
  endfacet
  facet normal -0.910431 0.413662 0
    outer loop
      vertex -1.1118 1.17488 7.499
      vertex -1.13609 1.12142 7
      vertex -1.13609 1.12142 7.499
    endloop
  endfacet
  facet normal -0.935911 0.352237 0
    outer loop
      vertex -1.1118 1.17488 7
      vertex -1.08961 1.23384 7.499
      vertex -1.08961 1.23384 7
    endloop
  endfacet
  facet normal -0.935911 0.352237 0
    outer loop
      vertex -1.08961 1.23384 7.499
      vertex -1.1118 1.17488 7
      vertex -1.1118 1.17488 7.499
    endloop
  endfacet
  facet normal -0.954846 0.297103 0
    outer loop
      vertex -1.08961 1.23384 7
      vertex -1.06955 1.29831 7.499
      vertex -1.06955 1.29831 7
    endloop
  endfacet
  facet normal -0.954846 0.297103 0
    outer loop
      vertex -1.06955 1.29831 7.499
      vertex -1.08961 1.23384 7
      vertex -1.08961 1.23384 7.499
    endloop
  endfacet
  facet normal -0.968659 0.248395 0
    outer loop
      vertex -1.06955 1.29831 7
      vertex -1.05161 1.36827 7.499
      vertex -1.05161 1.36827 7
    endloop
  endfacet
  facet normal -0.968659 0.248395 0
    outer loop
      vertex -1.05161 1.36827 7.499
      vertex -1.06955 1.29831 7
      vertex -1.06955 1.29831 7.499
    endloop
  endfacet
  facet normal -0.978624 0.205658 0
    outer loop
      vertex -1.05161 1.36827 7
      vertex -1.03575 1.44374 7.499
      vertex -1.03575 1.44374 7
    endloop
  endfacet
  facet normal -0.978624 0.205658 0
    outer loop
      vertex -1.03575 1.44374 7.499
      vertex -1.05161 1.36827 7
      vertex -1.05161 1.36827 7.499
    endloop
  endfacet
  facet normal -0.985946 0.167064 0
    outer loop
      vertex -1.03575 1.44374 7
      vertex -1.02203 1.52471 7.499
      vertex -1.02203 1.52471 7
    endloop
  endfacet
  facet normal -0.985946 0.167064 0
    outer loop
      vertex -1.02203 1.52471 7.499
      vertex -1.03575 1.44374 7
      vertex -1.03575 1.44374 7.499
    endloop
  endfacet
  facet normal -0.991087 0.133215 0
    outer loop
      vertex -1.02203 1.52471 7
      vertex -1.01041 1.61116 7.499
      vertex -1.01041 1.61116 7
    endloop
  endfacet
  facet normal -0.991087 0.133215 0
    outer loop
      vertex -1.01041 1.61116 7.499
      vertex -1.02203 1.52471 7
      vertex -1.02203 1.52471 7.499
    endloop
  endfacet
  facet normal -0.994696 0.102855 0
    outer loop
      vertex -1.01041 1.61116 7
      vertex -1.0009 1.70313 7.499
      vertex -1.0009 1.70313 7
    endloop
  endfacet
  facet normal -0.994696 0.102855 0
    outer loop
      vertex -1.0009 1.70313 7.499
      vertex -1.01041 1.61116 7
      vertex -1.01041 1.61116 7.499
    endloop
  endfacet
  facet normal -0.997142 0.0755504 0
    outer loop
      vertex -1.0009 1.70313 7
      vertex -0.993515 1.8006 7.499
      vertex -0.993515 1.8006 7
    endloop
  endfacet
  facet normal -0.997142 0.0755504 0
    outer loop
      vertex -0.993515 1.8006 7.499
      vertex -1.0009 1.70313 7
      vertex -1.0009 1.70313 7.499
    endloop
  endfacet
  facet normal -0.998688 0.0512098 0
    outer loop
      vertex -0.993515 1.8006 7
      vertex -0.988235 1.90357 7.499
      vertex -0.988235 1.90357 7
    endloop
  endfacet
  facet normal -0.998688 0.0512098 0
    outer loop
      vertex -0.988235 1.90357 7.499
      vertex -0.993515 1.8006 7
      vertex -0.993515 1.8006 7.499
    endloop
  endfacet
  facet normal -0.999572 0.0292425 0
    outer loop
      vertex -0.988235 1.90357 7
      vertex -0.985062 2.01203 7.499
      vertex -0.985062 2.01203 7
    endloop
  endfacet
  facet normal -0.999572 0.0292425 0
    outer loop
      vertex -0.985062 2.01203 7.499
      vertex -0.988235 1.90357 7
      vertex -0.988235 1.90357 7.499
    endloop
  endfacet
  facet normal -0.999957 0.00923969 0
    outer loop
      vertex -0.985062 2.01203 7
      vertex -0.984009 2.12599 7.499
      vertex -0.984009 2.12599 7
    endloop
  endfacet
  facet normal -0.999957 0.00923969 0
    outer loop
      vertex -0.984009 2.12599 7.499
      vertex -0.985062 2.01203 7
      vertex -0.985062 2.01203 7.499
    endloop
  endfacet
  facet normal -1 0 0
    outer loop
      vertex -0.984009 2.12599 7
      vertex -0.984009 2.65099 7.499
      vertex -0.984009 2.65099 7
    endloop
  endfacet
  facet normal -1 -0 0
    outer loop
      vertex -0.984009 2.65099 7.499
      vertex -0.984009 2.12599 7
      vertex -0.984009 2.12599 7.499
    endloop
  endfacet
  facet normal 0 -1 0
    outer loop
      vertex -5.82901 2.65099 7
      vertex -0.984009 2.65099 7.499
      vertex -5.82901 2.65099 7.499
    endloop
  endfacet
  facet normal 0 -1 -0
    outer loop
      vertex -0.984009 2.65099 7.499
      vertex -5.82901 2.65099 7
      vertex -0.984009 2.65099 7
    endloop
  endfacet
  facet normal 0.00916116 -0.999958 0
    outer loop
      vertex -5.91524 2.6502 7
      vertex -5.82901 2.65099 7.499
      vertex -5.91524 2.6502 7.499
    endloop
  endfacet
  facet normal 0.00916116 -0.999958 0
    outer loop
      vertex -5.82901 2.65099 7.499
      vertex -5.91524 2.6502 7
      vertex -5.82901 2.65099 7
    endloop
  endfacet
  facet normal 0.0293018 -0.999571 0
    outer loop
      vertex -5.99677 2.64781 7
      vertex -5.91524 2.6502 7.499
      vertex -5.99677 2.64781 7.499
    endloop
  endfacet
  facet normal 0.0293018 -0.999571 0
    outer loop
      vertex -5.91524 2.6502 7.499
      vertex -5.99677 2.64781 7
      vertex -5.91524 2.6502 7
    endloop
  endfacet
  facet normal 0.05174 -0.998661 0
    outer loop
      vertex -6.07359 2.64383 7
      vertex -5.99677 2.64781 7.499
      vertex -6.07359 2.64383 7.499
    endloop
  endfacet
  facet normal 0.05174 -0.998661 0
    outer loop
      vertex -5.99677 2.64781 7.499
      vertex -6.07359 2.64383 7
      vertex -5.99677 2.64781 7
    endloop
  endfacet
  facet normal 0.0769712 -0.997033 0
    outer loop
      vertex -6.14574 2.63826 7
      vertex -6.07359 2.64383 7.499
      vertex -6.14574 2.63826 7.499
    endloop
  endfacet
  facet normal 0.0769712 -0.997033 0
    outer loop
      vertex -6.07359 2.64383 7.499
      vertex -6.14574 2.63826 7
      vertex -6.07359 2.64383 7
    endloop
  endfacet
  facet normal 0.10569 -0.994399 0
    outer loop
      vertex -6.2132 2.63109 7
      vertex -6.14574 2.63826 7.499
      vertex -6.2132 2.63109 7.499
    endloop
  endfacet
  facet normal 0.10569 -0.994399 0
    outer loop
      vertex -6.14574 2.63826 7.499
      vertex -6.2132 2.63109 7
      vertex -6.14574 2.63826 7
    endloop
  endfacet
  facet normal 0.138282 -0.990393 0
    outer loop
      vertex -6.27594 2.62233 7
      vertex -6.2132 2.63109 7.499
      vertex -6.27594 2.62233 7.499
    endloop
  endfacet
  facet normal 0.138282 -0.990393 0
    outer loop
      vertex -6.2132 2.63109 7.499
      vertex -6.27594 2.62233 7
      vertex -6.2132 2.63109 7
    endloop
  endfacet
  facet normal 0.175304 -0.984514 0
    outer loop
      vertex -6.33401 2.61199 7
      vertex -6.27594 2.62233 7.499
      vertex -6.33401 2.61199 7.499
    endloop
  endfacet
  facet normal 0.175304 -0.984514 0
    outer loop
      vertex -6.27594 2.62233 7.499
      vertex -6.33401 2.61199 7
      vertex -6.27594 2.62233 7
    endloop
  endfacet
  facet normal 0.218363 -0.975868 0
    outer loop
      vertex -6.38737 2.60005 7
      vertex -6.33401 2.61199 7.499
      vertex -6.38737 2.60005 7.499
    endloop
  endfacet
  facet normal 0.218363 -0.975868 0
    outer loop
      vertex -6.33401 2.61199 7.499
      vertex -6.38737 2.60005 7
      vertex -6.33401 2.61199 7
    endloop
  endfacet
  facet normal 0.267787 -0.963478 0
    outer loop
      vertex -6.43605 2.58652 7
      vertex -6.38737 2.60005 7.499
      vertex -6.43605 2.58652 7.499
    endloop
  endfacet
  facet normal 0.267787 -0.963478 0
    outer loop
      vertex -6.38737 2.60005 7.499
      vertex -6.43605 2.58652 7
      vertex -6.38737 2.60005 7
    endloop
  endfacet
  facet normal 0.325116 -0.945674 0
    outer loop
      vertex -6.48003 2.5714 7
      vertex -6.43605 2.58652 7.499
      vertex -6.48003 2.5714 7.499
    endloop
  endfacet
  facet normal 0.325116 -0.945674 0
    outer loop
      vertex -6.43605 2.58652 7.499
      vertex -6.48003 2.5714 7
      vertex -6.43605 2.58652 7
    endloop
  endfacet
  facet normal 0.391374 -0.920232 0
    outer loop
      vertex -6.51932 2.55469 7
      vertex -6.48003 2.5714 7.499
      vertex -6.51932 2.55469 7.499
    endloop
  endfacet
  facet normal 0.391374 -0.920232 0
    outer loop
      vertex -6.48003 2.5714 7.499
      vertex -6.51932 2.55469 7
      vertex -6.48003 2.5714 7
    endloop
  endfacet
  facet normal 0.467841 -0.883813 0
    outer loop
      vertex -6.55391 2.53638 7
      vertex -6.51932 2.55469 7.499
      vertex -6.55391 2.53638 7.499
    endloop
  endfacet
  facet normal 0.467841 -0.883813 0
    outer loop
      vertex -6.51932 2.55469 7.499
      vertex -6.55391 2.53638 7
      vertex -6.51932 2.55469 7
    endloop
  endfacet
  facet normal 0.554186 -0.832393 0
    outer loop
      vertex -6.5838 2.51648 7
      vertex -6.55391 2.53638 7.499
      vertex -6.5838 2.51648 7.499
    endloop
  endfacet
  facet normal 0.554186 -0.832393 0
    outer loop
      vertex -6.55391 2.53638 7.499
      vertex -6.5838 2.51648 7
      vertex -6.55391 2.53638 7
    endloop
  endfacet
  facet normal 0.648551 -0.761171 0
    outer loop
      vertex -6.60901 2.495 7
      vertex -6.5838 2.51648 7.499
      vertex -6.60901 2.495 7.499
    endloop
  endfacet
  facet normal 0.648551 -0.761171 0
    outer loop
      vertex -6.5838 2.51648 7.499
      vertex -6.60901 2.495 7
      vertex -6.5838 2.51648 7
    endloop
  endfacet
  facet normal 0.739625 -0.673019 0
    outer loop
      vertex -6.63124 2.47057 7.499
      vertex -6.60901 2.495 7
      vertex -6.60901 2.495 7.499
    endloop
  endfacet
  facet normal 0.739625 -0.673019 0
    outer loop
      vertex -6.60901 2.495 7
      vertex -6.63124 2.47057 7.499
      vertex -6.63124 2.47057 7
    endloop
  endfacet
  facet normal 0.809906 -0.58656 0
    outer loop
      vertex -6.65225 2.44156 7.499
      vertex -6.63124 2.47057 7
      vertex -6.63124 2.47057 7.499
    endloop
  endfacet
  facet normal 0.809906 -0.58656 0
    outer loop
      vertex -6.63124 2.47057 7
      vertex -6.65225 2.44156 7.499
      vertex -6.65225 2.44156 7
    endloop
  endfacet
  facet normal 0.861565 -0.507648 0
    outer loop
      vertex -6.67203 2.40799 7.499
      vertex -6.65225 2.44156 7
      vertex -6.65225 2.44156 7.499
    endloop
  endfacet
  facet normal 0.861565 -0.507648 0
    outer loop
      vertex -6.65225 2.44156 7
      vertex -6.67203 2.40799 7.499
      vertex -6.67203 2.40799 7
    endloop
  endfacet
  facet normal 0.899556 -0.436806 0
    outer loop
      vertex -6.69055 2.36985 7.499
      vertex -6.67203 2.40799 7
      vertex -6.67203 2.40799 7.499
    endloop
  endfacet
  facet normal 0.899556 -0.436806 0
    outer loop
      vertex -6.67203 2.40799 7
      vertex -6.69055 2.36985 7.499
      vertex -6.69055 2.36985 7
    endloop
  endfacet
  facet normal 0.926776 -0.375614 0
    outer loop
      vertex -6.70786 2.32714 7.499
      vertex -6.69055 2.36985 7
      vertex -6.69055 2.36985 7.499
    endloop
  endfacet
  facet normal 0.926776 -0.375614 0
    outer loop
      vertex -6.69055 2.36985 7
      vertex -6.70786 2.32714 7.499
      vertex -6.70786 2.32714 7
    endloop
  endfacet
  facet normal 0.946886 -0.321569 0
    outer loop
      vertex -6.72392 2.27985 7.499
      vertex -6.70786 2.32714 7
      vertex -6.70786 2.32714 7.499
    endloop
  endfacet
  facet normal 0.946886 -0.321569 0
    outer loop
      vertex -6.70786 2.32714 7
      vertex -6.72392 2.27985 7.499
      vertex -6.72392 2.27985 7
    endloop
  endfacet
  facet normal 0.961447 -0.274991 0
    outer loop
      vertex -6.73875 2.228 7.499
      vertex -6.72392 2.27985 7
      vertex -6.72392 2.27985 7.499
    endloop
  endfacet
  facet normal 0.961447 -0.274991 0
    outer loop
      vertex -6.72392 2.27985 7
      vertex -6.73875 2.228 7.499
      vertex -6.73875 2.228 7
    endloop
  endfacet
  facet normal 0.972174 -0.234259 0
    outer loop
      vertex -6.75235 2.17156 7.499
      vertex -6.73875 2.228 7
      vertex -6.73875 2.228 7.499
    endloop
  endfacet
  facet normal 0.972174 -0.234259 0
    outer loop
      vertex -6.73875 2.228 7
      vertex -6.75235 2.17156 7.499
      vertex -6.75235 2.17156 7
    endloop
  endfacet
  facet normal 0.980077 -0.198619 0
    outer loop
      vertex -6.76471 2.11057 7.499
      vertex -6.75235 2.17156 7
      vertex -6.75235 2.17156 7.499
    endloop
  endfacet
  facet normal 0.980077 -0.198619 0
    outer loop
      vertex -6.75235 2.17156 7
      vertex -6.76471 2.11057 7.499
      vertex -6.76471 2.11057 7
    endloop
  endfacet
  facet normal 0.985877 -0.16747 0
    outer loop
      vertex -6.77585 2.04499 7.499
      vertex -6.76471 2.11057 7
      vertex -6.76471 2.11057 7.499
    endloop
  endfacet
  facet normal 0.985877 -0.16747 0
    outer loop
      vertex -6.76471 2.11057 7
      vertex -6.77585 2.04499 7.499
      vertex -6.77585 2.04499 7
    endloop
  endfacet
  facet normal 0.990202 -0.139642 0
    outer loop
      vertex -6.78574 1.97486 7.499
      vertex -6.77585 2.04499 7
      vertex -6.77585 2.04499 7.499
    endloop
  endfacet
  facet normal 0.990202 -0.139642 0
    outer loop
      vertex -6.77585 2.04499 7
      vertex -6.78574 1.97486 7.499
      vertex -6.78574 1.97486 7
    endloop
  endfacet
  facet normal 0.993368 -0.114982 0
    outer loop
      vertex -6.79439 1.90013 7.499
      vertex -6.78574 1.97486 7
      vertex -6.78574 1.97486 7.499
    endloop
  endfacet
  facet normal 0.993368 -0.114982 0
    outer loop
      vertex -6.78574 1.97486 7
      vertex -6.79439 1.90013 7.499
      vertex -6.79439 1.90013 7
    endloop
  endfacet
  facet normal 0.995637 -0.0933096 0
    outer loop
      vertex -6.80182 1.82085 7.499
      vertex -6.79439 1.90013 7
      vertex -6.79439 1.90013 7.499
    endloop
  endfacet
  facet normal 0.995637 -0.0933096 0
    outer loop
      vertex -6.79439 1.90013 7
      vertex -6.80182 1.82085 7.499
      vertex -6.80182 1.82085 7
    endloop
  endfacet
  facet normal 0.997287 -0.0736132 0
    outer loop
      vertex -6.80801 1.73699 7.499
      vertex -6.80182 1.82085 7
      vertex -6.80182 1.82085 7.499
    endloop
  endfacet
  facet normal 0.997287 -0.0736132 0
    outer loop
      vertex -6.80182 1.82085 7
      vertex -6.80801 1.73699 7.499
      vertex -6.80801 1.73699 7
    endloop
  endfacet
  facet normal 0 -1 0
    outer loop
      vertex -7 1.73699 7
      vertex -6.80801 1.73699 7.499
      vertex -7 1.73699 7.499
    endloop
  endfacet
  facet normal 0 -1 -0
    outer loop
      vertex -6.80801 1.73699 7.499
      vertex -7 1.73699 7
      vertex -6.80801 1.73699 7
    endloop
  endfacet
  facet normal -1 0 0
    outer loop
      vertex -7 1.73699 7
      vertex -7 4.57799 7.499
      vertex -7 4.57799 7
    endloop
  endfacet
  facet normal -1 -0 0
    outer loop
      vertex -7 4.57799 7.499
      vertex -7 1.73699 7
      vertex -7 1.73699 7.499
    endloop
  endfacet
  facet normal 0 1 -0
    outer loop
      vertex -6.80801 4.57799 7
      vertex -7 4.57799 7.499
      vertex -6.80801 4.57799 7.499
    endloop
  endfacet
  facet normal 0 1 0
    outer loop
      vertex -7 4.57799 7.499
      vertex -6.80801 4.57799 7
      vertex -7 4.57799 7
    endloop
  endfacet
endsolid OpenSCAD_Model
